<?xml version="1.0" encoding="UTF-8" standalone="no"?>
<!DOCTYPE svg PUBLIC "-//W3C//DTD SVG 1.1//EN" "http://www.w3.org/Graphics/SVG/1.1/DTD/svg11.dtd">
<svg xmlns="http://www.w3.org/2000/svg" version="1.1" viewBox="0.00 0.00 1537.00 1023.00">
<g stroke-width="2.00" fill="none" stroke-linecap="butt">
<path stroke="#80cbea" vector-effect="non-scaling-stroke" d="
  M 1092.83 278.90
  C 1093.21 281.33 1093.01 284.02 1093.49 286.72
  Q 1094.95 294.84 1095.57 300.91
  A 1.16 1.15 -8.5 0 0 1096.94 301.92
  Q 1099.90 301.34 1102.33 299.71
  A 2.48 2.47 -11.2 0 0 1103.39 298.13
  L 1109.03 270.77
  A 2.85 2.83 83.5 0 1 1110.61 268.77
  Q 1122.81 263.01 1134.75 256.25
  Q 1137.92 254.46 1139.39 249.76
  C 1141.11 244.29 1131.82 244.35 1128.80 245.11
  C 1125.16 246.03 1120.23 249.38 1116.68 250.95
  Q 1108.11 254.72 1100.75 258.47
  A 2.62 2.60 39.0 0 1 1098.87 258.66
  L 1065.55 249.24
  A 2.06 2.05 41.6 0 0 1064.16 249.32
  L 1058.90 251.51
  A 1.10 1.10 0.0 0 0 1058.73 253.45
  L 1081.06 267.85
  A 0.34 0.34 0.0 0 1 1081.05 268.43
  L 1062.29 279.91
  A 2.98 2.94 -52.7 0 1 1059.96 280.24
  L 1052.77 278.20
  A 1.40 1.35 -47.8 0 0 1051.86 278.26
  L 1048.33 279.73
  A 1.41 1.41 0.0 0 0 1048.11 282.22
  L 1055.35 286.89
  A 1.70 1.67 -83.3 0 1 1056.04 287.78
  L 1059.17 297.20
  A 1.69 1.69 0.0 0 0 1061.23 298.29
  Q 1062.48 297.94 1064.19 296.50
  A 1.30 1.27 -14.5 0 0 1064.63 295.77
  L 1065.85 289.83
  A 1.48 1.47 -5.5 0 1 1066.72 288.78
  L 1091.79 278.31
  A 0.76 0.76 0.0 0 1 1092.83 278.90"
/>
<path stroke="#c0e3ed" vector-effect="non-scaling-stroke" d="
  M 1023.24 283.84
  Q 1000.18 285.75 987.49 287.31
  C 967.79 289.74 950.99 291.51 932.54 294.21
  Q 876.24 302.45 819.83 315.62
  Q 779.77 324.98 756.41 331.49
  Q 740.62 335.88 738.29 336.42
  C 732.42 337.79 726.53 340.10 719.81 341.74
  C 710.45 344.03 700.84 347.53 691.15 350.13
  C 683.23 352.24 674.15 355.78 665.80 358.04
  C 658.10 360.13 652.61 362.31 644.89 364.61
  Q 638.35 366.55 629.28 369.68
  C 602.84 378.80 586.75 384.03 564.28 392.62
  Q 549.18 398.39 537.34 402.79
  C 531.89 404.82 526.67 407.27 521.24 409.26
  C 501.16 416.62 486.91 423.56 468.52 430.43
  Q 461.68 432.98 447.58 438.81
  A 0.30 0.30 0.0 0 0 447.72 439.39
  C 453.26 438.89 458.36 439.36 464.43 439.24
  Q 483.32 438.87 488.50 439.27
  Q 489.95 439.38 492.13 438.38
  C 498.59 435.43 504.07 432.53 509.62 430.26
  Q 519.65 426.14 542.19 416.40
  C 549.80 413.11 557.52 410.48 565.40 406.99
  C 566.81 406.37 568.87 405.82 570.14 405.57
  A 8.13 8.06 25.7 0 0 572.31 404.82
  Q 574.13 403.89 582.73 400.68
  Q 638.54 379.82 681.04 365.66
  C 690.35 362.56 698.29 360.38 706.16 357.47
  C 712.22 355.23 719.10 353.60 723.52 351.97
  Q 731.02 349.19 736.51 347.80
  Q 740.66 346.74 778.11 335.77
  C 799.47 329.51 830.01 322.00 845.89 317.91
  Q 860.08 314.26 902.26 305.06
  Q 918.14 301.60 930.41 299.46
  Q 950.76 295.92 958.65 294.34
  Q 967.86 292.49 990.96 289.23
  Q 997.19 288.35 1023.30 284.18
  A 0.16 0.16 0.0 0 0 1023.43 284.00
  A 0.18 0.18 0.0 0 0 1023.24 283.84"
/>
<path stroke="#8b959e" vector-effect="non-scaling-stroke" d="
  M 464.05 340.52
  C 463.95 338.98 464.78 337.02 465.14 335.05
  Q 469.54 311.02 470.80 304.03
  Q 472.00 297.31 471.80 292.40
  A 1.71 1.71 0.0 0 0 469.82 290.78
  L 454.19 293.20
  A 1.15 1.15 0.0 0 0 453.22 294.37
  Q 453.56 304.73 451.86 315.82
  Q 446.12 353.42 441.74 381.93
  A 1.32 1.32 0.0 0 0 443.10 383.45
  L 458.54 382.81
  A 1.40 1.40 0.0 0 0 459.88 381.50
  C 460.92 366.59 463.14 352.94 471.50 340.57
  Q 474.58 336.00 479.11 334.11
  C 483.54 332.25 484.21 337.22 483.91 340.34
  Q 483.56 344.12 479.34 367.03
  Q 478.38 372.23 479.02 377.50
  C 480.23 387.61 490.79 385.36 496.70 381.43
  Q 498.16 380.45 499.93 379.02
  A 1.17 1.17 0.0 0 0 499.90 377.18
  C 496.06 374.28 496.91 367.56 497.65 363.30
  Q 499.73 351.25 500.90 344.44
  C 502.24 336.67 504.05 326.33 496.27 322.34
  C 487.97 318.10 476.77 324.21 471.12 330.88
  Q 467.45 335.22 464.69 340.65
  A 0.34 0.34 0.0 0 1 464.05 340.52"
/>
<path stroke="#f9adaf" vector-effect="non-scaling-stroke" d="
  M 1278.20 374.42
  C 1277.18 372.96 1276.49 371.12 1275.36 368.78
  Q 1273.94 365.81 1268.26 360.24
  Q 1262.13 354.24 1256.87 352.42
  A 6.80 6.74 56.6 0 0 1255.25 352.08
  Q 1251.41 351.79 1248.29 351.38
  C 1240.10 350.33 1232.66 345.41 1230.88 337.13
  Q 1230.37 334.78 1227.72 335.11
  C 1223.44 335.65 1220.91 339.24 1219.70 343.48
  C 1216.63 354.30 1220.71 363.05 1224.79 373.02
  Q 1226.91 378.20 1229.38 382.13
  Q 1237.29 394.71 1245.27 405.25
  C 1259.41 423.90 1271.25 443.10 1276.26 465.28
  C 1279.47 479.47 1278.21 493.08 1274.49 507.41
  C 1272.54 514.88 1268.67 522.64 1264.66 528.78
  A 1.08 1.07 -53.3 0 0 1264.86 530.18
  L 1270.87 535.42
  A 0.82 0.82 0.0 0 0 1271.86 535.49
  Q 1275.16 533.26 1277.60 530.11
  Q 1285.78 519.51 1289.10 507.33
  C 1292.32 495.53 1293.64 483.95 1291.41 471.05
  Q 1289.20 458.21 1285.64 449.63
  C 1281.11 438.70 1275.99 428.62 1268.94 418.09
  C 1263.65 410.19 1260.71 405.34 1255.89 399.61
  C 1251.31 394.16 1247.63 388.31 1243.40 382.82
  Q 1239.94 378.33 1237.88 374.21
  C 1234.01 366.48 1232.32 362.93 1230.77 355.66
  A 0.36 0.36 0.0 0 1 1231.35 355.30
  C 1236.85 359.69 1242.40 360.44 1249.72 361.77
  C 1258.38 363.35 1261.77 368.41 1266.14 376.09
  Q 1269.36 381.74 1270.13 384.64
  Q 1271.87 391.17 1273.53 400.84
  A 1.04 1.03 80.4 0 0 1274.71 401.68
  Q 1281.43 400.62 1285.65 395.72
  C 1294.01 385.99 1295.62 373.96 1293.59 360.59
  Q 1293.25 358.34 1291.24 354.71
  Q 1285.44 344.26 1278.89 338.95
  A 1.39 1.37 18.1 0 1 1278.39 337.98
  C 1278.10 333.71 1278.75 329.00 1277.90 324.90
  Q 1274.43 308.04 1260.07 298.73
  Q 1251.34 293.06 1242.25 292.21
  C 1234.86 291.51 1227.14 291.53 1220.29 294.03
  C 1204.89 299.65 1193.99 310.79 1189.05 326.32
  C 1180.83 352.13 1191.73 375.66 1202.90 398.31
  C 1209.62 411.94 1213.06 428.45 1210.88 443.79
  A 1.62 1.62 0.0 0 0 1212.83 445.60
  L 1224.03 443.14
  A 1.46 1.46 0.0 0 0 1225.16 441.92
  Q 1225.47 439.81 1225.39 438.52
  Q 1224.14 417.14 1216.33 399.44
  C 1213.55 393.14 1212.09 389.42 1209.49 384.48
  Q 1203.78 373.63 1199.69 360.26
  C 1196.57 350.05 1197.57 338.55 1200.74 328.45
  C 1202.63 322.45 1205.81 318.56 1209.69 314.19
  Q 1213.53 309.86 1220.02 306.91
  Q 1234.72 300.21 1249.70 306.30
  C 1257.08 309.30 1261.07 314.36 1264.91 321.13
  Q 1267.17 325.12 1267.07 330.52
  Q 1266.91 338.57 1266.53 341.42
  A 1.36 1.34 -63.1 0 0 1266.89 342.54
  C 1272.10 348.07 1277.88 351.42 1280.98 358.45
  C 1281.45 359.52 1280.99 360.61 1280.13 361.40
  C 1276.94 364.32 1278.25 370.72 1278.70 374.23
  A 0.28 0.27 23.9 0 1 1278.20 374.42"
/>
<path stroke="#8b959e" vector-effect="non-scaling-stroke" d="
  M 375.88 310.78
  L 398.72 309.30
  A 0.70 0.70 0.0 0 1 399.45 310.09
  L 389.88 381.93
  A 1.32 1.32 0.0 0 0 391.25 383.42
  L 408.63 382.71
  A 1.48 1.47 89.2 0 0 410.04 381.25
  Q 410.10 376.54 410.55 372.50
  Q 414.07 340.80 418.45 309.75
  A 0.64 0.63 4.2 0 1 419.08 309.21
  Q 429.70 309.22 441.08 311.15
  A 1.22 1.22 0.0 0 0 442.50 310.11
  L 443.88 299.73
  A 1.26 1.25 2.9 0 0 442.59 298.31
  Q 411.69 299.35 378.00 298.08
  A 1.47 1.46 4.7 0 0 376.49 299.35
  L 375.08 309.92
  A 0.76 0.76 0.0 0 0 375.88 310.78"
/>
<path stroke="#8b959e" vector-effect="non-scaling-stroke" d="
  M 527.43 359.02
  A 0.90 0.90 0.0 0 1 528.17 358.20
  C 539.99 356.07 562.86 349.39 561.06 333.43
  C 559.58 320.39 543.20 319.22 533.26 322.76
  C 524.82 325.77 519.20 330.06 514.59 337.84
  C 502.97 357.43 506.64 389.32 537.43 384.38
  Q 547.28 382.80 555.98 375.65
  A 2.56 2.56 0.0 0 0 556.54 372.34
  L 555.51 370.67
  A 1.83 1.82 56.6 0 0 552.90 370.13
  C 546.68 374.58 537.20 377.10 530.96 371.00
  C 528.14 368.25 527.11 363.06 527.43 359.02"
/>
<path stroke="#f9adaf" vector-effect="non-scaling-stroke" d="
  M 1248.8710 331.2542
  A 5.20 4.54 -154.9 0 0 1251.6541 337.5713
  A 5.20 4.54 -154.9 0 0 1258.2890 335.6658
  A 5.20 4.54 -154.9 0 0 1255.5059 329.3487
  A 5.20 4.54 -154.9 0 0 1248.8710 331.2542"
/>
<path stroke="#80cbea" vector-effect="non-scaling-stroke" d="
  M 807.77 595.51
  A 1.28 1.28 0.0 0 0 808.63 594.25
  C 808.15 584.41 808.60 573.87 809.56 563.25
  C 814.74 505.55 822.11 450.80 830.12 388.10
  C 830.39 385.93 828.40 385.18 826.49 385.50
  Q 804.88 389.13 783.43 389.87
  A 2.08 2.08 0.0 0 0 781.42 392.02
  Q 781.90 406.50 780.42 419.75
  C 777.20 448.41 772.73 485.04 769.12 522.54
  Q 765.93 555.70 763.75 577.38
  Q 763.71 577.73 762.15 593.74
  Q 761.89 596.39 764.50 596.42
  C 772.67 596.52 781.89 595.74 790.51 595.74
  Q 795.46 595.74 806.75 595.78
  Q 806.95 595.78 807.77 595.51"
/>
<path stroke="#f9adaf" vector-effect="non-scaling-stroke" d="
  M 1167.38 498.36
  Q 1168.42 492.57 1169.76 480.83
  Q 1170.51 474.21 1171.88 460.75
  C 1174.40 435.88 1178.92 404.84 1180.33 392.87
  Q 1180.89 388.17 1180.71 387.21
  Q 1180.40 385.44 1177.87 385.79
  C 1162.08 387.99 1151.77 389.68 1138.47 390.72
  A 1.43 1.42 -3.2 0 0 1137.16 392.18
  Q 1137.61 408.91 1136.32 425.50
  Q 1131.29 490.25 1125.05 555.01
  Q 1122.52 581.29 1121.87 586.85
  A 2.69 2.68 -73.4 0 0 1123.33 589.55
  Q 1135.06 595.45 1147.82 598.45
  Q 1152.63 599.58 1161.24 600.12
  Q 1170.60 600.72 1174.74 600.53
  Q 1201.10 599.38 1220.63 583.19
  Q 1231.76 573.96 1237.65 564.88
  Q 1252.37 542.17 1253.93 512.68
  Q 1254.49 502.22 1252.87 493.92
  C 1249.80 478.16 1245.00 464.13 1229.17 458.15
  C 1214.47 452.59 1196.62 459.72 1186.10 470.08
  Q 1181.18 474.92 1179.38 477.12
  Q 1176.49 480.66 1171.36 490.05
  C 1169.86 492.80 1169.19 495.72 1167.83 498.51
  A 0.24 0.24 0.0 0 1 1167.38 498.36"
/>
<path stroke="#80cbea" vector-effect="non-scaling-stroke" d="
  M 210.27 425.14
  Q 208.88 445.14 207.40 460.51
  Q 200.41 532.78 195.09 587.47
  Q 194.63 592.27 194.47 594.32
  Q 194.28 596.89 197.21 596.88
  Q 215.69 596.78 243.30 595.79
  A 1.20 1.20 0.0 0 0 244.46 594.57
  Q 244.15 576.21 245.94 555.49
  Q 251.23 494.53 258.91 425.39
  A 0.58 0.57 1.7 0 1 259.46 424.88
  Q 267.46 424.58 271.76 424.68
  Q 298.91 425.28 318.36 425.93
  A 1.46 1.45 -84.9 0 0 319.84 424.68
  Q 321.78 411.45 323.75 397.51
  C 324.04 395.45 323.17 394.63 321.10 394.67
  Q 316.33 394.77 313.50 394.96
  Q 256.57 398.83 204.24 396.05
  Q 175.71 394.53 161.07 393.53
  A 2.30 2.29 -84.2 0 0 158.65 395.51
  L 154.47 426.91
  A 1.77 1.77 0.0 0 0 156.45 428.90
  Q 183.46 425.41 209.82 424.68
  A 0.43 0.43 0.0 0 1 210.27 425.14"
/>
<path stroke="#f9adaf" vector-effect="non-scaling-stroke" d="
  M 919.49 572.16
  Q 919.39 568.79 919.67 565.69
  C 921.72 542.79 924.53 519.30 926.62 498.68
  Q 929.36 471.60 936.14 415.97
  Q 937.23 407.02 937.76 400.90
  A 1.39 1.39 0.0 0 0 936.28 399.39
  L 894.14 402.10
  A 2.02 2.01 -0.6 0 0 892.26 404.02
  Q 891.55 422.12 889.45 440.24
  Q 879.98 521.97 872.66 594.35
  A 1.54 1.54 0.0 0 0 874.21 596.05
  Q 919.58 595.56 968.89 597.04
  C 971.25 597.11 972.51 596.68 972.67 594.23
  Q 972.82 592.14 974.43 572.41
  A 1.76 1.76 0.0 0 0 972.42 570.53
  Q 945.89 574.39 919.77 572.45
  A 0.30 0.30 0.0 0 1 919.49 572.16"
/>
<path stroke="#80cbea" vector-effect="non-scaling-stroke" d="
  M 328.04 512.57
  Q 328.15 511.11 328.38 509.77
  Q 332.39 486.09 333.94 460.50
  C 334.05 458.60 333.31 456.41 331.06 456.71
  Q 311.86 459.27 292.61 461.59
  A 1.79 1.79 0.0 0 0 291.04 463.46
  C 291.70 475.00 291.71 484.18 290.57 497.14
  C 287.38 533.43 284.70 560.02 281.48 594.50
  Q 281.25 596.94 283.78 596.97
  C 291.84 597.06 299.49 596.30 308.08 596.05
  Q 315.17 595.85 324.24 595.55
  A 1.57 1.57 0.0 0 0 325.76 594.02
  C 325.93 587.66 325.71 579.98 326.29 572.69
  Q 327.89 552.53 332.84 533.06
  Q 336.35 519.21 342.81 507.55
  Q 345.97 501.85 351.91 496.66
  C 359.34 490.15 367.76 490.57 376.23 494.58
  A 1.10 1.09 20.5 0 0 377.75 493.89
  L 386.90 461.52
  A 2.21 2.20 20.3 0 0 385.69 458.91
  C 372.95 453.07 358.25 460.57 349.80 470.25
  Q 338.09 483.66 332.53 500.23
  Q 330.00 507.76 328.71 512.63
  A 0.04 0.04 0.0 0 1 328.68 512.67
  L 328.44 512.82
  A 0.27 0.26 76.6 0 1 328.04 512.57"
/>
<path stroke="#80cbea" vector-effect="non-scaling-stroke" d="
  M 679.14 540.31
  Q 700.07 535.36 719.04 525.78
  C 734.14 518.16 752.49 504.64 750.19 485.29
  C 747.96 466.53 733.45 458.81 716.28 457.13
  C 696.16 455.16 675.63 462.46 661.34 476.03
  C 642.66 493.78 633.60 522.43 634.70 547.90
  Q 635.30 561.93 640.87 572.70
  C 650.80 591.90 668.54 599.91 690.02 599.29
  C 711.81 598.66 732.70 588.64 746.55 571.39
  A 1.70 1.70 0.0 0 0 746.68 569.44
  L 743.38 564.05
  A 1.45 1.45 0.0 0 0 741.35 563.60
  C 731.08 570.39 719.38 575.98 707.24 575.76
  C 687.31 575.40 680.35 557.67 678.68 540.96
  A 0.61 0.60 80.7 0 1 679.14 540.31"
/>
<path stroke="#f9adaf" vector-effect="non-scaling-stroke" d="
  M 1066.63 549.19
  Q 1066.72 549.34 1066.69 549.75
  Q 1066.48 552.38 1065.11 562.44
  C 1064.48 567.05 1064.75 570.88 1064.61 575.77
  Q 1064.44 581.88 1065.72 585.62
  C 1068.18 592.82 1071.65 599.41 1080.49 599.09
  Q 1096.78 598.49 1110.13 587.28
  A 1.42 1.42 0.0 0 0 1110.19 585.16
  C 1105.82 581.03 1103.79 576.12 1103.38 569.60
  Q 1102.72 559.17 1102.75 558.00
  Q 1104.10 511.60 1110.63 465.82
  A 1.45 1.45 0.0 0 0 1109.54 464.20
  Q 1095.92 460.82 1089.23 459.35
  Q 1081.06 457.55 1067.52 456.95
  Q 1048.05 456.10 1030.33 465.16
  C 1007.97 476.60 991.47 499.27 984.58 523.11
  Q 979.16 541.86 980.22 559.09
  Q 980.79 568.28 982.99 574.73
  Q 985.54 582.18 990.54 588.79
  C 998.62 599.48 1011.85 601.09 1024.14 597.82
  C 1033.75 595.26 1043.40 587.11 1049.56 579.12
  Q 1060.33 565.17 1065.94 549.25
  A 0.38 0.38 0.0 0 1 1066.63 549.19"
/>
<path stroke="#80cbea" vector-effect="non-scaling-stroke" d="
  M 458.54 547.94
  A 0.57 0.56 4.9 0 1 459.09 548.59
  Q 456.72 563.99 457.45 578.75
  C 457.74 584.61 460.41 592.63 465.30 596.29
  C 475.25 603.74 494.29 593.67 503.12 587.19
  A 1.71 1.71 0.0 0 0 503.22 584.51
  C 495.69 578.12 495.54 568.58 495.65 559.26
  Q 495.80 547.61 496.64 539.08
  Q 499.35 511.64 502.25 480.61
  C 502.70 475.82 503.40 471.71 503.93 467.21
  C 504.19 464.94 503.28 464.23 501.33 463.72
  C 482.58 458.83 460.78 454.34 441.34 458.81
  Q 417.75 464.24 401.54 480.55
  Q 378.90 503.36 372.67 535.96
  Q 370.20 548.93 371.67 562.62
  C 373.34 578.11 381.78 596.45 399.04 598.93
  Q 416.82 601.49 430.32 590.50
  C 434.82 586.83 438.26 583.69 441.34 579.61
  Q 452.32 565.05 457.94 548.16
  A 0.34 0.34 0.0 0 1 458.26 547.93
  L 458.54 547.94"
/>
<path stroke="#80cbea" vector-effect="non-scaling-stroke" d="
  M 579.43 560.67
  C 578.93 554.04 578.64 548.69 577.59 541.13
  Q 571.92 500.50 564.21 461.32
  C 563.76 459.05 563.10 458.30 560.77 458.52
  C 548.99 459.62 535.08 461.79 520.60 463.55
  A 1.62 1.62 0.0 0 0 519.20 465.45
  C 521.36 477.28 524.74 489.51 527.47 502.21
  Q 533.52 530.38 541.54 567.98
  Q 544.12 580.09 546.72 594.93
  A 2.37 2.37 0.0 0 0 549.16 596.90
  L 585.24 595.41
  A 1.62 1.61 12.5 0 0 586.60 594.55
  Q 602.51 564.39 617.51 531.53
  C 626.45 511.96 633.18 496.03 638.18 476.94
  C 638.93 474.08 641.76 462.57 638.58 460.13
  A 1.09 1.07 -25.4 0 0 637.97 459.92
  L 611.14 459.40
  A 1.22 1.21 -88.8 0 0 609.90 460.60
  C 609.52 487.84 602.41 515.47 590.84 539.09
  Q 584.91 551.20 580.12 560.81
  A 0.37 0.36 56.2 0 1 579.43 560.67"
/>
<path stroke="#8b959e" vector-effect="non-scaling-stroke" d="
  M 1266.70 597.99
  Q 1267.75 598.00 1268.07 597.94
  A 0.75 0.74 -4.8 0 0 1268.70 597.21
  L 1268.70 575.10
  A 0.69 0.69 0.0 0 1 1269.39 574.41
  L 1276.07 574.41
  A 0.86 0.86 0.0 0 0 1276.93 573.55
  L 1276.93 571.73
  A 0.82 0.81 0.2 0 0 1276.12 570.92
  Q 1271.69 570.92 1266.79 570.90
  Q 1261.88 570.89 1257.45 570.87
  A 0.82 0.81 0.1 0 0 1256.64 571.67
  L 1256.62 573.49
  A 0.86 0.86 0.0 0 0 1257.48 574.35
  L 1264.16 574.39
  A 0.69 0.69 0.0 0 1 1264.84 575.09
  L 1264.70 597.20
  A 0.75 0.74 5.1 0 0 1265.33 597.94
  Q 1265.65 597.99 1266.70 597.99"
/>
<path stroke="#8b959e" vector-effect="non-scaling-stroke" d="
  M 1296.97 591.90
  Q 1296.89 591.90 1296.72 591.84
  A 0.04 0.03 75.5 0 1 1296.69 591.82
  L 1289.09 571.87
  A 1.35 1.35 0.0 0 0 1287.83 571.00
  L 1283.99 571.00
  A 0.72 0.71 0.0 0 0 1283.27 571.71
  L 1283.27 597.33
  A 0.87 0.87 0.0 0 0 1284.14 598.20
  L 1286.24 598.20
  A 0.94 0.94 0.0 0 0 1287.18 597.26
  L 1287.18 577.24
  A 0.23 0.23 0.0 0 1 1287.63 577.16
  Q 1291.31 587.23 1295.69 597.38
  Q 1295.94 597.95 1296.98 597.95
  Q 1298.02 597.95 1298.27 597.37
  Q 1302.60 587.20 1306.23 577.12
  A 0.23 0.23 0.0 0 1 1306.68 577.19
  L 1306.78 597.21
  A 0.94 0.94 0.0 0 0 1307.72 598.15
  L 1309.82 598.14
  A 0.87 0.87 0.0 0 0 1310.69 597.27
  L 1310.57 571.65
  A 0.72 0.71 -0.3 0 0 1309.84 570.94
  L 1306.00 570.96
  A 1.35 1.35 0.0 0 0 1304.75 571.83
  L 1297.24 591.82
  A 0.04 0.03 -75.8 0 1 1297.22 591.84
  Q 1297.04 591.90 1296.97 591.90"
/>
<path stroke="#8b959e" vector-effect="non-scaling-stroke" d="
  M 768.72 702.91
  A 0.48 0.47 6.5 0 1 769.18 703.48
  Q 768.07 708.96 767.91 715.01
  C 767.47 731.91 782.35 726.87 790.08 720.51
  A 1.70 1.70 0.0 0 0 790.08 717.89
  Q 787.31 715.59 786.99 711.99
  C 786.44 705.65 787.22 701.69 788.11 692.33
  Q 788.69 686.22 789.58 679.70
  Q 794.68 642.36 795.89 632.23
  C 796.16 630.01 796.68 627.50 796.53 624.98
  A 1.55 1.55 0.0 0 0 794.80 623.53
  L 776.69 625.62
  A 1.38 1.37 -4.5 0 0 775.47 627.04
  Q 776.04 640.73 773.45 655.39
  A 0.43 0.42 -76.3 0 1 772.92 655.72
  C 757.26 650.84 742.63 658.20 733.68 671.32
  C 725.29 683.63 720.66 702.05 727.17 716.12
  C 733.79 730.43 750.43 729.18 759.48 718.22
  Q 764.73 711.86 768.24 703.05
  A 0.22 0.21 -76.5 0 1 768.45 702.91
  L 768.72 702.91"
/>
<path stroke="#8b959e" vector-effect="non-scaling-stroke" d="
  M 487.47 723.39
  A 1.09 1.08 -83.9 0 0 488.49 724.66
  L 502.67 725.22
  A 1.82 1.80 8.7 0 0 504.48 723.90
  Q 507.92 711.57 514.04 699.37
  A 1.82 1.82 0.0 0 1 515.57 698.36
  C 519.10 698.15 522.47 697.45 525.66 697.62
  Q 527.14 697.69 547.10 697.85
  A 1.46 1.45 -5.3 0 1 548.52 699.02
  Q 552.08 717.05 552.91 721.06
  C 553.50 723.89 553.53 725.83 556.79 725.71
  Q 565.28 725.38 575.98 723.36
  A 0.44 0.43 -12.7 0 0 576.32 722.83
  Q 564.57 677.96 554.48 633.40
  C 554.07 631.63 553.17 629.69 551.22 629.80
  Q 543.98 630.20 533.98 631.71
  A 1.90 1.89 7.6 0 0 532.55 632.80
  Q 531.23 635.77 529.72 638.76
  Q 497.32 702.84 496.92 703.65
  Q 488.70 720.41 487.82 722.54
  Q 487.48 723.35 487.47 723.39"
/>
<path stroke="#8b959e" vector-effect="non-scaling-stroke" d="
  M 635.26 708.36
  Q 635.05 708.44 631.90 710.40
  Q 629.64 711.80 625.84 713.34
  C 618.14 716.44 610.25 714.12 607.90 705.52
  C 605.96 698.45 606.31 691.70 607.65 684.39
  C 608.86 677.79 615.37 659.53 625.45 664.78
  C 628.94 666.61 629.23 671.97 629.41 675.66
  A 1.16 1.15 79.8 0 0 630.91 676.71
  C 635.33 675.32 644.74 672.23 645.14 666.98
  Q 645.56 661.55 640.57 658.22
  C 630.61 651.56 615.95 653.84 606.43 659.24
  C 589.25 669.00 579.07 696.86 589.01 714.73
  Q 594.79 725.14 607.03 726.41
  Q 625.83 728.36 638.46 714.56
  A 1.93 1.92 -40.1 0 0 638.66 712.23
  L 636.36 708.64
  A 0.83 0.82 59.2 0 0 635.26 708.36"
/>
<path stroke="#8b959e" vector-effect="non-scaling-stroke" d="
  M 691.85 702.73
  A 0.38 0.37 80.0 0 1 692.41 703.13
  Q 690.51 712.79 691.65 718.88
  C 694.08 731.94 708.19 725.69 714.15 720.19
  A 1.04 1.03 -45.5 0 0 714.14 718.65
  Q 711.02 715.89 710.62 711.62
  Q 710.03 705.50 710.71 699.38
  C 711.49 692.28 712.36 680.21 713.55 671.82
  Q 714.09 668.03 715.28 658.97
  A 1.26 1.25 11.0 0 0 714.35 657.60
  Q 704.58 655.11 694.75 654.24
  C 679.88 652.92 666.53 659.79 658.11 672.24
  Q 647.04 688.60 648.76 707.68
  C 649.51 715.90 654.16 724.73 662.72 726.31
  C 677.02 728.96 686.90 715.34 691.05 703.43
  A 0.83 0.82 -5.8 0 1 691.40 703.01
  L 691.85 702.73"
/>
<path stroke="#8b959e" vector-effect="non-scaling-stroke" d="
  M 853.81 708.59
  A 0.92 0.92 0.0 0 0 852.40 708.22
  C 838.96 718.55 823.69 717.19 822.10 697.53
  A 1.02 1.01 -8.1 0 1 822.91 696.46
  Q 835.80 693.92 846.98 688.28
  C 855.61 683.92 864.04 674.54 859.20 664.47
  Q 855.21 656.17 845.18 654.68
  C 826.69 651.94 811.14 661.68 803.88 678.45
  C 797.21 693.85 797.56 718.15 816.56 724.73
  C 830.14 729.44 845.52 725.70 855.18 714.73
  A 1.96 1.94 -35.8 0 0 855.52 712.69
  L 853.81 708.59"
/>
<path stroke="#8b959e" vector-effect="non-scaling-stroke" d="
  M 890.63 675.37
  Q 892.55 665.73 892.74 658.36
  C 892.87 653.63 890.32 654.37 886.53 654.92
  Q 879.82 655.90 872.68 657.24
  A 1.48 1.47 -11.5 0 0 871.50 659.01
  Q 872.74 664.67 872.42 670.25
  C 871.74 681.96 870.04 696.68 867.99 709.88
  Q 867.28 714.38 866.27 723.59
  A 1.65 1.64 -88.7 0 0 868.00 725.41
  L 884.60 724.34
  A 1.69 1.68 89.3 0 0 886.17 722.72
  C 886.76 705.97 890.34 687.78 900.18 673.95
  C 902.38 670.86 907.94 666.22 910.52 671.33
  C 912.21 674.69 911.27 679.37 910.78 684.24
  Q 910.26 689.52 910.22 689.77
  Q 906.62 715.59 905.88 721.92
  Q 905.75 723.03 905.83 724.06
  A 1.29 1.28 85.7 0 0 907.19 725.23
  L 924.01 724.14
  A 1.57 1.57 0.0 0 0 925.48 722.61
  C 925.82 705.82 929.22 688.48 938.94 674.43
  C 940.48 672.20 943.85 668.56 946.74 668.71
  A 1.66 1.63 -23.6 0 1 947.68 669.07
  C 950.47 671.28 950.04 676.15 949.66 679.39
  C 948.27 691.25 947.05 696.99 945.17 708.97
  C 943.97 716.70 944.39 727.13 955.25 726.68
  C 959.59 726.49 964.30 723.71 968.16 720.73
  A 1.49 1.49 0.0 0 0 968.32 718.52
  Q 965.15 715.22 965.36 710.74
  C 965.94 697.92 967.85 684.99 969.44 672.24
  C 970.82 661.18 966.00 653.04 953.78 654.33
  Q 945.78 655.18 940.48 660.52
  Q 934.54 666.50 932.77 669.82
  Q 930.66 673.76 930.22 674.52
  A 0.31 0.31 0.0 0 1 929.67 674.49
  Q 929.60 674.34 930.30 670.31
  C 931.48 663.49 927.31 655.57 920.02 654.43
  C 906.60 652.32 896.06 664.27 891.44 675.61
  A 0.42 0.42 0.0 0 1 890.63 675.37"
/>
<path stroke="#8b959e" vector-effect="non-scaling-stroke" d="
  M 1000.77 724.73
  A 0.30 0.30 0.0 0 1 1001.07 725.21
  Q 995.68 731.79 990.63 735.97
  Q 982.96 742.32 975.48 737.96
  A 1.49 1.49 0.0 0 0 974.24 737.83
  Q 971.93 738.58 971.07 740.33
  Q 969.02 744.55 967.93 747.60
  A 1.14 1.12 36.2 0 0 968.10 748.64
  Q 971.93 753.70 978.53 753.93
  Q 990.77 754.36 999.56 745.21
  Q 1008.92 735.46 1016.69 723.16
  Q 1029.07 703.55 1037.66 683.65
  C 1040.61 676.83 1044.28 665.82 1043.40 658.05
  A 2.98 2.97 -2.6 0 0 1040.50 655.41
  L 1028.71 655.18
  A 1.75 1.75 0.0 0 0 1026.93 656.97
  Q 1027.32 671.91 1021.83 686.64
  Q 1017.79 697.47 1011.91 708.18
  A 0.49 0.49 0.0 0 1 1011.00 708.00
  Q 1010.28 701.57 1008.78 692.49
  Q 1008.25 689.27 1003.05 662.47
  C 1002.14 657.77 1002.14 653.85 996.29 654.62
  Q 987.90 655.72 980.02 658.28
  A 1.54 1.54 0.0 0 0 979.04 660.24
  C 982.88 671.63 985.46 684.24 988.53 695.08
  C 991.21 704.57 993.12 716.34 994.54 724.39
  A 1.61 1.61 0.0 0 0 996.46 725.68
  L 1000.77 724.73"
/>
<path stroke="#8b959e" vector-effect="non-scaling-stroke" d="
  M 528.24 351.03
  C 536.53 349.36 545.41 343.20 544.08 333.64
  C 542.97 325.69 535.35 327.66 532.33 332.62
  Q 527.38 340.78 527.80 350.68
  A 0.37 0.37 0.0 0 0 528.24 351.03"
/>
<path stroke="#f9adaf" vector-effect="non-scaling-stroke" d="
  M 1164.55 574.29
  Q 1177.17 582.88 1188.61 572.88
  C 1206.22 557.50 1213.19 529.55 1211.35 507.39
  C 1210.81 500.85 1208.37 487.00 1199.88 487.21
  C 1192.96 487.38 1185.21 497.83 1181.91 503.30
  C 1174.33 515.84 1169.53 528.63 1167.16 543.58
  Q 1164.94 557.63 1164.00 573.17
  A 1.27 1.26 -71.5 0 0 1164.55 574.29"
/>
<path stroke="#80cbea" vector-effect="non-scaling-stroke" d="
  M 678.21 526.16
  C 690.44 521.31 704.91 512.81 710.09 500.34
  C 712.70 494.03 713.11 483.22 708.03 478.03
  C 700.99 470.86 690.18 477.73 686.37 484.87
  C 679.74 497.30 677.27 511.89 677.66 525.80
  A 0.40 0.40 0.0 0 0 678.21 526.16"
/>
<path stroke="#f9adaf" vector-effect="non-scaling-stroke" d="
  M 1066.73 484.35
  A 0.72 0.71 -73.9 0 0 1066.33 483.62
  Q 1058.95 480.09 1052.09 481.65
  C 1043.81 483.53 1035.78 493.78 1032.15 501.14
  C 1026.19 513.25 1021.50 529.24 1021.61 543.66
  C 1021.66 549.89 1020.76 569.71 1031.40 568.87
  C 1035.38 568.55 1038.94 565.44 1041.32 562.34
  Q 1046.72 555.29 1050.42 547.97
  C 1058.05 532.91 1063.09 517.19 1064.90 500.62
  Q 1065.78 492.60 1066.73 484.35"
/>
<path stroke="#80cbea" vector-effect="non-scaling-stroke" d="
  M 459.83 483.42
  A 0.55 0.55 0.0 0 0 459.48 482.76
  Q 453.71 480.62 448.78 480.85
  C 440.63 481.22 433.10 487.77 428.31 494.31
  Q 424.89 498.98 422.24 505.21
  Q 412.35 528.49 414.36 553.37
  C 414.86 559.55 416.62 570.36 425.28 568.21
  C 431.07 566.77 436.99 557.94 439.71 553.22
  C 450.20 535.00 456.72 515.08 458.65 494.19
  Q 459.54 484.46 459.83 483.42"
/>
<path stroke="#8b959e" vector-effect="non-scaling-stroke" d="
  M 771.21 667.27
  A 1.25 1.24 16.6 0 0 770.60 666.15
  C 764.72 662.56 757.78 665.19 754.27 670.44
  Q 744.48 685.06 745.75 703.05
  C 746.01 706.86 748.13 712.91 753.21 710.43
  Q 756.15 709.00 757.80 706.80
  C 766.27 695.50 770.74 681.18 771.21 667.27"
/>
<path stroke="#8b959e" vector-effect="non-scaling-stroke" d="
  M 537.90 650.09
  A 0.44 0.44 0.0 0 0 537.07 649.99
  L 520.29 685.76
  A 0.44 0.44 0.0 0 0 520.69 686.39
  L 545.32 686.39
  A 0.44 0.44 0.0 0 0 545.75 685.86
  L 537.90 650.09"
/>
<path stroke="#8b959e" vector-effect="non-scaling-stroke" d="
  M 693.13 667.06
  A 1.02 1.01 -73.7 0 0 692.62 666.11
  C 684.05 661.24 677.17 669.35 674.19 676.40
  Q 669.66 687.09 669.43 700.00
  C 669.37 703.31 670.04 711.34 674.75 710.94
  C 681.43 710.38 687.87 694.75 689.43 689.21
  Q 692.45 678.51 693.13 667.06"
/>
<path stroke="#8b959e" vector-effect="non-scaling-stroke" d="
  M 822.78 688.53
  C 832.02 686.77 841.98 680.03 840.62 669.38
  C 839.48 660.51 830.97 662.61 827.55 668.10
  Q 821.94 677.11 822.29 688.14
  A 0.41 0.41 0.0 0 0 822.78 688.53"
/>
</g>
<path fill="#ffffff" d="
  M 1537.00 0.00
  L 1537.00 1023.00
  L 0.00 1023.00
  L 0.00 0.00
  L 1537.00 0.00
  Z
  M 1092.83 278.90
  C 1093.21 281.33 1093.01 284.02 1093.49 286.72
  Q 1094.95 294.84 1095.57 300.91
  A 1.16 1.15 -8.5 0 0 1096.94 301.92
  Q 1099.90 301.34 1102.33 299.71
  A 2.48 2.47 -11.2 0 0 1103.39 298.13
  L 1109.03 270.77
  A 2.85 2.83 83.5 0 1 1110.61 268.77
  Q 1122.81 263.01 1134.75 256.25
  Q 1137.92 254.46 1139.39 249.76
  C 1141.11 244.29 1131.82 244.35 1128.80 245.11
  C 1125.16 246.03 1120.23 249.38 1116.68 250.95
  Q 1108.11 254.72 1100.75 258.47
  A 2.62 2.60 39.0 0 1 1098.87 258.66
  L 1065.55 249.24
  A 2.06 2.05 41.6 0 0 1064.16 249.32
  L 1058.90 251.51
  A 1.10 1.10 0.0 0 0 1058.73 253.45
  L 1081.06 267.85
  A 0.34 0.34 0.0 0 1 1081.05 268.43
  L 1062.29 279.91
  A 2.98 2.94 -52.7 0 1 1059.96 280.24
  L 1052.77 278.20
  A 1.40 1.35 -47.8 0 0 1051.86 278.26
  L 1048.33 279.73
  A 1.41 1.41 0.0 0 0 1048.11 282.22
  L 1055.35 286.89
  A 1.70 1.67 -83.3 0 1 1056.04 287.78
  L 1059.17 297.20
  A 1.69 1.69 0.0 0 0 1061.23 298.29
  Q 1062.48 297.94 1064.19 296.50
  A 1.30 1.27 -14.5 0 0 1064.63 295.77
  L 1065.85 289.83
  A 1.48 1.47 -5.5 0 1 1066.72 288.78
  L 1091.79 278.31
  A 0.76 0.76 0.0 0 1 1092.83 278.90
  Z
  M 1023.24 283.84
  Q 1000.18 285.75 987.49 287.31
  C 967.79 289.74 950.99 291.51 932.54 294.21
  Q 876.24 302.45 819.83 315.62
  Q 779.77 324.98 756.41 331.49
  Q 740.62 335.88 738.29 336.42
  C 732.42 337.79 726.53 340.10 719.81 341.74
  C 710.45 344.03 700.84 347.53 691.15 350.13
  C 683.23 352.24 674.15 355.78 665.80 358.04
  C 658.10 360.13 652.61 362.31 644.89 364.61
  Q 638.35 366.55 629.28 369.68
  C 602.84 378.80 586.75 384.03 564.28 392.62
  Q 549.18 398.39 537.34 402.79
  C 531.89 404.82 526.67 407.27 521.24 409.26
  C 501.16 416.62 486.91 423.56 468.52 430.43
  Q 461.68 432.98 447.58 438.81
  A 0.30 0.30 0.0 0 0 447.72 439.39
  C 453.26 438.89 458.36 439.36 464.43 439.24
  Q 483.32 438.87 488.50 439.27
  Q 489.95 439.38 492.13 438.38
  C 498.59 435.43 504.07 432.53 509.62 430.26
  Q 519.65 426.14 542.19 416.40
  C 549.80 413.11 557.52 410.48 565.40 406.99
  C 566.81 406.37 568.87 405.82 570.14 405.57
  A 8.13 8.06 25.7 0 0 572.31 404.82
  Q 574.13 403.89 582.73 400.68
  Q 638.54 379.82 681.04 365.66
  C 690.35 362.56 698.29 360.38 706.16 357.47
  C 712.22 355.23 719.10 353.60 723.52 351.97
  Q 731.02 349.19 736.51 347.80
  Q 740.66 346.74 778.11 335.77
  C 799.47 329.51 830.01 322.00 845.89 317.91
  Q 860.08 314.26 902.26 305.06
  Q 918.14 301.60 930.41 299.46
  Q 950.76 295.92 958.65 294.34
  Q 967.86 292.49 990.96 289.23
  Q 997.19 288.35 1023.30 284.18
  A 0.16 0.16 0.0 0 0 1023.43 284.00
  A 0.18 0.18 0.0 0 0 1023.24 283.84
  Z
  M 464.05 340.52
  C 463.95 338.98 464.78 337.02 465.14 335.05
  Q 469.54 311.02 470.80 304.03
  Q 472.00 297.31 471.80 292.40
  A 1.71 1.71 0.0 0 0 469.82 290.78
  L 454.19 293.20
  A 1.15 1.15 0.0 0 0 453.22 294.37
  Q 453.56 304.73 451.86 315.82
  Q 446.12 353.42 441.74 381.93
  A 1.32 1.32 0.0 0 0 443.10 383.45
  L 458.54 382.81
  A 1.40 1.40 0.0 0 0 459.88 381.50
  C 460.92 366.59 463.14 352.94 471.50 340.57
  Q 474.58 336.00 479.11 334.11
  C 483.54 332.25 484.21 337.22 483.91 340.34
  Q 483.56 344.12 479.34 367.03
  Q 478.38 372.23 479.02 377.50
  C 480.23 387.61 490.79 385.36 496.70 381.43
  Q 498.16 380.45 499.93 379.02
  A 1.17 1.17 0.0 0 0 499.90 377.18
  C 496.06 374.28 496.91 367.56 497.65 363.30
  Q 499.73 351.25 500.90 344.44
  C 502.24 336.67 504.05 326.33 496.27 322.34
  C 487.97 318.10 476.77 324.21 471.12 330.88
  Q 467.45 335.22 464.69 340.65
  A 0.34 0.34 0.0 0 1 464.05 340.52
  Z
  M 1278.20 374.42
  C 1277.18 372.96 1276.49 371.12 1275.36 368.78
  Q 1273.94 365.81 1268.26 360.24
  Q 1262.13 354.24 1256.87 352.42
  A 6.80 6.74 56.6 0 0 1255.25 352.08
  Q 1251.41 351.79 1248.29 351.38
  C 1240.10 350.33 1232.66 345.41 1230.88 337.13
  Q 1230.37 334.78 1227.72 335.11
  C 1223.44 335.65 1220.91 339.24 1219.70 343.48
  C 1216.63 354.30 1220.71 363.05 1224.79 373.02
  Q 1226.91 378.20 1229.38 382.13
  Q 1237.29 394.71 1245.27 405.25
  C 1259.41 423.90 1271.25 443.10 1276.26 465.28
  C 1279.47 479.47 1278.21 493.08 1274.49 507.41
  C 1272.54 514.88 1268.67 522.64 1264.66 528.78
  A 1.08 1.07 -53.3 0 0 1264.86 530.18
  L 1270.87 535.42
  A 0.82 0.82 0.0 0 0 1271.86 535.49
  Q 1275.16 533.26 1277.60 530.11
  Q 1285.78 519.51 1289.10 507.33
  C 1292.32 495.53 1293.64 483.95 1291.41 471.05
  Q 1289.20 458.21 1285.64 449.63
  C 1281.11 438.70 1275.99 428.62 1268.94 418.09
  C 1263.65 410.19 1260.71 405.34 1255.89 399.61
  C 1251.31 394.16 1247.63 388.31 1243.40 382.82
  Q 1239.94 378.33 1237.88 374.21
  C 1234.01 366.48 1232.32 362.93 1230.77 355.66
  A 0.36 0.36 0.0 0 1 1231.35 355.30
  C 1236.85 359.69 1242.40 360.44 1249.72 361.77
  C 1258.38 363.35 1261.77 368.41 1266.14 376.09
  Q 1269.36 381.74 1270.13 384.64
  Q 1271.87 391.17 1273.53 400.84
  A 1.04 1.03 80.4 0 0 1274.71 401.68
  Q 1281.43 400.62 1285.65 395.72
  C 1294.01 385.99 1295.62 373.96 1293.59 360.59
  Q 1293.25 358.34 1291.24 354.71
  Q 1285.44 344.26 1278.89 338.95
  A 1.39 1.37 18.1 0 1 1278.39 337.98
  C 1278.10 333.71 1278.75 329.00 1277.90 324.90
  Q 1274.43 308.04 1260.07 298.73
  Q 1251.34 293.06 1242.25 292.21
  C 1234.86 291.51 1227.14 291.53 1220.29 294.03
  C 1204.89 299.65 1193.99 310.79 1189.05 326.32
  C 1180.83 352.13 1191.73 375.66 1202.90 398.31
  C 1209.62 411.94 1213.06 428.45 1210.88 443.79
  A 1.62 1.62 0.0 0 0 1212.83 445.60
  L 1224.03 443.14
  A 1.46 1.46 0.0 0 0 1225.16 441.92
  Q 1225.47 439.81 1225.39 438.52
  Q 1224.14 417.14 1216.33 399.44
  C 1213.55 393.14 1212.09 389.42 1209.49 384.48
  Q 1203.78 373.63 1199.69 360.26
  C 1196.57 350.05 1197.57 338.55 1200.74 328.45
  C 1202.63 322.45 1205.81 318.56 1209.69 314.19
  Q 1213.53 309.86 1220.02 306.91
  Q 1234.72 300.21 1249.70 306.30
  C 1257.08 309.30 1261.07 314.36 1264.91 321.13
  Q 1267.17 325.12 1267.07 330.52
  Q 1266.91 338.57 1266.53 341.42
  A 1.36 1.34 -63.1 0 0 1266.89 342.54
  C 1272.10 348.07 1277.88 351.42 1280.98 358.45
  C 1281.45 359.52 1280.99 360.61 1280.13 361.40
  C 1276.94 364.32 1278.25 370.72 1278.70 374.23
  A 0.28 0.27 23.9 0 1 1278.20 374.42
  Z
  M 375.88 310.78
  L 398.72 309.30
  A 0.70 0.70 0.0 0 1 399.45 310.09
  L 389.88 381.93
  A 1.32 1.32 0.0 0 0 391.25 383.42
  L 408.63 382.71
  A 1.48 1.47 89.2 0 0 410.04 381.25
  Q 410.10 376.54 410.55 372.50
  Q 414.07 340.80 418.45 309.75
  A 0.64 0.63 4.2 0 1 419.08 309.21
  Q 429.70 309.22 441.08 311.15
  A 1.22 1.22 0.0 0 0 442.50 310.11
  L 443.88 299.73
  A 1.26 1.25 2.9 0 0 442.59 298.31
  Q 411.69 299.35 378.00 298.08
  A 1.47 1.46 4.7 0 0 376.49 299.35
  L 375.08 309.92
  A 0.76 0.76 0.0 0 0 375.88 310.78
  Z
  M 527.43 359.02
  A 0.90 0.90 0.0 0 1 528.17 358.20
  C 539.99 356.07 562.86 349.39 561.06 333.43
  C 559.58 320.39 543.20 319.22 533.26 322.76
  C 524.82 325.77 519.20 330.06 514.59 337.84
  C 502.97 357.43 506.64 389.32 537.43 384.38
  Q 547.28 382.80 555.98 375.65
  A 2.56 2.56 0.0 0 0 556.54 372.34
  L 555.51 370.67
  A 1.83 1.82 56.6 0 0 552.90 370.13
  C 546.68 374.58 537.20 377.10 530.96 371.00
  C 528.14 368.25 527.11 363.06 527.43 359.02
  Z
  M 1248.8710 331.2542
  A 5.20 4.54 -154.9 0 0 1251.6541 337.5713
  A 5.20 4.54 -154.9 0 0 1258.2890 335.6658
  A 5.20 4.54 -154.9 0 0 1255.5059 329.3487
  A 5.20 4.54 -154.9 0 0 1248.8710 331.2542
  Z
  M 807.77 595.51
  A 1.28 1.28 0.0 0 0 808.63 594.25
  C 808.15 584.41 808.60 573.87 809.56 563.25
  C 814.74 505.55 822.11 450.80 830.12 388.10
  C 830.39 385.93 828.40 385.18 826.49 385.50
  Q 804.88 389.13 783.43 389.87
  A 2.08 2.08 0.0 0 0 781.42 392.02
  Q 781.90 406.50 780.42 419.75
  C 777.20 448.41 772.73 485.04 769.12 522.54
  Q 765.93 555.70 763.75 577.38
  Q 763.71 577.73 762.15 593.74
  Q 761.89 596.39 764.50 596.42
  C 772.67 596.52 781.89 595.74 790.51 595.74
  Q 795.46 595.74 806.75 595.78
  Q 806.95 595.78 807.77 595.51
  Z
  M 1167.38 498.36
  Q 1168.42 492.57 1169.76 480.83
  Q 1170.51 474.21 1171.88 460.75
  C 1174.40 435.88 1178.92 404.84 1180.33 392.87
  Q 1180.89 388.17 1180.71 387.21
  Q 1180.40 385.44 1177.87 385.79
  C 1162.08 387.99 1151.77 389.68 1138.47 390.72
  A 1.43 1.42 -3.2 0 0 1137.16 392.18
  Q 1137.61 408.91 1136.32 425.50
  Q 1131.29 490.25 1125.05 555.01
  Q 1122.52 581.29 1121.87 586.85
  A 2.69 2.68 -73.4 0 0 1123.33 589.55
  Q 1135.06 595.45 1147.82 598.45
  Q 1152.63 599.58 1161.24 600.12
  Q 1170.60 600.72 1174.74 600.53
  Q 1201.10 599.38 1220.63 583.19
  Q 1231.76 573.96 1237.65 564.88
  Q 1252.37 542.17 1253.93 512.68
  Q 1254.49 502.22 1252.87 493.92
  C 1249.80 478.16 1245.00 464.13 1229.17 458.15
  C 1214.47 452.59 1196.62 459.72 1186.10 470.08
  Q 1181.18 474.92 1179.38 477.12
  Q 1176.49 480.66 1171.36 490.05
  C 1169.86 492.80 1169.19 495.72 1167.83 498.51
  A 0.24 0.24 0.0 0 1 1167.38 498.36
  Z
  M 210.27 425.14
  Q 208.88 445.14 207.40 460.51
  Q 200.41 532.78 195.09 587.47
  Q 194.63 592.27 194.47 594.32
  Q 194.28 596.89 197.21 596.88
  Q 215.69 596.78 243.30 595.79
  A 1.20 1.20 0.0 0 0 244.46 594.57
  Q 244.15 576.21 245.94 555.49
  Q 251.23 494.53 258.91 425.39
  A 0.58 0.57 1.7 0 1 259.46 424.88
  Q 267.46 424.58 271.76 424.68
  Q 298.91 425.28 318.36 425.93
  A 1.46 1.45 -84.9 0 0 319.84 424.68
  Q 321.78 411.45 323.75 397.51
  C 324.04 395.45 323.17 394.63 321.10 394.67
  Q 316.33 394.77 313.50 394.96
  Q 256.57 398.83 204.24 396.05
  Q 175.71 394.53 161.07 393.53
  A 2.30 2.29 -84.2 0 0 158.65 395.51
  L 154.47 426.91
  A 1.77 1.77 0.0 0 0 156.45 428.90
  Q 183.46 425.41 209.82 424.68
  A 0.43 0.43 0.0 0 1 210.27 425.14
  Z
  M 919.49 572.16
  Q 919.39 568.79 919.67 565.69
  C 921.72 542.79 924.53 519.30 926.62 498.68
  Q 929.36 471.60 936.14 415.97
  Q 937.23 407.02 937.76 400.90
  A 1.39 1.39 0.0 0 0 936.28 399.39
  L 894.14 402.10
  A 2.02 2.01 -0.6 0 0 892.26 404.02
  Q 891.55 422.12 889.45 440.24
  Q 879.98 521.97 872.66 594.35
  A 1.54 1.54 0.0 0 0 874.21 596.05
  Q 919.58 595.56 968.89 597.04
  C 971.25 597.11 972.51 596.68 972.67 594.23
  Q 972.82 592.14 974.43 572.41
  A 1.76 1.76 0.0 0 0 972.42 570.53
  Q 945.89 574.39 919.77 572.45
  A 0.30 0.30 0.0 0 1 919.49 572.16
  Z
  M 328.04 512.57
  Q 328.15 511.11 328.38 509.77
  Q 332.39 486.09 333.94 460.50
  C 334.05 458.60 333.31 456.41 331.06 456.71
  Q 311.86 459.27 292.61 461.59
  A 1.79 1.79 0.0 0 0 291.04 463.46
  C 291.70 475.00 291.71 484.18 290.57 497.14
  C 287.38 533.43 284.70 560.02 281.48 594.50
  Q 281.25 596.94 283.78 596.97
  C 291.84 597.06 299.49 596.30 308.08 596.05
  Q 315.17 595.85 324.24 595.55
  A 1.57 1.57 0.0 0 0 325.76 594.02
  C 325.93 587.66 325.71 579.98 326.29 572.69
  Q 327.89 552.53 332.84 533.06
  Q 336.35 519.21 342.81 507.55
  Q 345.97 501.85 351.91 496.66
  C 359.34 490.15 367.76 490.57 376.23 494.58
  A 1.10 1.09 20.5 0 0 377.75 493.89
  L 386.90 461.52
  A 2.21 2.20 20.3 0 0 385.69 458.91
  C 372.95 453.07 358.25 460.57 349.80 470.25
  Q 338.09 483.66 332.53 500.23
  Q 330.00 507.76 328.71 512.63
  A 0.04 0.04 0.0 0 1 328.68 512.67
  L 328.44 512.82
  A 0.27 0.26 76.6 0 1 328.04 512.57
  Z
  M 679.14 540.31
  Q 700.07 535.36 719.04 525.78
  C 734.14 518.16 752.49 504.64 750.19 485.29
  C 747.96 466.53 733.45 458.81 716.28 457.13
  C 696.16 455.16 675.63 462.46 661.34 476.03
  C 642.66 493.78 633.60 522.43 634.70 547.90
  Q 635.30 561.93 640.87 572.70
  C 650.80 591.90 668.54 599.91 690.02 599.29
  C 711.81 598.66 732.70 588.64 746.55 571.39
  A 1.70 1.70 0.0 0 0 746.68 569.44
  L 743.38 564.05
  A 1.45 1.45 0.0 0 0 741.35 563.60
  C 731.08 570.39 719.38 575.98 707.24 575.76
  C 687.31 575.40 680.35 557.67 678.68 540.96
  A 0.61 0.60 80.7 0 1 679.14 540.31
  Z
  M 1066.63 549.19
  Q 1066.72 549.34 1066.69 549.75
  Q 1066.48 552.38 1065.11 562.44
  C 1064.48 567.05 1064.75 570.88 1064.61 575.77
  Q 1064.44 581.88 1065.72 585.62
  C 1068.18 592.82 1071.65 599.41 1080.49 599.09
  Q 1096.78 598.49 1110.13 587.28
  A 1.42 1.42 0.0 0 0 1110.19 585.16
  C 1105.82 581.03 1103.79 576.12 1103.38 569.60
  Q 1102.72 559.17 1102.75 558.00
  Q 1104.10 511.60 1110.63 465.82
  A 1.45 1.45 0.0 0 0 1109.54 464.20
  Q 1095.92 460.82 1089.23 459.35
  Q 1081.06 457.55 1067.52 456.95
  Q 1048.05 456.10 1030.33 465.16
  C 1007.97 476.60 991.47 499.27 984.58 523.11
  Q 979.16 541.86 980.22 559.09
  Q 980.79 568.28 982.99 574.73
  Q 985.54 582.18 990.54 588.79
  C 998.62 599.48 1011.85 601.09 1024.14 597.82
  C 1033.75 595.26 1043.40 587.11 1049.56 579.12
  Q 1060.33 565.17 1065.94 549.25
  A 0.38 0.38 0.0 0 1 1066.63 549.19
  Z
  M 458.54 547.94
  A 0.57 0.56 4.9 0 1 459.09 548.59
  Q 456.72 563.99 457.45 578.75
  C 457.74 584.61 460.41 592.63 465.30 596.29
  C 475.25 603.74 494.29 593.67 503.12 587.19
  A 1.71 1.71 0.0 0 0 503.22 584.51
  C 495.69 578.12 495.54 568.58 495.65 559.26
  Q 495.80 547.61 496.64 539.08
  Q 499.35 511.64 502.25 480.61
  C 502.70 475.82 503.40 471.71 503.93 467.21
  C 504.19 464.94 503.28 464.23 501.33 463.72
  C 482.58 458.83 460.78 454.34 441.34 458.81
  Q 417.75 464.24 401.54 480.55
  Q 378.90 503.36 372.67 535.96
  Q 370.20 548.93 371.67 562.62
  C 373.34 578.11 381.78 596.45 399.04 598.93
  Q 416.82 601.49 430.32 590.50
  C 434.82 586.83 438.26 583.69 441.34 579.61
  Q 452.32 565.05 457.94 548.16
  A 0.34 0.34 0.0 0 1 458.26 547.93
  L 458.54 547.94
  Z
  M 579.43 560.67
  C 578.93 554.04 578.64 548.69 577.59 541.13
  Q 571.92 500.50 564.21 461.32
  C 563.76 459.05 563.10 458.30 560.77 458.52
  C 548.99 459.62 535.08 461.79 520.60 463.55
  A 1.62 1.62 0.0 0 0 519.20 465.45
  C 521.36 477.28 524.74 489.51 527.47 502.21
  Q 533.52 530.38 541.54 567.98
  Q 544.12 580.09 546.72 594.93
  A 2.37 2.37 0.0 0 0 549.16 596.90
  L 585.24 595.41
  A 1.62 1.61 12.5 0 0 586.60 594.55
  Q 602.51 564.39 617.51 531.53
  C 626.45 511.96 633.18 496.03 638.18 476.94
  C 638.93 474.08 641.76 462.57 638.58 460.13
  A 1.09 1.07 -25.4 0 0 637.97 459.92
  L 611.14 459.40
  A 1.22 1.21 -88.8 0 0 609.90 460.60
  C 609.52 487.84 602.41 515.47 590.84 539.09
  Q 584.91 551.20 580.12 560.81
  A 0.37 0.36 56.2 0 1 579.43 560.67
  Z
  M 1266.70 597.99
  Q 1267.75 598.00 1268.07 597.94
  A 0.75 0.74 -4.8 0 0 1268.70 597.21
  L 1268.70 575.10
  A 0.69 0.69 0.0 0 1 1269.39 574.41
  L 1276.07 574.41
  A 0.86 0.86 0.0 0 0 1276.93 573.55
  L 1276.93 571.73
  A 0.82 0.81 0.2 0 0 1276.12 570.92
  Q 1271.69 570.92 1266.79 570.90
  Q 1261.88 570.89 1257.45 570.87
  A 0.82 0.81 0.1 0 0 1256.64 571.67
  L 1256.62 573.49
  A 0.86 0.86 0.0 0 0 1257.48 574.35
  L 1264.16 574.39
  A 0.69 0.69 0.0 0 1 1264.84 575.09
  L 1264.70 597.20
  A 0.75 0.74 5.1 0 0 1265.33 597.94
  Q 1265.65 597.99 1266.70 597.99
  Z
  M 1296.97 591.90
  Q 1296.89 591.90 1296.72 591.84
  A 0.04 0.03 75.5 0 1 1296.69 591.82
  L 1289.09 571.87
  A 1.35 1.35 0.0 0 0 1287.83 571.00
  L 1283.99 571.00
  A 0.72 0.71 0.0 0 0 1283.27 571.71
  L 1283.27 597.33
  A 0.87 0.87 0.0 0 0 1284.14 598.20
  L 1286.24 598.20
  A 0.94 0.94 0.0 0 0 1287.18 597.26
  L 1287.18 577.24
  A 0.23 0.23 0.0 0 1 1287.63 577.16
  Q 1291.31 587.23 1295.69 597.38
  Q 1295.94 597.95 1296.98 597.95
  Q 1298.02 597.95 1298.27 597.37
  Q 1302.60 587.20 1306.23 577.12
  A 0.23 0.23 0.0 0 1 1306.68 577.19
  L 1306.78 597.21
  A 0.94 0.94 0.0 0 0 1307.72 598.15
  L 1309.82 598.14
  A 0.87 0.87 0.0 0 0 1310.69 597.27
  L 1310.57 571.65
  A 0.72 0.71 -0.3 0 0 1309.84 570.94
  L 1306.00 570.96
  A 1.35 1.35 0.0 0 0 1304.75 571.83
  L 1297.24 591.82
  A 0.04 0.03 -75.8 0 1 1297.22 591.84
  Q 1297.04 591.90 1296.97 591.90
  Z
  M 768.72 702.91
  A 0.48 0.47 6.5 0 1 769.18 703.48
  Q 768.07 708.96 767.91 715.01
  C 767.47 731.91 782.35 726.87 790.08 720.51
  A 1.70 1.70 0.0 0 0 790.08 717.89
  Q 787.31 715.59 786.99 711.99
  C 786.44 705.65 787.22 701.69 788.11 692.33
  Q 788.69 686.22 789.58 679.70
  Q 794.68 642.36 795.89 632.23
  C 796.16 630.01 796.68 627.50 796.53 624.98
  A 1.55 1.55 0.0 0 0 794.80 623.53
  L 776.69 625.62
  A 1.38 1.37 -4.5 0 0 775.47 627.04
  Q 776.04 640.73 773.45 655.39
  A 0.43 0.42 -76.3 0 1 772.92 655.72
  C 757.26 650.84 742.63 658.20 733.68 671.32
  C 725.29 683.63 720.66 702.05 727.17 716.12
  C 733.79 730.43 750.43 729.18 759.48 718.22
  Q 764.73 711.86 768.24 703.05
  A 0.22 0.21 -76.5 0 1 768.45 702.91
  L 768.72 702.91
  Z
  M 487.47 723.39
  A 1.09 1.08 -83.9 0 0 488.49 724.66
  L 502.67 725.22
  A 1.82 1.80 8.7 0 0 504.48 723.90
  Q 507.92 711.57 514.04 699.37
  A 1.82 1.82 0.0 0 1 515.57 698.36
  C 519.10 698.15 522.47 697.45 525.66 697.62
  Q 527.14 697.69 547.10 697.85
  A 1.46 1.45 -5.3 0 1 548.52 699.02
  Q 552.08 717.05 552.91 721.06
  C 553.50 723.89 553.53 725.83 556.79 725.71
  Q 565.28 725.38 575.98 723.36
  A 0.44 0.43 -12.7 0 0 576.32 722.83
  Q 564.57 677.96 554.48 633.40
  C 554.07 631.63 553.17 629.69 551.22 629.80
  Q 543.98 630.20 533.98 631.71
  A 1.90 1.89 7.6 0 0 532.55 632.80
  Q 531.23 635.77 529.72 638.76
  Q 497.32 702.84 496.92 703.65
  Q 488.70 720.41 487.82 722.54
  Q 487.48 723.35 487.47 723.39
  Z
  M 635.26 708.36
  Q 635.05 708.44 631.90 710.40
  Q 629.64 711.80 625.84 713.34
  C 618.14 716.44 610.25 714.12 607.90 705.52
  C 605.96 698.45 606.31 691.70 607.65 684.39
  C 608.86 677.79 615.37 659.53 625.45 664.78
  C 628.94 666.61 629.23 671.97 629.41 675.66
  A 1.16 1.15 79.8 0 0 630.91 676.71
  C 635.33 675.32 644.74 672.23 645.14 666.98
  Q 645.56 661.55 640.57 658.22
  C 630.61 651.56 615.95 653.84 606.43 659.24
  C 589.25 669.00 579.07 696.86 589.01 714.73
  Q 594.79 725.14 607.03 726.41
  Q 625.83 728.36 638.46 714.56
  A 1.93 1.92 -40.1 0 0 638.66 712.23
  L 636.36 708.64
  A 0.83 0.82 59.2 0 0 635.26 708.36
  Z
  M 691.85 702.73
  A 0.38 0.37 80.0 0 1 692.41 703.13
  Q 690.51 712.79 691.65 718.88
  C 694.08 731.94 708.19 725.69 714.15 720.19
  A 1.04 1.03 -45.5 0 0 714.14 718.65
  Q 711.02 715.89 710.62 711.62
  Q 710.03 705.50 710.71 699.38
  C 711.49 692.28 712.36 680.21 713.55 671.82
  Q 714.09 668.03 715.28 658.97
  A 1.26 1.25 11.0 0 0 714.35 657.60
  Q 704.58 655.11 694.75 654.24
  C 679.88 652.92 666.53 659.79 658.11 672.24
  Q 647.04 688.60 648.76 707.68
  C 649.51 715.90 654.16 724.73 662.72 726.31
  C 677.02 728.96 686.90 715.34 691.05 703.43
  A 0.83 0.82 -5.8 0 1 691.40 703.01
  L 691.85 702.73
  Z
  M 853.81 708.59
  A 0.92 0.92 0.0 0 0 852.40 708.22
  C 838.96 718.55 823.69 717.19 822.10 697.53
  A 1.02 1.01 -8.1 0 1 822.91 696.46
  Q 835.80 693.92 846.98 688.28
  C 855.61 683.92 864.04 674.54 859.20 664.47
  Q 855.21 656.17 845.18 654.68
  C 826.69 651.94 811.14 661.68 803.88 678.45
  C 797.21 693.85 797.56 718.15 816.56 724.73
  C 830.14 729.44 845.52 725.70 855.18 714.73
  A 1.96 1.94 -35.8 0 0 855.52 712.69
  L 853.81 708.59
  Z
  M 890.63 675.37
  Q 892.55 665.73 892.74 658.36
  C 892.87 653.63 890.32 654.37 886.53 654.92
  Q 879.82 655.90 872.68 657.24
  A 1.48 1.47 -11.5 0 0 871.50 659.01
  Q 872.74 664.67 872.42 670.25
  C 871.74 681.96 870.04 696.68 867.99 709.88
  Q 867.28 714.38 866.27 723.59
  A 1.65 1.64 -88.7 0 0 868.00 725.41
  L 884.60 724.34
  A 1.69 1.68 89.3 0 0 886.17 722.72
  C 886.76 705.97 890.34 687.78 900.18 673.95
  C 902.38 670.86 907.94 666.22 910.52 671.33
  C 912.21 674.69 911.27 679.37 910.78 684.24
  Q 910.26 689.52 910.22 689.77
  Q 906.62 715.59 905.88 721.92
  Q 905.75 723.03 905.83 724.06
  A 1.29 1.28 85.7 0 0 907.19 725.23
  L 924.01 724.14
  A 1.57 1.57 0.0 0 0 925.48 722.61
  C 925.82 705.82 929.22 688.48 938.94 674.43
  C 940.48 672.20 943.85 668.56 946.74 668.71
  A 1.66 1.63 -23.6 0 1 947.68 669.07
  C 950.47 671.28 950.04 676.15 949.66 679.39
  C 948.27 691.25 947.05 696.99 945.17 708.97
  C 943.97 716.70 944.39 727.13 955.25 726.68
  C 959.59 726.49 964.30 723.71 968.16 720.73
  A 1.49 1.49 0.0 0 0 968.32 718.52
  Q 965.15 715.22 965.36 710.74
  C 965.94 697.92 967.85 684.99 969.44 672.24
  C 970.82 661.18 966.00 653.04 953.78 654.33
  Q 945.78 655.18 940.48 660.52
  Q 934.54 666.50 932.77 669.82
  Q 930.66 673.76 930.22 674.52
  A 0.31 0.31 0.0 0 1 929.67 674.49
  Q 929.60 674.34 930.30 670.31
  C 931.48 663.49 927.31 655.57 920.02 654.43
  C 906.60 652.32 896.06 664.27 891.44 675.61
  A 0.42 0.42 0.0 0 1 890.63 675.37
  Z
  M 1000.77 724.73
  A 0.30 0.30 0.0 0 1 1001.07 725.21
  Q 995.68 731.79 990.63 735.97
  Q 982.96 742.32 975.48 737.96
  A 1.49 1.49 0.0 0 0 974.24 737.83
  Q 971.93 738.58 971.07 740.33
  Q 969.02 744.55 967.93 747.60
  A 1.14 1.12 36.2 0 0 968.10 748.64
  Q 971.93 753.70 978.53 753.93
  Q 990.77 754.36 999.56 745.21
  Q 1008.92 735.46 1016.69 723.16
  Q 1029.07 703.55 1037.66 683.65
  C 1040.61 676.83 1044.28 665.82 1043.40 658.05
  A 2.98 2.97 -2.6 0 0 1040.50 655.41
  L 1028.71 655.18
  A 1.75 1.75 0.0 0 0 1026.93 656.97
  Q 1027.32 671.91 1021.83 686.64
  Q 1017.79 697.47 1011.91 708.18
  A 0.49 0.49 0.0 0 1 1011.00 708.00
  Q 1010.28 701.57 1008.78 692.49
  Q 1008.25 689.27 1003.05 662.47
  C 1002.14 657.77 1002.14 653.85 996.29 654.62
  Q 987.90 655.72 980.02 658.28
  A 1.54 1.54 0.0 0 0 979.04 660.24
  C 982.88 671.63 985.46 684.24 988.53 695.08
  C 991.21 704.57 993.12 716.34 994.54 724.39
  A 1.61 1.61 0.0 0 0 996.46 725.68
  L 1000.77 724.73
  Z"
/>
<path fill="#0096d4" d="
  M 1092.83 278.90
  A 0.76 0.76 0.0 0 0 1091.79 278.31
  L 1066.72 288.78
  A 1.48 1.47 -5.5 0 0 1065.85 289.83
  L 1064.63 295.77
  A 1.30 1.27 -14.5 0 1 1064.19 296.50
  Q 1062.48 297.94 1061.23 298.29
  A 1.69 1.69 0.0 0 1 1059.17 297.20
  L 1056.04 287.78
  A 1.70 1.67 -83.3 0 0 1055.35 286.89
  L 1048.11 282.22
  A 1.41 1.41 0.0 0 1 1048.33 279.73
  L 1051.86 278.26
  A 1.40 1.35 -47.8 0 1 1052.77 278.20
  L 1059.96 280.24
  A 2.98 2.94 -52.7 0 0 1062.29 279.91
  L 1081.05 268.43
  A 0.34 0.34 0.0 0 0 1081.06 267.85
  L 1058.73 253.45
  A 1.10 1.10 0.0 0 1 1058.90 251.51
  L 1064.16 249.32
  A 2.06 2.05 41.6 0 1 1065.55 249.24
  L 1098.87 258.66
  A 2.62 2.60 39.0 0 0 1100.75 258.47
  Q 1108.11 254.72 1116.68 250.95
  C 1120.23 249.38 1125.16 246.03 1128.80 245.11
  C 1131.82 244.35 1141.11 244.29 1139.39 249.76
  Q 1137.92 254.46 1134.75 256.25
  Q 1122.81 263.01 1110.61 268.77
  A 2.85 2.83 83.5 0 0 1109.03 270.77
  L 1103.39 298.13
  A 2.48 2.47 -11.2 0 1 1102.33 299.71
  Q 1099.90 301.34 1096.94 301.92
  A 1.16 1.15 -8.5 0 1 1095.57 300.91
  Q 1094.95 294.84 1093.49 286.72
  C 1093.01 284.02 1093.21 281.33 1092.83 278.90
  Z"
/>
<path fill="#81c6db" d="
  M 1023.24 283.84
  A 0.18 0.18 0.0 0 1 1023.43 284.00
  A 0.16 0.16 0.0 0 1 1023.30 284.18
  Q 997.19 288.35 990.96 289.23
  Q 967.86 292.49 958.65 294.34
  Q 950.76 295.92 930.41 299.46
  Q 918.14 301.60 902.26 305.06
  Q 860.08 314.26 845.89 317.91
  C 830.01 322.00 799.47 329.51 778.11 335.77
  Q 740.66 346.74 736.51 347.80
  Q 731.02 349.19 723.52 351.97
  C 719.10 353.60 712.22 355.23 706.16 357.47
  C 698.29 360.38 690.35 362.56 681.04 365.66
  Q 638.54 379.82 582.73 400.68
  Q 574.13 403.89 572.31 404.82
  A 8.13 8.06 25.7 0 1 570.14 405.57
  C 568.87 405.82 566.81 406.37 565.40 406.99
  C 557.52 410.48 549.80 413.11 542.19 416.40
  Q 519.65 426.14 509.62 430.26
  C 504.07 432.53 498.59 435.43 492.13 438.38
  Q 489.95 439.38 488.50 439.27
  Q 483.32 438.87 464.43 439.24
  C 458.36 439.36 453.26 438.89 447.72 439.39
  A 0.30 0.30 0.0 0 1 447.58 438.81
  Q 461.68 432.98 468.52 430.43
  C 486.91 423.56 501.16 416.62 521.24 409.26
  C 526.67 407.27 531.89 404.82 537.34 402.79
  Q 549.18 398.39 564.28 392.62
  C 586.75 384.03 602.84 378.80 629.28 369.68
  Q 638.35 366.55 644.89 364.61
  C 652.61 362.31 658.10 360.13 665.80 358.04
  C 674.15 355.78 683.23 352.24 691.15 350.13
  C 700.84 347.53 710.45 344.03 719.81 341.74
  C 726.53 340.10 732.42 337.79 738.29 336.42
  Q 740.62 335.88 756.41 331.49
  Q 779.77 324.98 819.83 315.62
  Q 876.24 302.45 932.54 294.21
  C 950.99 291.51 967.79 289.74 987.49 287.31
  Q 1000.18 285.75 1023.24 283.84
  Z"
/>
<path fill="#172a3c" d="
  M 464.05 340.52
  A 0.34 0.34 0.0 0 0 464.69 340.65
  Q 467.45 335.22 471.12 330.88
  C 476.77 324.21 487.97 318.10 496.27 322.34
  C 504.05 326.33 502.24 336.67 500.90 344.44
  Q 499.73 351.25 497.65 363.30
  C 496.91 367.56 496.06 374.28 499.90 377.18
  A 1.17 1.17 0.0 0 1 499.93 379.02
  Q 498.16 380.45 496.70 381.43
  C 490.79 385.36 480.23 387.61 479.02 377.50
  Q 478.38 372.23 479.34 367.03
  Q 483.56 344.12 483.91 340.34
  C 484.21 337.22 483.54 332.25 479.11 334.11
  Q 474.58 336.00 471.50 340.57
  C 463.14 352.94 460.92 366.59 459.88 381.50
  A 1.40 1.40 0.0 0 1 458.54 382.81
  L 443.10 383.45
  A 1.32 1.32 0.0 0 1 441.74 381.93
  Q 446.12 353.42 451.86 315.82
  Q 453.56 304.73 453.22 294.37
  A 1.15 1.15 0.0 0 1 454.19 293.20
  L 469.82 290.78
  A 1.71 1.71 0.0 0 1 471.80 292.40
  Q 472.00 297.31 470.80 304.03
  Q 469.54 311.02 465.14 335.05
  C 464.78 337.02 463.95 338.98 464.05 340.52
  Z"
/>
<path fill="#f25a5e" d="
  M 1278.20 374.42
  A 0.28 0.27 23.9 0 0 1278.70 374.23
  C 1278.25 370.72 1276.94 364.32 1280.13 361.40
  C 1280.99 360.61 1281.45 359.52 1280.98 358.45
  C 1277.88 351.42 1272.10 348.07 1266.89 342.54
  A 1.36 1.34 -63.1 0 1 1266.53 341.42
  Q 1266.91 338.57 1267.07 330.52
  Q 1267.17 325.12 1264.91 321.13
  C 1261.07 314.36 1257.08 309.30 1249.70 306.30
  Q 1234.72 300.21 1220.02 306.91
  Q 1213.53 309.86 1209.69 314.19
  C 1205.81 318.56 1202.63 322.45 1200.74 328.45
  C 1197.57 338.55 1196.57 350.05 1199.69 360.26
  Q 1203.78 373.63 1209.49 384.48
  C 1212.09 389.42 1213.55 393.14 1216.33 399.44
  Q 1224.14 417.14 1225.39 438.52
  Q 1225.47 439.81 1225.16 441.92
  A 1.46 1.46 0.0 0 1 1224.03 443.14
  L 1212.83 445.60
  A 1.62 1.62 0.0 0 1 1210.88 443.79
  C 1213.06 428.45 1209.62 411.94 1202.90 398.31
  C 1191.73 375.66 1180.83 352.13 1189.05 326.32
  C 1193.99 310.79 1204.89 299.65 1220.29 294.03
  C 1227.14 291.53 1234.86 291.51 1242.25 292.21
  Q 1251.34 293.06 1260.07 298.73
  Q 1274.43 308.04 1277.90 324.90
  C 1278.75 329.00 1278.10 333.71 1278.39 337.98
  A 1.39 1.37 18.1 0 0 1278.89 338.95
  Q 1285.44 344.26 1291.24 354.71
  Q 1293.25 358.34 1293.59 360.59
  C 1295.62 373.96 1294.01 385.99 1285.65 395.72
  Q 1281.43 400.62 1274.71 401.68
  A 1.04 1.03 80.4 0 1 1273.53 400.84
  Q 1271.87 391.17 1270.13 384.64
  Q 1269.36 381.74 1266.14 376.09
  C 1261.77 368.41 1258.38 363.35 1249.72 361.77
  C 1242.40 360.44 1236.85 359.69 1231.35 355.30
  A 0.36 0.36 0.0 0 0 1230.77 355.66
  C 1232.32 362.93 1234.01 366.48 1237.88 374.21
  Q 1239.94 378.33 1243.40 382.82
  C 1247.63 388.31 1251.31 394.16 1255.89 399.61
  C 1260.71 405.34 1263.65 410.19 1268.94 418.09
  C 1275.99 428.62 1281.11 438.70 1285.64 449.63
  Q 1289.20 458.21 1291.41 471.05
  C 1293.64 483.95 1292.32 495.53 1289.10 507.33
  Q 1285.78 519.51 1277.60 530.11
  Q 1275.16 533.26 1271.86 535.49
  A 0.82 0.82 0.0 0 1 1270.87 535.42
  L 1264.86 530.18
  A 1.08 1.07 -53.3 0 1 1264.66 528.78
  C 1268.67 522.64 1272.54 514.88 1274.49 507.41
  C 1278.21 493.08 1279.47 479.47 1276.26 465.28
  C 1271.25 443.10 1259.41 423.90 1245.27 405.25
  Q 1237.29 394.71 1229.38 382.13
  Q 1226.91 378.20 1224.79 373.02
  C 1220.71 363.05 1216.63 354.30 1219.70 343.48
  C 1220.91 339.24 1223.44 335.65 1227.72 335.11
  Q 1230.37 334.78 1230.88 337.13
  C 1232.66 345.41 1240.10 350.33 1248.29 351.38
  Q 1251.41 351.79 1255.25 352.08
  A 6.80 6.74 56.6 0 1 1256.87 352.42
  Q 1262.13 354.24 1268.26 360.24
  Q 1273.94 365.81 1275.36 368.78
  C 1276.49 371.12 1277.18 372.96 1278.20 374.42
  Z"
/>
<path fill="#172a3c" d="
  M 375.88 310.78
  A 0.76 0.76 0.0 0 1 375.08 309.92
  L 376.49 299.35
  A 1.47 1.46 4.7 0 1 378.00 298.08
  Q 411.69 299.35 442.59 298.31
  A 1.26 1.25 2.9 0 1 443.88 299.73
  L 442.50 310.11
  A 1.22 1.22 0.0 0 1 441.08 311.15
  Q 429.70 309.22 419.08 309.21
  A 0.64 0.63 4.2 0 0 418.45 309.75
  Q 414.07 340.80 410.55 372.50
  Q 410.10 376.54 410.04 381.25
  A 1.48 1.47 89.2 0 1 408.63 382.71
  L 391.25 383.42
  A 1.32 1.32 0.0 0 1 389.88 381.93
  L 399.45 310.09
  A 0.70 0.70 0.0 0 0 398.72 309.30
  L 375.88 310.78
  Z"
/>
<path fill="#172a3c" d="
  M 527.43 359.02
  C 527.11 363.06 528.14 368.25 530.96 371.00
  C 537.20 377.10 546.68 374.58 552.90 370.13
  A 1.83 1.82 56.6 0 1 555.51 370.67
  L 556.54 372.34
  A 2.56 2.56 0.0 0 1 555.98 375.65
  Q 547.28 382.80 537.43 384.38
  C 506.64 389.32 502.97 357.43 514.59 337.84
  C 519.20 330.06 524.82 325.77 533.26 322.76
  C 543.20 319.22 559.58 320.39 561.06 333.43
  C 562.86 349.39 539.99 356.07 528.17 358.20
  A 0.90 0.90 0.0 0 0 527.43 359.02
  Z
  M 528.24 351.03
  C 536.53 349.36 545.41 343.20 544.08 333.64
  C 542.97 325.69 535.35 327.66 532.33 332.62
  Q 527.38 340.78 527.80 350.68
  A 0.37 0.37 0.0 0 0 528.24 351.03
  Z"
/>
<path fill="#ffffff" d="
  M 528.24 351.03
  A 0.37 0.37 0.0 0 1 527.80 350.68
  Q 527.38 340.78 532.33 332.62
  C 535.35 327.66 542.97 325.69 544.08 333.64
  C 545.41 343.20 536.53 349.36 528.24 351.03
  Z"
/>
<ellipse fill="#f25a5e" cx="0.00" cy="0.00" transform="translate(1253.58,333.46) rotate(-154.9)" rx="5.20" ry="4.54"/>
<path fill="#0096d4" d="
  M 807.77 595.51
  Q 806.95 595.78 806.75 595.78
  Q 795.46 595.74 790.51 595.74
  C 781.89 595.74 772.67 596.52 764.50 596.42
  Q 761.89 596.39 762.15 593.74
  Q 763.71 577.73 763.75 577.38
  Q 765.93 555.70 769.12 522.54
  C 772.73 485.04 777.20 448.41 780.42 419.75
  Q 781.90 406.50 781.42 392.02
  A 2.08 2.08 0.0 0 1 783.43 389.87
  Q 804.88 389.13 826.49 385.50
  C 828.40 385.18 830.39 385.93 830.12 388.10
  C 822.11 450.80 814.74 505.55 809.56 563.25
  C 808.60 573.87 808.15 584.41 808.63 594.25
  A 1.28 1.28 0.0 0 1 807.77 595.51
  Z"
/>
<path fill="#f25a5e" d="
  M 1167.38 498.36
  A 0.24 0.24 0.0 0 0 1167.83 498.51
  C 1169.19 495.72 1169.86 492.80 1171.36 490.05
  Q 1176.49 480.66 1179.38 477.12
  Q 1181.18 474.92 1186.10 470.08
  C 1196.62 459.72 1214.47 452.59 1229.17 458.15
  C 1245.00 464.13 1249.80 478.16 1252.87 493.92
  Q 1254.49 502.22 1253.93 512.68
  Q 1252.37 542.17 1237.65 564.88
  Q 1231.76 573.96 1220.63 583.19
  Q 1201.10 599.38 1174.74 600.53
  Q 1170.60 600.72 1161.24 600.12
  Q 1152.63 599.58 1147.82 598.45
  Q 1135.06 595.45 1123.33 589.55
  A 2.69 2.68 -73.4 0 1 1121.87 586.85
  Q 1122.52 581.29 1125.05 555.01
  Q 1131.29 490.25 1136.32 425.50
  Q 1137.61 408.91 1137.16 392.18
  A 1.43 1.42 -3.2 0 1 1138.47 390.72
  C 1151.77 389.68 1162.08 387.99 1177.87 385.79
  Q 1180.40 385.44 1180.71 387.21
  Q 1180.89 388.17 1180.33 392.87
  C 1178.92 404.84 1174.40 435.88 1171.88 460.75
  Q 1170.51 474.21 1169.76 480.83
  Q 1168.42 492.57 1167.38 498.36
  Z
  M 1164.55 574.29
  Q 1177.17 582.88 1188.61 572.88
  C 1206.22 557.50 1213.19 529.55 1211.35 507.39
  C 1210.81 500.85 1208.37 487.00 1199.88 487.21
  C 1192.96 487.38 1185.21 497.83 1181.91 503.30
  C 1174.33 515.84 1169.53 528.63 1167.16 543.58
  Q 1164.94 557.63 1164.00 573.17
  A 1.27 1.26 -71.5 0 0 1164.55 574.29
  Z"
/>
<path fill="#0096d4" d="
  M 210.27 425.14
  A 0.43 0.43 0.0 0 0 209.82 424.68
  Q 183.46 425.41 156.45 428.90
  A 1.77 1.77 0.0 0 1 154.47 426.91
  L 158.65 395.51
  A 2.30 2.29 -84.2 0 1 161.07 393.53
  Q 175.71 394.53 204.24 396.05
  Q 256.57 398.83 313.50 394.96
  Q 316.33 394.77 321.10 394.67
  C 323.17 394.63 324.04 395.45 323.75 397.51
  Q 321.78 411.45 319.84 424.68
  A 1.46 1.45 -84.9 0 1 318.36 425.93
  Q 298.91 425.28 271.76 424.68
  Q 267.46 424.58 259.46 424.88
  A 0.58 0.57 1.7 0 0 258.91 425.39
  Q 251.23 494.53 245.94 555.49
  Q 244.15 576.21 244.46 594.57
  A 1.20 1.20 0.0 0 1 243.30 595.79
  Q 215.69 596.78 197.21 596.88
  Q 194.28 596.89 194.47 594.32
  Q 194.63 592.27 195.09 587.47
  Q 200.41 532.78 207.40 460.51
  Q 208.88 445.14 210.27 425.14
  Z"
/>
<path fill="#f25a5e" d="
  M 919.49 572.16
  A 0.30 0.30 0.0 0 0 919.77 572.45
  Q 945.89 574.39 972.42 570.53
  A 1.76 1.76 0.0 0 1 974.43 572.41
  Q 972.82 592.14 972.67 594.23
  C 972.51 596.68 971.25 597.11 968.89 597.04
  Q 919.58 595.56 874.21 596.05
  A 1.54 1.54 0.0 0 1 872.66 594.35
  Q 879.98 521.97 889.45 440.24
  Q 891.55 422.12 892.26 404.02
  A 2.02 2.01 -0.6 0 1 894.14 402.10
  L 936.28 399.39
  A 1.39 1.39 0.0 0 1 937.76 400.90
  Q 937.23 407.02 936.14 415.97
  Q 929.36 471.60 926.62 498.68
  C 924.53 519.30 921.72 542.79 919.67 565.69
  Q 919.39 568.79 919.49 572.16
  Z"
/>
<path fill="#0096d4" d="
  M 328.04 512.57
  A 0.27 0.26 76.6 0 0 328.44 512.82
  L 328.68 512.67
  A 0.04 0.04 0.0 0 0 328.71 512.63
  Q 330.00 507.76 332.53 500.23
  Q 338.09 483.66 349.80 470.25
  C 358.25 460.57 372.95 453.07 385.69 458.91
  A 2.21 2.20 20.3 0 1 386.90 461.52
  L 377.75 493.89
  A 1.10 1.09 20.5 0 1 376.23 494.58
  C 367.76 490.57 359.34 490.15 351.91 496.66
  Q 345.97 501.85 342.81 507.55
  Q 336.35 519.21 332.84 533.06
  Q 327.89 552.53 326.29 572.69
  C 325.71 579.98 325.93 587.66 325.76 594.02
  A 1.57 1.57 0.0 0 1 324.24 595.55
  Q 315.17 595.85 308.08 596.05
  C 299.49 596.30 291.84 597.06 283.78 596.97
  Q 281.25 596.94 281.48 594.50
  C 284.70 560.02 287.38 533.43 290.57 497.14
  C 291.71 484.18 291.70 475.00 291.04 463.46
  A 1.79 1.79 0.0 0 1 292.61 461.59
  Q 311.86 459.27 331.06 456.71
  C 333.31 456.41 334.05 458.60 333.94 460.50
  Q 332.39 486.09 328.38 509.77
  Q 328.15 511.11 328.04 512.57
  Z"
/>
<path fill="#0096d4" d="
  M 679.14 540.31
  A 0.61 0.60 80.7 0 0 678.68 540.96
  C 680.35 557.67 687.31 575.40 707.24 575.76
  C 719.38 575.98 731.08 570.39 741.35 563.60
  A 1.45 1.45 0.0 0 1 743.38 564.05
  L 746.68 569.44
  A 1.70 1.70 0.0 0 1 746.55 571.39
  C 732.70 588.64 711.81 598.66 690.02 599.29
  C 668.54 599.91 650.80 591.90 640.87 572.70
  Q 635.30 561.93 634.70 547.90
  C 633.60 522.43 642.66 493.78 661.34 476.03
  C 675.63 462.46 696.16 455.16 716.28 457.13
  C 733.45 458.81 747.96 466.53 750.19 485.29
  C 752.49 504.64 734.14 518.16 719.04 525.78
  Q 700.07 535.36 679.14 540.31
  Z
  M 678.21 526.16
  C 690.44 521.31 704.91 512.81 710.09 500.34
  C 712.70 494.03 713.11 483.22 708.03 478.03
  C 700.99 470.86 690.18 477.73 686.37 484.87
  C 679.74 497.30 677.27 511.89 677.66 525.80
  A 0.40 0.40 0.0 0 0 678.21 526.16
  Z"
/>
<path fill="#f25a5e" d="
  M 1066.63 549.19
  A 0.38 0.38 0.0 0 0 1065.94 549.25
  Q 1060.33 565.17 1049.56 579.12
  C 1043.40 587.11 1033.75 595.26 1024.14 597.82
  C 1011.85 601.09 998.62 599.48 990.54 588.79
  Q 985.54 582.18 982.99 574.73
  Q 980.79 568.28 980.22 559.09
  Q 979.16 541.86 984.58 523.11
  C 991.47 499.27 1007.97 476.60 1030.33 465.16
  Q 1048.05 456.10 1067.52 456.95
  Q 1081.06 457.55 1089.23 459.35
  Q 1095.92 460.82 1109.54 464.20
  A 1.45 1.45 0.0 0 1 1110.63 465.82
  Q 1104.10 511.60 1102.75 558.00
  Q 1102.72 559.17 1103.38 569.60
  C 1103.79 576.12 1105.82 581.03 1110.19 585.16
  A 1.42 1.42 0.0 0 1 1110.13 587.28
  Q 1096.78 598.49 1080.49 599.09
  C 1071.65 599.41 1068.18 592.82 1065.72 585.62
  Q 1064.44 581.88 1064.61 575.77
  C 1064.75 570.88 1064.48 567.05 1065.11 562.44
  Q 1066.48 552.38 1066.69 549.75
  Q 1066.72 549.34 1066.63 549.19
  Z
  M 1066.73 484.35
  A 0.72 0.71 -73.9 0 0 1066.33 483.62
  Q 1058.95 480.09 1052.09 481.65
  C 1043.81 483.53 1035.78 493.78 1032.15 501.14
  C 1026.19 513.25 1021.50 529.24 1021.61 543.66
  C 1021.66 549.89 1020.76 569.71 1031.40 568.87
  C 1035.38 568.55 1038.94 565.44 1041.32 562.34
  Q 1046.72 555.29 1050.42 547.97
  C 1058.05 532.91 1063.09 517.19 1064.90 500.62
  Q 1065.78 492.60 1066.73 484.35
  Z"
/>
<path fill="#0096d4" d="
  M 458.54 547.94
  L 458.26 547.93
  A 0.34 0.34 0.0 0 0 457.94 548.16
  Q 452.32 565.05 441.34 579.61
  C 438.26 583.69 434.82 586.83 430.32 590.50
  Q 416.82 601.49 399.04 598.93
  C 381.78 596.45 373.34 578.11 371.67 562.62
  Q 370.20 548.93 372.67 535.96
  Q 378.90 503.36 401.54 480.55
  Q 417.75 464.24 441.34 458.81
  C 460.78 454.34 482.58 458.83 501.33 463.72
  C 503.28 464.23 504.19 464.94 503.93 467.21
  C 503.40 471.71 502.70 475.82 502.25 480.61
  Q 499.35 511.64 496.64 539.08
  Q 495.80 547.61 495.65 559.26
  C 495.54 568.58 495.69 578.12 503.22 584.51
  A 1.71 1.71 0.0 0 1 503.12 587.19
  C 494.29 593.67 475.25 603.74 465.30 596.29
  C 460.41 592.63 457.74 584.61 457.45 578.75
  Q 456.72 563.99 459.09 548.59
  A 0.57 0.56 4.9 0 0 458.54 547.94
  Z
  M 459.83 483.42
  A 0.55 0.55 0.0 0 0 459.48 482.76
  Q 453.71 480.62 448.78 480.85
  C 440.63 481.22 433.10 487.77 428.31 494.31
  Q 424.89 498.98 422.24 505.21
  Q 412.35 528.49 414.36 553.37
  C 414.86 559.55 416.62 570.36 425.28 568.21
  C 431.07 566.77 436.99 557.94 439.71 553.22
  C 450.20 535.00 456.72 515.08 458.65 494.19
  Q 459.54 484.46 459.83 483.42
  Z"
/>
<path fill="#0096d4" d="
  M 579.43 560.67
  A 0.37 0.36 56.2 0 0 580.12 560.81
  Q 584.91 551.20 590.84 539.09
  C 602.41 515.47 609.52 487.84 609.90 460.60
  A 1.22 1.21 -88.8 0 1 611.14 459.40
  L 637.97 459.92
  A 1.09 1.07 -25.4 0 1 638.58 460.13
  C 641.76 462.57 638.93 474.08 638.18 476.94
  C 633.18 496.03 626.45 511.96 617.51 531.53
  Q 602.51 564.39 586.60 594.55
  A 1.62 1.61 12.5 0 1 585.24 595.41
  L 549.16 596.90
  A 2.37 2.37 0.0 0 1 546.72 594.93
  Q 544.12 580.09 541.54 567.98
  Q 533.52 530.38 527.47 502.21
  C 524.74 489.51 521.36 477.28 519.20 465.45
  A 1.62 1.62 0.0 0 1 520.60 463.55
  C 535.08 461.79 548.99 459.62 560.77 458.52
  C 563.10 458.30 563.76 459.05 564.21 461.32
  Q 571.92 500.50 577.59 541.13
  C 578.64 548.69 578.93 554.04 579.43 560.67
  Z"
/>
<path fill="#ffffff" d="
  M 678.21 526.16
  A 0.40 0.40 0.0 0 1 677.66 525.80
  C 677.27 511.89 679.74 497.30 686.37 484.87
  C 690.18 477.73 700.99 470.86 708.03 478.03
  C 713.11 483.22 712.70 494.03 710.09 500.34
  C 704.91 512.81 690.44 521.31 678.21 526.16
  Z"
/>
<path fill="#ffffff" d="
  M 459.83 483.42
  Q 459.54 484.46 458.65 494.19
  C 456.72 515.08 450.20 535.00 439.71 553.22
  C 436.99 557.94 431.07 566.77 425.28 568.21
  C 416.62 570.36 414.86 559.55 414.36 553.37
  Q 412.35 528.49 422.24 505.21
  Q 424.89 498.98 428.31 494.31
  C 433.10 487.77 440.63 481.22 448.78 480.85
  Q 453.71 480.62 459.48 482.76
  A 0.55 0.55 0.0 0 1 459.83 483.42
  Z"
/>
<path fill="#ffffff" d="
  M 1066.73 484.35
  Q 1065.78 492.60 1064.90 500.62
  C 1063.09 517.19 1058.05 532.91 1050.42 547.97
  Q 1046.72 555.29 1041.32 562.34
  C 1038.94 565.44 1035.38 568.55 1031.40 568.87
  C 1020.76 569.71 1021.66 549.89 1021.61 543.66
  C 1021.50 529.24 1026.19 513.25 1032.15 501.14
  C 1035.78 493.78 1043.81 483.53 1052.09 481.65
  Q 1058.95 480.09 1066.33 483.62
  A 0.72 0.71 -73.9 0 1 1066.73 484.35
  Z"
/>
<path fill="#ffffff" d="
  M 1164.55 574.29
  A 1.27 1.26 -71.5 0 1 1164.00 573.17
  Q 1164.94 557.63 1167.16 543.58
  C 1169.53 528.63 1174.33 515.84 1181.91 503.30
  C 1185.21 497.83 1192.96 487.38 1199.88 487.21
  C 1208.37 487.00 1210.81 500.85 1211.35 507.39
  C 1213.19 529.55 1206.22 557.50 1188.61 572.88
  Q 1177.17 582.88 1164.55 574.29
  Z"
/>
<path fill="#172a3c" d="
  M 1266.79 570.90
  Q 1271.69 570.92 1276.12 570.92
  A 0.82 0.81 0.2 0 1 1276.93 571.73
  L 1276.93 573.55
  A 0.86 0.86 0.0 0 1 1276.07 574.41
  L 1269.39 574.41
  A 0.69 0.69 0.0 0 0 1268.70 575.10
  L 1268.70 597.21
  A 0.75 0.74 -4.8 0 1 1268.07 597.94
  Q 1267.75 598.00 1266.70 597.99
  Q 1265.65 597.99 1265.33 597.94
  A 0.75 0.74 5.1 0 1 1264.70 597.20
  L 1264.84 575.09
  A 0.69 0.69 0.0 0 0 1264.16 574.39
  L 1257.48 574.35
  A 0.86 0.86 0.0 0 1 1256.62 573.49
  L 1256.64 571.67
  A 0.82 0.81 0.1 0 1 1257.45 570.87
  Q 1261.88 570.89 1266.79 570.90
  Z"
/>
<path fill="#172a3c" d="
  M 1296.98 597.95
  Q 1295.94 597.95 1295.69 597.38
  Q 1291.31 587.23 1287.63 577.16
  A 0.23 0.23 0.0 0 0 1287.18 577.24
  L 1287.18 597.26
  A 0.94 0.94 0.0 0 1 1286.24 598.20
  L 1284.14 598.20
  A 0.87 0.87 0.0 0 1 1283.27 597.33
  L 1283.27 571.71
  A 0.72 0.71 0.0 0 1 1283.99 571.00
  L 1287.83 571.00
  A 1.35 1.35 0.0 0 1 1289.09 571.87
  L 1296.69 591.82
  A 0.04 0.03 75.5 0 0 1296.72 591.84
  Q 1296.89 591.90 1296.97 591.90
  Q 1297.04 591.90 1297.22 591.84
  A 0.04 0.03 -75.8 0 0 1297.24 591.82
  L 1304.75 571.83
  A 1.35 1.35 0.0 0 1 1306.00 570.96
  L 1309.84 570.94
  A 0.72 0.71 -0.3 0 1 1310.57 571.65
  L 1310.69 597.27
  A 0.87 0.87 0.0 0 1 1309.82 598.14
  L 1307.72 598.15
  A 0.94 0.94 0.0 0 1 1306.78 597.21
  L 1306.68 577.19
  A 0.23 0.23 0.0 0 0 1306.23 577.12
  Q 1302.60 587.20 1298.27 597.37
  Q 1298.02 597.95 1296.98 597.95
  Z"
/>
<path fill="#172a3c" d="
  M 768.72 702.91
  L 768.45 702.91
  A 0.22 0.21 -76.5 0 0 768.24 703.05
  Q 764.73 711.86 759.48 718.22
  C 750.43 729.18 733.79 730.43 727.17 716.12
  C 720.66 702.05 725.29 683.63 733.68 671.32
  C 742.63 658.20 757.26 650.84 772.92 655.72
  A 0.43 0.42 -76.3 0 0 773.45 655.39
  Q 776.04 640.73 775.47 627.04
  A 1.38 1.37 -4.5 0 1 776.69 625.62
  L 794.80 623.53
  A 1.55 1.55 0.0 0 1 796.53 624.98
  C 796.68 627.50 796.16 630.01 795.89 632.23
  Q 794.68 642.36 789.58 679.70
  Q 788.69 686.22 788.11 692.33
  C 787.22 701.69 786.44 705.65 786.99 711.99
  Q 787.31 715.59 790.08 717.89
  A 1.70 1.70 0.0 0 1 790.08 720.51
  C 782.35 726.87 767.47 731.91 767.91 715.01
  Q 768.07 708.96 769.18 703.48
  A 0.48 0.47 6.5 0 0 768.72 702.91
  Z
  M 771.21 667.27
  A 1.25 1.24 16.6 0 0 770.60 666.15
  C 764.72 662.56 757.78 665.19 754.27 670.44
  Q 744.48 685.06 745.75 703.05
  C 746.01 706.86 748.13 712.91 753.21 710.43
  Q 756.15 709.00 757.80 706.80
  C 766.27 695.50 770.74 681.18 771.21 667.27
  Z"
/>
<path fill="#172a3c" d="
  M 487.47 723.39
  Q 487.48 723.35 487.82 722.54
  Q 488.70 720.41 496.92 703.65
  Q 497.32 702.84 529.72 638.76
  Q 531.23 635.77 532.55 632.80
  A 1.90 1.89 7.6 0 1 533.98 631.71
  Q 543.98 630.20 551.22 629.80
  C 553.17 629.69 554.07 631.63 554.48 633.40
  Q 564.57 677.96 576.32 722.83
  A 0.44 0.43 -12.7 0 1 575.98 723.36
  Q 565.28 725.38 556.79 725.71
  C 553.53 725.83 553.50 723.89 552.91 721.06
  Q 552.08 717.05 548.52 699.02
  A 1.46 1.45 -5.3 0 0 547.10 697.85
  Q 527.14 697.69 525.66 697.62
  C 522.47 697.45 519.10 698.15 515.57 698.36
  A 1.82 1.82 0.0 0 0 514.04 699.37
  Q 507.92 711.57 504.48 723.90
  A 1.82 1.80 8.7 0 1 502.67 725.22
  L 488.49 724.66
  A 1.09 1.08 -83.9 0 1 487.47 723.39
  Z
  M 537.90 650.09
  A 0.44 0.44 0.0 0 0 537.07 649.99
  L 520.29 685.76
  A 0.44 0.44 0.0 0 0 520.69 686.39
  L 545.32 686.39
  A 0.44 0.44 0.0 0 0 545.75 685.86
  L 537.90 650.09
  Z"
/>
<path fill="#ffffff" d="
  M 537.90 650.09
  L 545.75 685.86
  A 0.44 0.44 0.0 0 1 545.32 686.39
  L 520.69 686.39
  A 0.44 0.44 0.0 0 1 520.29 685.76
  L 537.07 649.99
  A 0.44 0.44 0.0 0 1 537.90 650.09
  Z"
/>
<path fill="#172a3c" d="
  M 636.36 708.64
  L 638.66 712.23
  A 1.93 1.92 -40.1 0 1 638.46 714.56
  Q 625.83 728.36 607.03 726.41
  Q 594.79 725.14 589.01 714.73
  C 579.07 696.86 589.25 669.00 606.43 659.24
  C 615.95 653.84 630.61 651.56 640.57 658.22
  Q 645.56 661.55 645.14 666.98
  C 644.74 672.23 635.33 675.32 630.91 676.71
  A 1.16 1.15 79.8 0 1 629.41 675.66
  C 629.23 671.97 628.94 666.61 625.45 664.78
  C 615.37 659.53 608.86 677.79 607.65 684.39
  C 606.31 691.70 605.96 698.45 607.90 705.52
  C 610.25 714.12 618.14 716.44 625.84 713.34
  Q 629.64 711.80 631.90 710.40
  Q 635.05 708.44 635.26 708.36
  A 0.83 0.82 59.2 0 1 636.36 708.64
  Z"
/>
<path fill="#172a3c" d="
  M 691.85 702.73
  L 691.40 703.01
  A 0.83 0.82 -5.8 0 0 691.05 703.43
  C 686.90 715.34 677.02 728.96 662.72 726.31
  C 654.16 724.73 649.51 715.90 648.76 707.68
  Q 647.04 688.60 658.11 672.24
  C 666.53 659.79 679.88 652.92 694.75 654.24
  Q 704.58 655.11 714.35 657.60
  A 1.26 1.25 11.0 0 1 715.28 658.97
  Q 714.09 668.03 713.55 671.82
  C 712.36 680.21 711.49 692.28 710.71 699.38
  Q 710.03 705.50 710.62 711.62
  Q 711.02 715.89 714.14 718.65
  A 1.04 1.03 -45.5 0 1 714.15 720.19
  C 708.19 725.69 694.08 731.94 691.65 718.88
  Q 690.51 712.79 692.41 703.13
  A 0.38 0.37 80.0 0 0 691.85 702.73
  Z
  M 693.13 667.06
  A 1.02 1.01 -73.7 0 0 692.62 666.11
  C 684.05 661.24 677.17 669.35 674.19 676.40
  Q 669.66 687.09 669.43 700.00
  C 669.37 703.31 670.04 711.34 674.75 710.94
  C 681.43 710.38 687.87 694.75 689.43 689.21
  Q 692.45 678.51 693.13 667.06
  Z"
/>
<path fill="#172a3c" d="
  M 853.81 708.59
  L 855.52 712.69
  A 1.96 1.94 -35.8 0 1 855.18 714.73
  C 845.52 725.70 830.14 729.44 816.56 724.73
  C 797.56 718.15 797.21 693.85 803.88 678.45
  C 811.14 661.68 826.69 651.94 845.18 654.68
  Q 855.21 656.17 859.20 664.47
  C 864.04 674.54 855.61 683.92 846.98 688.28
  Q 835.80 693.92 822.91 696.46
  A 1.02 1.01 -8.1 0 0 822.10 697.53
  C 823.69 717.19 838.96 718.55 852.40 708.22
  A 0.92 0.92 0.0 0 1 853.81 708.59
  Z
  M 822.78 688.53
  C 832.02 686.77 841.98 680.03 840.62 669.38
  C 839.48 660.51 830.97 662.61 827.55 668.10
  Q 821.94 677.11 822.29 688.14
  A 0.41 0.41 0.0 0 0 822.78 688.53
  Z"
/>
<path fill="#172a3c" d="
  M 890.63 675.37
  A 0.42 0.42 0.0 0 0 891.44 675.61
  C 896.06 664.27 906.60 652.32 920.02 654.43
  C 927.31 655.57 931.48 663.49 930.30 670.31
  Q 929.60 674.34 929.67 674.49
  A 0.31 0.31 0.0 0 0 930.22 674.52
  Q 930.66 673.76 932.77 669.82
  Q 934.54 666.50 940.48 660.52
  Q 945.78 655.18 953.78 654.33
  C 966.00 653.04 970.82 661.18 969.44 672.24
  C 967.85 684.99 965.94 697.92 965.36 710.74
  Q 965.15 715.22 968.32 718.52
  A 1.49 1.49 0.0 0 1 968.16 720.73
  C 964.30 723.71 959.59 726.49 955.25 726.68
  C 944.39 727.13 943.97 716.70 945.17 708.97
  C 947.05 696.99 948.27 691.25 949.66 679.39
  C 950.04 676.15 950.47 671.28 947.68 669.07
  A 1.66 1.63 -23.6 0 0 946.74 668.71
  C 943.85 668.56 940.48 672.20 938.94 674.43
  C 929.22 688.48 925.82 705.82 925.48 722.61
  A 1.57 1.57 0.0 0 1 924.01 724.14
  L 907.19 725.23
  A 1.29 1.28 85.7 0 1 905.83 724.06
  Q 905.75 723.03 905.88 721.92
  Q 906.62 715.59 910.22 689.77
  Q 910.26 689.52 910.78 684.24
  C 911.27 679.37 912.21 674.69 910.52 671.33
  C 907.94 666.22 902.38 670.86 900.18 673.95
  C 890.34 687.78 886.76 705.97 886.17 722.72
  A 1.69 1.68 89.3 0 1 884.60 724.34
  L 868.00 725.41
  A 1.65 1.64 -88.7 0 1 866.27 723.59
  Q 867.28 714.38 867.99 709.88
  C 870.04 696.68 871.74 681.96 872.42 670.25
  Q 872.74 664.67 871.50 659.01
  A 1.48 1.47 -11.5 0 1 872.68 657.24
  Q 879.82 655.90 886.53 654.92
  C 890.32 654.37 892.87 653.63 892.74 658.36
  Q 892.55 665.73 890.63 675.37
  Z"
/>
<path fill="#172a3c" d="
  M 1000.77 724.73
  L 996.46 725.68
  A 1.61 1.61 0.0 0 1 994.54 724.39
  C 993.12 716.34 991.21 704.57 988.53 695.08
  C 985.46 684.24 982.88 671.63 979.04 660.24
  A 1.54 1.54 0.0 0 1 980.02 658.28
  Q 987.90 655.72 996.29 654.62
  C 1002.14 653.85 1002.14 657.77 1003.05 662.47
  Q 1008.25 689.27 1008.78 692.49
  Q 1010.28 701.57 1011.00 708.00
  A 0.49 0.49 0.0 0 0 1011.91 708.18
  Q 1017.79 697.47 1021.83 686.64
  Q 1027.32 671.91 1026.93 656.97
  A 1.75 1.75 0.0 0 1 1028.71 655.18
  L 1040.50 655.41
  A 2.98 2.97 -2.6 0 1 1043.40 658.05
  C 1044.28 665.82 1040.61 676.83 1037.66 683.65
  Q 1029.07 703.55 1016.69 723.16
  Q 1008.92 735.46 999.56 745.21
  Q 990.77 754.36 978.53 753.93
  Q 971.93 753.70 968.10 748.64
  A 1.14 1.12 36.2 0 1 967.93 747.60
  Q 969.02 744.55 971.07 740.33
  Q 971.93 738.58 974.24 737.83
  A 1.49 1.49 0.0 0 1 975.48 737.96
  Q 982.96 742.32 990.63 735.97
  Q 995.68 731.79 1001.07 725.21
  A 0.30 0.30 0.0 0 0 1000.77 724.73
  Z"
/>
<path fill="#ffffff" d="
  M 822.78 688.53
  A 0.41 0.41 0.0 0 1 822.29 688.14
  Q 821.94 677.11 827.55 668.10
  C 830.97 662.61 839.48 660.51 840.62 669.38
  C 841.98 680.03 832.02 686.77 822.78 688.53
  Z"
/>
<path fill="#ffffff" d="
  M 771.21 667.27
  C 770.74 681.18 766.27 695.50 757.80 706.80
  Q 756.15 709.00 753.21 710.43
  C 748.13 712.91 746.01 706.86 745.75 703.05
  Q 744.48 685.06 754.27 670.44
  C 757.78 665.19 764.72 662.56 770.60 666.15
  A 1.25 1.24 16.6 0 1 771.21 667.27
  Z"
/>
<path fill="#ffffff" d="
  M 693.13 667.06
  Q 692.45 678.51 689.43 689.21
  C 687.87 694.75 681.43 710.38 674.75 710.94
  C 670.04 711.34 669.37 703.31 669.43 700.00
  Q 669.66 687.09 674.19 676.40
  C 677.17 669.35 684.05 661.24 692.62 666.11
  A 1.02 1.01 -73.7 0 1 693.13 667.06
  Z"
/>
</svg>
