<?xml version="1.0" encoding="UTF-8" standalone="no"?>
<!DOCTYPE svg PUBLIC "-//W3C//DTD SVG 1.1//EN" "http://www.w3.org/Graphics/SVG/1.1/DTD/svg11.dtd">
<svg xmlns="http://www.w3.org/2000/svg" version="1.1" viewBox="0.00 0.00 1537.00 1023.00">
<g stroke-width="2.00" fill="none" stroke-linecap="butt">
<path stroke="#80ccea" vector-effect="non-scaling-stroke" d="
  M 1099.16 205.47
  C 1097.13 206.40 1094.72 207.54 1092.61 208.96
  Q 1086.32 213.17 1078.10 217.82
  A 1.04 1.02 -48.2 0 1 1077.20 217.88
  L 1070.32 215.02
  A 0.99 0.98 41.4 0 0 1069.45 215.07
  L 1065.20 217.53
  A 1.02 1.02 0.0 0 0 1065.14 219.26
  L 1072.96 224.49
  A 1.58 1.56 -82.6 0 1 1073.58 225.31
  Q 1075.22 230.46 1076.13 233.85
  Q 1076.53 235.36 1077.87 236.24
  A 1.00 0.98 48.6 0 0 1078.84 236.31
  C 1082.75 234.43 1082.70 231.28 1083.23 227.52
  A 1.56 1.56 0.0 0 1 1084.16 226.32
  L 1109.77 215.66
  A 0.82 0.81 76.8 0 1 1110.89 216.36
  Q 1111.67 228.10 1113.83 238.96
  A 0.77 0.77 0.0 0 0 1114.76 239.56
  Q 1118.25 238.77 1120.75 237.00
  A 1.93 1.91 -12.4 0 0 1121.51 235.83
  L 1127.21 208.13
  A 2.71 2.70 83.1 0 1 1128.69 206.23
  Q 1132.52 204.35 1148.46 196.16
  C 1153.60 193.51 1155.85 193.03 1157.93 188.39
  C 1160.97 181.61 1152.92 180.87 1148.61 181.57
  A 5.90 5.68 26.8 0 0 1147.12 182.03
  L 1119.93 194.62
  A 5.06 5.00 -49.5 0 1 1116.50 194.91
  L 1082.74 185.83
  A 1.84 1.82 37.9 0 0 1081.39 185.99
  L 1076.48 188.65
  A 0.94 0.94 0.0 0 0 1076.42 190.27
  L 1099.22 204.73
  A 0.42 0.42 0.0 0 1 1099.16 205.47"
/>
<path stroke="#bce2ee" vector-effect="non-scaling-stroke" d="
  M 1046.46 220.16
  Q 1042.21 220.29 1038.00 220.71
  Q 1000.06 224.53 996.98 224.91
  C 979.02 227.14 963.22 228.36 947.39 230.74
  Q 922.95 234.42 906.77 237.11
  Q 877.65 241.96 850.43 247.89
  C 844.32 249.22 838.10 250.14 832.25 251.59
  Q 816.32 255.55 788.81 261.86
  C 773.64 265.34 754.97 270.01 743.79 273.36
  C 735.31 275.91 727.70 277.64 718.22 280.49
  Q 699.92 286.00 681.23 291.69
  Q 675.73 293.36 675.36 293.49
  Q 653.51 300.74 631.93 307.53
  Q 623.92 310.05 621.14 311.14
  C 611.59 314.85 603.67 316.80 594.33 320.58
  Q 586.93 323.56 576.18 327.11
  C 572.62 328.28 568.87 330.22 565.01 331.33
  Q 561.90 332.22 556.70 334.61
  C 553.23 336.21 549.09 337.15 545.41 338.84
  C 537.86 342.30 530.12 344.02 523.25 347.27
  Q 521.95 347.88 513.66 350.85
  Q 510.02 352.16 504.15 354.56
  Q 476.51 365.88 453.87 373.93
  A 0.82 0.82 0.0 0 0 454.18 375.52
  L 498.58 373.44
  A 6.53 6.46 33.2 0 0 500.46 373.06
  C 506.44 370.90 511.89 367.82 518.54 365.13
  Q 520.22 364.45 530.90 359.95
  Q 552.16 351.01 589.99 336.98
  C 612.69 328.55 634.81 320.10 656.70 312.61
  C 673.88 306.73 692.64 300.10 710.82 294.50
  C 724.98 290.15 740.76 284.98 756.24 280.64
  Q 763.25 278.67 797.17 269.17
  Q 807.03 266.41 833.58 260.30
  Q 842.64 258.22 849.31 256.41
  C 859.96 253.53 868.49 251.87 880.84 249.15
  Q 915.16 241.57 922.83 240.14
  Q 955.31 234.10 969.26 231.82
  Q 999.61 226.85 1022.99 223.60
  Q 1034.74 221.96 1046.43 220.42
  A 0.18 0.11 3.6 0 0 1046.56 220.35
  Q 1046.57 220.32 1046.62 220.30
  A 0.14 0.07 15.6 0 0 1046.46 220.16"
/>
<path stroke="#85909f" vector-effect="non-scaling-stroke" d="
  M 472.64 274.63
  A 0.48 0.48 0.0 0 1 472.27 274.05
  Q 477.74 249.70 480.46 231.30
  Q 480.89 228.44 480.75 225.37
  A 1.70 1.70 0.0 0 0 478.80 223.76
  L 462.50 226.20
  A 1.28 1.28 0.0 0 0 461.41 227.62
  Q 462.28 234.71 461.25 241.25
  Q 456.34 272.70 449.58 315.75
  A 1.54 1.53 -86.9 0 0 451.17 317.52
  L 466.72 316.80
  A 1.18 1.17 1.1 0 0 467.84 315.73
  C 469.16 301.70 470.98 289.22 478.28 276.78
  Q 480.49 273.01 484.04 269.79
  C 488.63 265.64 494.00 266.47 492.80 274.01
  Q 491.48 282.34 488.70 296.43
  C 487.63 301.86 486.50 308.42 487.76 313.24
  C 490.45 323.55 504.09 316.69 508.95 312.97
  A 1.04 1.04 0.0 0 0 509.03 311.38
  Q 505.75 308.39 505.89 303.47
  C 506.06 297.42 507.78 291.11 508.75 285.35
  Q 510.89 272.63 510.89 272.56
  C 511.94 263.67 510.70 254.60 499.47 254.34
  Q 494.71 254.23 491.10 255.87
  Q 478.96 261.39 473.05 274.60
  A 0.15 0.15 0.0 0 1 472.89 274.68
  L 472.64 274.63"
/>
<path stroke="#f8aaac" vector-effect="non-scaling-stroke" d="
  M 1304.47 312.47
  A 0.35 0.35 0.0 0 1 1303.80 312.58
  Q 1300.67 304.43 1295.23 299.40
  C 1291.31 295.77 1285.48 289.50 1279.81 289.27
  Q 1272.67 288.99 1270.40 288.39
  Q 1258.92 285.37 1255.88 274.43
  A 2.62 2.61 75.0 0 0 1252.71 272.59
  C 1243.34 275.01 1242.07 287.17 1243.87 295.02
  Q 1246.57 306.81 1250.33 314.01
  Q 1255.74 324.36 1257.96 327.81
  Q 1259.90 330.82 1270.17 344.81
  Q 1273.93 349.93 1275.52 352.45
  C 1278.97 357.91 1282.22 362.17 1285.93 368.66
  C 1290.75 377.09 1294.63 384.17 1297.81 393.42
  Q 1308.25 423.76 1295.48 452.61
  C 1293.22 457.74 1290.88 461.11 1287.62 465.75
  A 1.02 1.02 0.0 0 0 1287.73 467.06
  L 1292.84 472.18
  A 1.08 1.08 0.0 0 0 1294.31 472.23
  C 1303.49 464.33 1309.79 451.53 1312.36 440.17
  Q 1314.76 429.52 1314.80 423.98
  C 1315.00 401.12 1307.76 381.66 1296.49 362.01
  Q 1293.24 356.34 1274.07 330.14
  Q 1267.91 321.72 1265.43 317.99
  Q 1264.01 315.86 1258.61 304.16
  C 1256.87 300.38 1255.94 296.53 1255.39 293.15
  A 0.53 0.52 -75.5 0 1 1256.23 292.65
  Q 1260.90 296.35 1266.90 298.23
  C 1270.82 299.46 1276.05 299.89 1279.77 301.38
  Q 1285.39 303.62 1289.76 310.71
  Q 1297.84 323.83 1298.32 339.06
  A 1.22 1.21 -6.3 0 0 1299.76 340.21
  C 1311.83 337.94 1318.40 326.80 1320.46 315.41
  C 1322.21 305.76 1320.86 296.83 1315.81 289.01
  C 1312.75 284.28 1309.13 280.44 1305.16 276.35
  A 1.33 1.31 -65.5 0 1 1304.80 275.37
  C 1305.42 264.98 1303.70 254.49 1297.72 246.57
  Q 1292.90 240.17 1290.36 238.18
  Q 1277.81 228.31 1262.26 228.17
  C 1239.00 227.96 1220.00 243.85 1213.48 265.72
  C 1209.63 278.63 1210.01 290.75 1213.37 304.11
  Q 1213.57 304.91 1216.91 314.34
  Q 1218.50 318.82 1221.25 324.24
  Q 1223.59 328.87 1228.33 338.93
  C 1232.79 348.42 1235.48 359.96 1235.13 370.67
  Q 1235.02 374.14 1234.46 382.32
  A 1.44 1.43 87.7 0 0 1236.10 383.84
  L 1247.33 382.16
  A 1.81 1.80 86.3 0 0 1248.87 380.39
  Q 1249.00 365.00 1245.11 350.06
  C 1243.96 345.61 1241.93 341.35 1240.53 337.32
  Q 1239.34 333.90 1236.38 328.10
  C 1231.27 318.06 1226.25 307.76 1224.01 295.90
  C 1222.10 285.82 1223.19 275.64 1226.42 266.44
  C 1230.31 255.40 1239.45 245.52 1250.87 242.30
  C 1260.54 239.57 1269.70 239.58 1278.49 244.93
  C 1283.29 247.86 1287.36 250.89 1289.89 256.07
  Q 1295.31 267.16 1292.24 277.72
  A 3.17 3.16 -62.5 0 0 1293.29 281.07
  Q 1299.00 285.67 1302.73 289.51
  Q 1304.84 291.67 1307.44 297.18
  A 0.68 0.67 -30.1 0 1 1307.21 298.03
  Q 1303.57 300.47 1304.01 305.24
  Q 1304.54 310.99 1304.47 312.47"
/>
<path stroke="#85909f" vector-effect="non-scaling-stroke" d="
  M 406.91 243.25
  L 396.67 315.72
  A 1.63 1.63 0.0 0 0 398.36 317.57
  L 416.27 316.73
  A 0.96 0.96 0.0 0 0 417.19 315.79
  Q 417.26 311.48 417.65 308.20
  Q 420.59 283.77 425.10 252.07
  Q 425.70 247.85 426.18 242.94
  A 0.90 0.90 0.0 0 1 427.16 242.12
  L 449.21 244.21
  A 1.43 1.43 0.0 0 0 450.75 242.99
  L 452.22 232.56
  A 1.31 1.30 -87.0 0 0 450.88 231.07
  Q 416.53 232.34 385.79 230.66
  A 1.62 1.61 -84.4 0 0 384.11 232.05
  L 382.61 242.63
  A 1.28 1.27 -89.8 0 0 384.04 244.07
  Q 396.27 242.48 406.33 242.57
  A 0.59 0.59 0.0 0 1 406.91 243.25"
/>
<path stroke="#85909f" vector-effect="non-scaling-stroke" d="
  M 536.41 293.10
  A 0.83 0.81 83.6 0 1 537.05 292.28
  C 545.49 290.42 553.35 288.14 560.73 283.92
  C 565.89 280.97 570.68 276.17 571.40 270.48
  C 572.74 259.97 564.92 254.71 555.57 254.34
  C 540.47 253.75 528.47 261.19 521.86 274.40
  Q 519.27 279.58 517.82 287.98
  C 514.97 304.47 523.10 318.47 541.00 318.68
  Q 554.78 318.84 566.06 309.45
  A 2.03 2.02 55.9 0 0 566.54 306.93
  L 564.99 304.07
  A 1.43 1.42 -32.9 0 0 562.87 303.62
  C 559.29 306.37 552.87 309.10 548.05 308.46
  C 539.96 307.37 536.64 300.82 536.41 293.10"
/>
<path stroke="#f8aaac" vector-effect="non-scaling-stroke" d="
  M 1273.7330 270.3261
  A 5.09 4.81 -175.9 0 0 1278.4661 275.4877
  A 5.09 4.81 -175.9 0 0 1283.8870 271.0539
  A 5.09 4.81 -175.9 0 0 1279.1539 265.8923
  A 5.09 4.81 -175.9 0 0 1273.7330 270.3261"
/>
<path stroke="#80ccea" vector-effect="non-scaling-stroke" d="
  M 794.60 328.28
  C 794.12 334.10 794.62 341.22 793.87 348.25
  Q 792.89 357.37 792.25 362.60
  C 784.99 421.88 777.67 487.62 773.72 527.50
  Q 773.30 531.69 773.29 534.53
  A 1.51 1.51 0.0 0 0 774.55 536.03
  Q 776.13 536.29 777.83 536.17
  Q 796.40 534.92 816.81 535.35
  Q 819.02 535.40 819.64 534.94
  Q 820.72 534.14 820.48 532.25
  Q 819.87 527.41 820.86 511.76
  Q 821.70 498.44 825.59 466.01
  C 828.97 437.96 833.24 403.57 837.80 371.30
  Q 840.22 354.12 843.74 326.14
  C 844.02 323.94 843.57 322.25 840.99 322.66
  Q 818.10 326.31 795.56 327.36
  A 1.01 1.00 1.0 0 0 794.60 328.28"
/>
<path stroke="#f8aaac" vector-effect="non-scaling-stroke" d="
  M 1188.20 436.85
  Q 1190.50 425.99 1192.14 413.43
  Q 1194.27 397.10 1197.72 374.00
  Q 1198.80 366.75 1204.18 325.67
  Q 1204.55 322.83 1201.87 323.18
  Q 1170.85 327.27 1161.47 327.60
  C 1158.39 327.71 1158.04 328.81 1158.20 331.53
  Q 1158.88 342.79 1157.65 356.76
  Q 1152.40 416.29 1145.32 480.18
  C 1143.46 497.05 1142.44 510.23 1140.44 526.50
  Q 1140.17 528.72 1142.33 529.72
  Q 1154.94 535.54 1168.96 538.56
  C 1176.57 540.20 1185.02 540.46 1193.25 540.26
  C 1239.38 539.12 1271.15 503.04 1276.36 459.02
  C 1278.20 443.42 1276.91 428.68 1270.88 414.67
  C 1267.31 406.36 1261.54 400.78 1253.89 396.97
  Q 1249.25 394.66 1242.51 394.60
  Q 1229.73 394.51 1219.54 399.74
  Q 1209.48 404.90 1202.82 413.05
  Q 1196.70 420.53 1193.43 426.19
  Q 1192.15 428.40 1189.35 435.83
  Q 1189.09 436.52 1188.52 437.03
  A 0.19 0.19 0.0 0 1 1188.20 436.85"
/>
<path stroke="#80ccea" vector-effect="non-scaling-stroke" d="
  M 212.65 361.52
  Q 211.73 374.70 210.98 381.50
  Q 201.89 464.40 194.97 534.20
  A 1.90 1.90 0.0 0 0 196.90 536.29
  L 244.83 535.24
  A 1.45 1.44 88.6 0 0 246.24 533.75
  C 245.91 520.48 247.19 504.64 248.57 490.83
  Q 254.38 432.72 262.09 361.35
  A 0.59 0.59 0.0 0 1 262.66 360.83
  Q 292.57 360.67 322.53 362.31
  A 1.58 1.58 0.0 0 0 324.18 360.95
  Q 325.49 351.61 328.34 332.66
  Q 328.71 330.12 326.23 330.25
  Q 293.37 331.97 279.68 332.53
  C 260.94 333.29 239.40 333.08 223.00 332.49
  Q 208.64 331.98 163.17 329.19
  Q 161.59 329.10 160.98 329.66
  Q 160.22 330.38 160.03 331.78
  Q 156.44 358.90 155.72 363.33
  A 1.50 1.49 1.0 0 0 157.39 365.05
  C 175.57 362.83 193.92 361.06 212.18 361.02
  A 0.47 0.46 2.2 0 1 212.65 361.52"
/>
<path stroke="#f8aaac" vector-effect="non-scaling-stroke" d="
  M 932.91 511.00
  Q 933.30 505.61 933.76 501.50
  Q 943.54 414.35 953.62 339.78
  Q 953.84 338.16 953.46 337.04
  A 1.72 1.72 0.0 0 0 951.71 335.87
  L 908.84 338.68
  A 1.98 1.98 0.0 0 0 906.99 340.61
  Q 906.69 356.15 904.62 372.28
  C 897.76 425.79 891.79 478.70 885.50 534.21
  A 1.45 1.45 0.0 0 0 886.97 535.83
  Q 935.35 535.11 984.26 536.82
  C 986.50 536.89 987.24 536.40 987.40 534.05
  Q 988.06 524.66 989.53 515.26
  Q 989.53 515.20 989.60 511.85
  A 1.71 1.70 88.5 0 0 987.78 510.12
  Q 982.05 510.52 973.24 511.42
  Q 952.85 513.49 933.52 511.72
  A 0.67 0.67 0.0 0 1 932.91 511.00"
/>
<path stroke="#80ccea" vector-effect="non-scaling-stroke" d="
  M 332.06 451.36
  A 0.46 0.46 0.0 0 1 331.71 450.83
  Q 335.60 431.23 337.11 413.73
  Q 338.09 402.26 338.37 397.81
  C 338.53 395.40 338.27 393.41 335.38 393.82
  Q 316.64 396.47 296.48 398.42
  A 2.05 2.04 84.9 0 0 294.64 400.63
  C 296.44 421.90 293.92 440.61 291.40 464.23
  Q 287.14 504.28 284.27 532.19
  C 283.99 534.86 284.15 536.53 287.26 536.36
  Q 308.43 535.19 327.60 535.12
  A 1.64 1.63 89.1 0 0 329.23 533.43
  C 328.69 515.76 331.22 498.70 334.62 481.63
  Q 337.89 465.27 344.98 450.28
  Q 349.51 440.71 357.75 433.99
  C 365.28 427.83 373.24 428.68 381.44 432.34
  A 1.35 1.35 0.0 0 0 383.30 431.46
  L 392.13 398.65
  A 2.28 2.27 -71.0 0 0 390.83 395.97
  C 378.31 390.65 363.38 397.51 355.07 406.98
  Q 352.95 409.40 347.67 416.76
  Q 343.28 422.88 341.22 427.19
  Q 335.47 439.21 332.67 451.00
  A 0.49 0.49 0.0 0 1 332.08 451.36
  L 332.06 451.36"
/>
<path stroke="#80ccea" vector-effect="non-scaling-stroke" d="
  M 464.91 486.71
  Q 465.47 486.70 465.38 487.27
  Q 463.05 501.60 463.37 515.80
  C 463.58 525.34 467.51 537.01 478.59 538.36
  C 483.79 539.00 489.72 537.02 494.53 535.01
  Q 502.86 531.54 510.77 526.21
  A 0.96 0.96 0.0 0 0 510.86 524.69
  Q 503.32 518.07 502.66 507.77
  Q 502.15 499.79 502.85 489.27
  C 504.54 463.85 507.83 438.49 510.41 413.45
  C 510.79 409.71 511.51 406.91 511.73 403.45
  A 1.83 1.82 -81.1 0 0 510.36 401.56
  C 496.32 398.03 482.23 394.91 467.51 394.35
  C 456.74 393.94 443.31 396.36 434.18 400.18
  C 403.13 413.17 383.01 443.18 377.36 476.08
  C 373.87 496.34 375.60 523.75 395.46 535.26
  C 405.68 541.17 418.96 539.19 429.41 533.85
  Q 437.82 529.56 444.54 521.73
  Q 457.61 506.50 464.53 486.96
  Q 464.62 486.71 464.91 486.71"
/>
<path stroke="#80ccea" vector-effect="non-scaling-stroke" d="
  M 689.71 479.09
  Q 712.69 473.67 732.88 463.09
  C 746.27 456.07 761.69 443.98 761.93 427.53
  C 762.32 400.27 736.61 392.80 714.61 394.89
  Q 694.82 396.77 680.12 407.30
  C 664.03 418.84 653.10 437.10 647.90 456.15
  C 643.97 470.52 642.66 484.61 645.66 498.83
  C 650.65 522.44 669.21 537.70 693.25 538.67
  Q 732.70 540.26 757.86 510.62
  A 1.04 1.04 0.0 0 0 757.97 509.42
  L 754.08 502.67
  A 0.83 0.83 0.0 0 0 752.91 502.39
  C 741.67 509.55 730.97 515.20 717.42 514.93
  C 703.29 514.65 694.55 505.32 691.20 492.35
  Q 688.92 483.51 688.98 479.98
  A 0.94 0.94 0.0 0 1 689.71 479.09"
/>
<path stroke="#f8aaac" vector-effect="non-scaling-stroke" d="
  M 1083.60 488.22
  A 0.36 0.36 0.0 0 1 1083.91 488.64
  Q 1081.42 503.25 1081.68 517.97
  C 1081.74 521.36 1082.41 525.12 1083.30 527.92
  C 1089.95 548.90 1117.27 535.67 1127.92 527.50
  A 1.45 1.44 -41.7 0 0 1128.05 525.32
  Q 1123.80 521.20 1122.41 515.38
  Q 1120.82 508.67 1120.82 504.77
  Q 1120.82 485.30 1122.63 465.77
  Q 1125.50 434.72 1129.63 403.85
  A 1.27 1.27 0.0 0 0 1128.73 402.46
  C 1110.31 397.08 1089.95 393.13 1072.18 395.42
  C 1047.42 398.63 1026.45 413.53 1012.92 434.32
  Q 994.30 462.92 995.23 497.25
  Q 995.56 509.37 1000.11 519.45
  Q 1005.40 531.18 1014.76 535.98
  C 1032.49 545.06 1053.25 534.47 1064.89 520.27
  C 1072.56 510.90 1079.33 499.93 1083.13 488.31
  A 0.20 0.19 12.7 0 1 1083.34 488.18
  L 1083.60 488.22"
/>
<path stroke="#80ccea" vector-effect="non-scaling-stroke" d="
  M 588.32 499.86
  Q 588.25 496.15 587.18 487.76
  Q 581.40 441.99 573.04 398.89
  Q 572.70 397.13 572.12 396.57
  Q 571.27 395.74 569.74 395.91
  Q 558.74 397.11 528.23 401.19
  A 1.34 1.34 0.0 0 0 527.07 402.55
  Q 527.12 404.36 527.54 406.20
  Q 541.67 467.63 554.54 533.99
  Q 555.02 536.49 557.74 536.33
  Q 579.08 535.11 593.69 535.15
  A 1.59 1.58 13.5 0 0 595.10 534.29
  Q 610.03 505.42 619.11 486.91
  Q 630.81 463.05 637.30 447.10
  C 643.02 433.04 649.21 418.21 650.76 402.05
  C 651.10 398.43 649.68 397.42 646.08 397.43
  Q 634.86 397.44 621.26 396.73
  A 1.01 1.01 0.0 0 0 620.20 397.72
  Q 619.92 417.93 614.83 437.34
  Q 608.50 461.45 598.11 481.91
  Q 589.09 499.68 588.90 500.01
  A 0.31 0.31 0.0 0 1 588.32 499.86"
/>
<path stroke="#85909f" vector-effect="non-scaling-stroke" d="
  M 1289.00 538.60
  Q 1290.31 538.60 1290.63 538.56
  A 0.55 0.55 0.0 0 0 1291.13 538.01
  L 1291.13 514.69
  A 0.62 0.62 0.0 0 1 1291.75 514.07
  L 1298.36 514.07
  A 1.18 1.18 0.0 0 0 1299.54 512.89
  L 1299.54 511.38
  A 1.08 1.07 -0.1 0 0 1298.46 510.31
  Q 1293.89 510.32 1288.99 510.31
  Q 1284.10 510.33 1279.53 510.31
  A 1.08 1.07 0.1 0 0 1278.45 511.39
  L 1278.45 512.90
  A 1.18 1.18 0.0 0 0 1279.63 514.08
  L 1286.24 514.07
  A 0.62 0.62 0.0 0 1 1286.86 514.69
  L 1286.88 538.01
  A 0.55 0.55 0.0 0 0 1287.37 538.56
  Q 1287.70 538.60 1289.00 538.60"
/>
<path stroke="#85909f" vector-effect="non-scaling-stroke" d="
  M 1309.66 517.24
  A 0.22 0.22 0.0 0 1 1310.09 517.16
  L 1317.64 536.87
  A 1.48 1.46 -85.4 0 0 1318.22 537.56
  Q 1319.32 538.23 1320.70 537.71
  A 1.55 1.53 1.2 0 0 1321.58 536.88
  Q 1326.33 526.02 1329.44 517.19
  Q 1329.55 516.85 1329.91 516.63
  A 0.18 0.18 0.0 0 1 1330.18 516.78
  L 1330.18 537.67
  A 0.90 0.89 -0.0 0 0 1331.08 538.56
  L 1333.48 538.56
  A 0.81 0.81 0.0 0 0 1334.29 537.75
  L 1334.29 510.84
  A 0.67 0.66 89.2 0 0 1333.61 510.17
  L 1329.49 510.25
  A 1.36 1.34 -79.2 0 0 1328.28 511.08
  L 1320.02 530.93
  A 0.37 0.37 0.0 0 1 1319.33 530.92
  L 1311.68 510.97
  A 1.05 1.05 0.0 0 0 1310.70 510.30
  L 1306.46 510.30
  A 0.68 0.68 0.0 0 0 1305.78 510.98
  L 1305.78 538.09
  A 0.53 0.52 90.0 0 0 1306.30 538.62
  L 1309.55 538.62
  A 0.57 0.56 89.5 0 0 1310.11 538.04
  L 1309.66 517.24"
/>
<path stroke="#85909f" vector-effect="non-scaling-stroke" d="
  M 762.00 642.00
  Q 761.80 644.01 761.10 648.25
  Q 760.13 654.08 761.15 660.65
  C 763.23 674.15 780.94 666.00 785.94 660.75
  A 1.07 1.07 0.0 0 0 786.13 659.56
  Q 785.88 659.01 784.71 657.86
  C 781.11 654.33 781.25 648.27 781.70 643.44
  Q 782.66 633.15 785.11 614.57
  Q 785.39 612.39 793.27 557.75
  C 793.70 554.79 791.96 554.49 789.52 554.81
  Q 780.33 556.02 770.72 556.85
  A 2.03 2.03 0.0 0 0 768.89 559.21
  Q 769.82 564.80 769.23 570.51
  Q 768.39 578.66 767.12 590.42
  A 0.42 0.42 0.0 0 1 766.56 590.77
  C 754.74 586.61 742.08 589.17 732.40 596.93
  C 718.76 607.85 711.92 624.91 712.21 642.25
  C 712.38 652.09 715.74 663.27 726.00 666.96
  C 736.75 670.82 747.20 665.49 753.46 656.46
  Q 758.12 649.73 761.26 641.82
  A 0.38 0.38 0.0 0 1 762.00 642.00"
/>
<path stroke="#85909f" vector-effect="non-scaling-stroke" d="
  M 450.79 665.63
  Q 451.01 665.78 451.52 665.81
  Q 457.86 666.21 467.73 666.48
  A 1.66 1.64 8.6 0 0 469.36 665.29
  Q 473.21 651.92 480.66 637.01
  A 1.51 1.50 -76.4 0 1 482.00 636.18
  L 517.88 636.18
  A 0.89 0.88 84.9 0 1 518.75 636.91
  L 523.96 664.72
  A 2.45 2.44 86.4 0 0 526.22 666.72
  Q 530.02 666.96 533.32 666.60
  Q 543.09 665.55 548.25 665.00
  A 1.36 1.35 79.6 0 0 549.42 663.30
  Q 547.03 654.17 543.08 637.19
  Q 526.97 568.04 525.67 562.57
  Q 525.01 559.78 522.23 559.94
  Q 512.60 560.51 502.36 562.06
  A 2.70 2.69 -81.3 0 0 500.33 563.56
  Q 495.34 573.95 488.09 587.81
  Q 465.16 631.68 452.22 659.47
  Q 451.21 661.62 450.33 664.13
  Q 449.99 665.08 450.79 665.63"
/>
<path stroke="#85909f" vector-effect="non-scaling-stroke" d="
  M 615.48 647.72
  A 0.93 0.92 -32.8 0 0 614.11 647.43
  C 604.30 654.83 587.84 660.23 583.72 643.50
  C 581.54 634.64 582.86 622.98 586.23 614.10
  C 588.41 608.37 594.11 597.68 601.70 599.91
  C 606.50 601.32 607.93 607.14 607.34 611.70
  A 1.69 1.69 0.0 0 0 609.47 613.55
  C 613.97 612.28 622.57 608.96 625.18 604.84
  A 2.22 2.21 62.7 0 0 625.52 603.77
  Q 625.77 597.30 621.15 593.75
  C 609.72 584.96 590.90 588.38 579.81 595.77
  C 565.56 605.28 558.54 623.70 559.17 641.06
  C 559.35 646.00 560.89 651.16 563.04 655.22
  C 568.03 664.66 578.70 668.69 589.26 668.28
  C 600.14 667.86 611.08 662.90 618.05 654.24
  A 1.38 1.37 -39.8 0 0 618.19 652.73
  L 615.48 647.72"
/>
<path stroke="#85909f" vector-effect="non-scaling-stroke" d="
  M 677.19 642.35
  Q 675.18 650.38 675.69 657.50
  C 676.91 674.44 693.87 667.77 701.14 660.91
  A 1.20 1.19 -46.7 0 0 701.09 659.13
  Q 697.46 656.05 697.09 651.08
  C 696.45 642.48 697.47 635.28 698.78 624.66
  Q 701.53 602.19 702.78 594.98
  Q 703.23 592.36 700.49 591.84
  Q 691.37 590.11 682.77 589.03
  Q 667.32 587.08 654.66 593.91
  C 637.50 603.17 628.03 624.42 628.45 643.79
  C 628.64 652.52 632.04 663.47 640.91 666.81
  C 651.33 670.72 660.14 666.18 666.80 658.29
  Q 673.00 650.93 676.21 641.73
  A 0.21 0.20 11.9 0 1 676.43 641.59
  L 676.71 641.63
  A 0.58 0.58 0.0 0 1 677.19 642.35"
/>
<path stroke="#85909f" vector-effect="non-scaling-stroke" d="
  M 821.11 634.85
  C 832.12 632.65 841.75 630.11 851.49 624.24
  C 859.64 619.33 864.71 611.54 862.42 601.68
  Q 861.09 595.97 855.27 592.58
  C 844.22 586.16 828.85 588.18 818.42 594.32
  Q 807.40 600.81 801.04 613.86
  C 794.92 626.44 793.57 643.94 800.85 655.87
  C 808.80 668.90 826.38 670.45 840.32 666.10
  Q 849.97 663.08 857.16 654.76
  A 2.10 2.10 0.0 0 0 857.41 652.39
  L 855.00 647.94
  A 0.98 0.97 56.9 0 0 853.54 647.63
  C 847.30 652.45 839.43 656.30 831.56 653.78
  C 824.08 651.38 820.23 643.21 820.45 635.63
  A 0.82 0.82 0.0 0 1 821.11 634.85"
/>
<path stroke="#85909f" vector-effect="non-scaling-stroke" d="
  M 896.25 612.97
  A 0.41 0.41 0.0 0 1 895.83 612.46
  Q 898.60 601.52 898.54 591.49
  Q 898.53 588.81 895.75 589.14
  Q 886.93 590.16 876.37 592.06
  A 1.73 1.73 0.0 0 0 874.98 594.08
  Q 875.75 598.25 875.82 602.50
  C 875.98 613.26 874.53 622.70 873.13 634.07
  Q 871.41 648.08 869.97 656.54
  Q 868.79 663.47 868.71 665.05
  A 1.51 1.51 0.0 0 0 870.29 666.63
  L 890.35 665.69
  A 1.21 1.20 -90.0 0 0 891.49 664.54
  Q 892.16 648.38 896.41 632.64
  Q 899.56 621.03 906.26 611.50
  Q 908.68 608.05 911.79 606.36
  C 918.52 602.69 919.76 611.11 919.23 615.51
  C 917.47 630.24 914.14 649.01 912.67 662.63
  Q 912.47 664.49 912.58 665.13
  A 1.69 1.69 0.0 0 0 914.33 666.55
  L 933.74 665.56
  A 1.46 1.46 0.0 0 0 935.13 664.12
  C 935.34 644.92 939.85 623.65 951.68 608.70
  C 953.87 605.93 959.33 603.00 961.10 607.88
  Q 962.09 610.60 961.54 615.03
  Q 959.92 628.23 956.83 645.00
  C 955.45 652.51 954.00 662.69 960.88 666.89
  C 967.06 670.65 977.27 665.85 982.45 661.39
  A 1.54 1.53 -42.9 0 0 982.54 659.15
  L 980.07 656.68
  A 1.02 0.97 -78.7 0 1 979.81 656.27
  Q 978.28 651.75 978.80 645.99
  Q 979.13 642.27 983.16 611.73
  C 984.22 603.67 984.48 594.99 976.61 590.67
  C 968.51 586.21 958.08 589.60 951.41 595.41
  C 945.64 600.44 943.01 605.36 939.92 611.88
  A 0.43 0.43 0.0 0 1 939.10 611.62
  C 940.83 602.33 940.63 593.91 931.43 589.87
  C 926.04 587.51 918.46 588.83 913.81 591.81
  Q 902.70 598.91 896.70 612.85
  A 0.20 0.20 0.0 0 1 896.54 612.96
  L 896.25 612.97"
/>
<path stroke="#85909f" vector-effect="non-scaling-stroke" d="
  M 1017.45 666.64
  Q 1010.58 675.39 1002.54 680.64
  Q 999.15 682.86 994.25 682.12
  C 992.21 681.81 990.90 681.04 989.00 680.17
  A 1.48 1.46 -40.7 0 0 987.99 680.10
  Q 985.30 680.89 984.46 682.71
  Q 982.03 687.98 981.27 690.35
  A 3.16 3.14 29.8 0 0 982.17 693.64
  Q 988.07 698.96 996.77 697.98
  C 1007.50 696.78 1015.70 690.09 1022.67 681.91
  Q 1042.20 658.99 1055.50 630.97
  C 1061.41 618.53 1065.87 606.09 1065.79 592.51
  A 2.06 2.05 9.9 0 0 1064.43 590.58
  C 1060.64 589.22 1056.01 589.70 1049.07 589.88
  A 2.29 2.29 0.0 0 0 1046.83 592.17
  C 1046.82 596.30 1046.93 599.89 1046.28 603.91
  C 1043.73 619.75 1037.56 633.86 1029.98 647.97
  A 0.50 0.49 56.3 0 1 1029.05 647.78
  Q 1028.06 638.30 1026.10 627.63
  Q 1022.84 609.88 1019.34 592.08
  A 3.54 3.53 -89.0 0 0 1016.68 589.32
  Q 1014.98 588.93 1012.37 589.36
  Q 1003.27 590.87 994.95 593.04
  A 1.78 1.77 -15.7 0 0 993.70 595.26
  Q 1000.52 618.44 1007.66 649.56
  Q 1008.96 655.26 1009.87 662.70
  Q 1010.11 664.64 1010.73 666.22
  A 1.11 1.09 79.7 0 0 1011.74 666.93
  Q 1014.23 666.97 1017.04 666.06
  A 0.37 0.37 0.0 0 1 1017.45 666.64"
/>
<path stroke="#85909f" vector-effect="non-scaling-stroke" d="
  M 676.37 761.04
  A 2.02 2.02 0.0 0 0 673.72 759.95
  C 660.44 765.55 646.88 758.39 648.43 742.95
  C 649.54 731.92 658.52 726.53 669.51 728.82
  Q 670.65 729.06 674.16 730.38
  A 1.76 1.76 0.0 0 0 676.53 728.89
  L 676.83 725.80
  A 2.52 2.52 0.0 0 0 675.19 723.20
  C 666.53 720.01 654.65 720.44 647.47 726.88
  C 639.95 733.62 638.16 742.51 640.09 752.21
  C 642.20 762.87 651.85 768.96 662.32 769.17
  Q 671.38 769.35 676.40 766.40
  A 2.35 2.35 0.0 0 0 677.38 763.47
  L 676.37 761.04"
/>
<path stroke="#85909f" vector-effect="non-scaling-stroke" d="
  M 795.89 760.62
  C 802.06 754.10 813.02 745.13 812.84 735.06
  C 812.64 723.98 801.75 720.01 792.49 722.22
  Q 790.57 722.67 786.08 724.16
  A 2.77 2.76 76.6 0 0 784.22 727.19
  L 784.65 730.09
  A 1.85 1.84 -19.3 0 0 787.40 731.41
  C 791.24 729.19 795.70 727.53 799.78 729.74
  C 805.76 732.99 803.73 740.41 800.42 744.45
  Q 794.02 752.27 785.02 760.16
  A 4.22 4.21 68.8 0 0 783.58 763.44
  L 783.64 766.47
  A 2.01 2.01 0.0 0 0 785.65 768.43
  L 811.39 768.43
  A 2.27 2.27 0.0 0 0 813.66 766.11
  L 813.59 763.04
  A 2.36 2.36 0.0 0 0 811.18 760.73
  L 796.09 761.06
  A 0.26 0.26 0.0 0 1 795.89 760.62"
/>
<path stroke="#85909f" vector-effect="non-scaling-stroke" d="
  M 718.17 750.61
  Q 718.36 737.93 718.25 724.78
  Q 718.23 722.32 715.74 722.33
  Q 710.04 722.36 709.48 722.42
  A 2.85 2.84 -75.7 0 0 707.40 723.66
  L 688.95 751.24
  A 2.49 2.46 -22.3 0 0 688.58 752.11
  C 688.27 753.56 688.39 755.64 688.38 757.52
  Q 688.37 759.39 690.32 759.40
  Q 707.37 759.47 708.15 759.45
  A 0.58 0.58 0.0 0 1 708.74 760.03
  L 708.74 766.30
  A 2.31 2.30 -90.0 0 0 711.04 768.61
  L 715.85 768.61
  A 2.33 2.33 0.0 0 0 718.18 766.28
  L 718.18 760.25
  A 0.75 0.75 0.0 0 1 718.93 759.50
  L 721.16 759.50
  A 2.28 2.28 0.0 0 0 723.44 757.22
  L 723.44 753.80
  A 2.26 2.26 0.0 0 0 721.18 751.54
  L 719.08 751.54
  A 0.91 0.91 0.0 0 1 718.17 750.61"
/>
<path stroke="#85909f" vector-effect="non-scaling-stroke" d="
  M 765.08 750.58
  Q 765.23 737.92 765.09 724.79
  Q 765.06 722.33 762.57 722.35
  Q 756.88 722.39 756.32 722.45
  A 2.85 2.84 -75.9 0 0 754.25 723.70
  L 735.90 751.29
  A 2.49 2.46 -22.4 0 0 735.53 752.15
  C 735.23 753.60 735.35 755.68 735.35 757.56
  Q 735.34 759.43 737.29 759.43
  Q 754.31 759.45 755.09 759.43
  A 0.58 0.58 0.0 0 1 755.68 760.01
  L 755.70 766.27
  A 2.31 2.30 89.8 0 0 758.00 768.57
  L 762.81 768.56
  A 2.33 2.33 0.0 0 0 765.13 766.23
  L 765.11 760.21
  A 0.75 0.75 0.0 0 1 765.86 759.45
  L 768.08 759.45
  A 2.28 2.28 0.0 0 0 770.36 757.17
  L 770.35 753.75
  A 2.26 2.26 0.0 0 0 768.08 751.50
  L 765.99 751.51
  A 0.91 0.91 0.0 0 1 765.08 750.58"
/>
<path stroke="#85909f" vector-effect="non-scaling-stroke" d="
  M 553.59 745.23
  A 0.44 0.43 -46.0 0 1 553.58 744.46
  Q 560.64 740.63 559.64 733.05
  C 558.10 721.34 542.41 723.12 533.49 723.56
  C 531.10 723.68 530.46 724.76 530.44 727.10
  Q 530.40 734.08 530.45 766.30
  A 1.66 1.65 1.7 0 0 532.01 767.95
  Q 541.58 768.49 548.93 767.87
  C 556.89 767.21 563.01 761.86 561.43 753.26
  Q 560.44 747.87 555.32 745.90
  Q 553.64 745.26 553.59 745.23"
/>
<path stroke="#85909f" vector-effect="non-scaling-stroke" d="
  M 606.25 725.25
  A 1.07 1.07 0.0 0 0 605.33 723.64
  L 600.69 723.64
  A 1.07 1.07 0.0 0 0 599.76 724.18
  L 589.59 741.80
  A 1.07 1.07 0.0 0 1 587.72 741.78
  L 578.20 724.20
  A 1.07 1.07 0.0 0 0 577.26 723.64
  L 571.43 723.64
  A 1.07 1.07 0.0 0 0 570.51 725.25
  L 584.53 749.52
  A 1.07 1.07 0.0 0 1 584.67 750.06
  L 584.67 766.98
  A 1.07 1.07 0.0 0 0 585.74 768.05
  L 591.25 768.05
  A 1.07 1.07 0.0 0 0 592.32 766.98
  L 592.32 749.66
  A 1.07 1.07 0.0 0 1 592.46 749.12
  L 606.25 725.25"
/>
<path stroke="#85909f" vector-effect="non-scaling-stroke" d="
  M 865.40 756.69
  Q 869.21 756.69 872.90 756.59
  A 1.07 1.06 78.6 0 1 873.92 757.28
  L 877.37 766.27
  A 3.04 3.04 0.0 0 0 880.21 768.22
  L 883.15 768.22
  A 1.48 1.47 -10.5 0 0 884.53 766.22
  L 869.63 727.36
  A 1.70 1.69 -9.3 0 0 868.11 726.28
  Q 866.72 726.22 865.41 726.22
  Q 864.10 726.22 862.70 726.27
  A 1.70 1.69 9.4 0 0 861.19 727.36
  L 846.26 766.20
  A 1.48 1.47 10.5 0 0 847.63 768.21
  L 850.57 768.21
  A 3.04 3.04 0.0 0 0 853.42 766.26
  L 856.87 757.27
  A 1.07 1.06 -78.6 0 1 857.90 756.59
  Q 861.58 756.69 865.40 756.69"
/>
<path stroke="#85909f" vector-effect="non-scaling-stroke" d="
  M 994.68 729.87
  A 2.21 2.19 -77.0 0 0 993.27 727.60
  Q 988.17 725.64 982.61 726.28
  C 977.82 726.82 973.11 730.07 971.80 734.55
  Q 969.18 743.50 977.54 748.03
  C 980.59 749.68 984.48 750.79 987.55 753.25
  C 990.23 755.41 990.18 759.34 987.94 761.66
  C 984.55 765.17 977.38 763.85 973.77 761.64
  A 1.60 1.60 0.0 0 0 971.39 762.59
  L 970.88 764.48
  A 2.67 2.67 0.0 0 0 972.70 767.74
  C 982.86 770.78 997.35 769.50 996.66 755.81
  C 996.29 748.55 989.09 746.04 983.30 743.22
  C 980.26 741.73 977.94 738.86 978.85 735.48
  C 980.41 729.66 988.73 731.42 992.52 733.23
  A 1.37 1.37 0.0 0 0 994.47 732.13
  L 994.68 729.87"
/>
<path stroke="#85909f" vector-effect="non-scaling-stroke" d="
  M 903.15 752.61
  C 911.78 753.39 921.85 750.86 921.93 740.17
  C 922.04 726.33 906.98 726.99 897.16 727.76
  A 1.79 1.79 0.0 0 0 895.51 729.54
  L 895.51 766.50
  A 1.62 1.62 0.0 0 0 897.13 768.12
  L 901.04 768.12
  A 1.60 1.59 90.0 0 0 902.63 766.52
  L 902.63 753.08
  A 0.47 0.47 0.0 0 1 903.15 752.61"
/>
<path stroke="#85909f" vector-effect="non-scaling-stroke" d="
  M 941.44 752.61
  C 948.99 753.79 959.77 751.06 960.77 742.05
  C 962.55 726.13 945.33 726.96 935.07 727.63
  A 1.56 1.55 -1.8 0 0 933.61 729.18
  L 933.61 766.71
  A 1.44 1.43 0.0 0 0 935.05 768.14
  L 939.11 768.14
  A 1.66 1.66 0.0 0 0 940.77 766.48
  L 940.77 753.18
  A 0.58 0.58 0.0 0 1 941.44 752.61"
/>
<path stroke="#cacdd1" vector-effect="non-scaling-stroke" d="
  M 495.08 745.47
  A 3.25 3.25 0.0 0 0 491.83 742.22
  L 284.21 742.22
  A 3.25 3.25 0.0 0 0 280.96 745.47
  L 280.96 746.57
  A 3.25 3.25 0.0 0 0 284.21 749.82
  L 491.83 749.82
  A 3.25 3.25 0.0 0 0 495.08 746.57
  L 495.08 745.47"
/>
<path stroke="#cacdd1" vector-effect="non-scaling-stroke" d="
  M 1244.72 745.44
  A 3.22 3.22 0.0 0 0 1241.50 742.22
  L 1035.98 742.22
  A 3.22 3.22 0.0 0 0 1032.76 745.44
  L 1032.76 746.58
  A 3.22 3.22 0.0 0 0 1035.98 749.80
  L 1241.50 749.80
  A 3.22 3.22 0.0 0 0 1244.72 746.58
  L 1244.72 745.44"
/>
<path stroke="#85909f" vector-effect="non-scaling-stroke" d="
  M 537.44 284.79
  Q 542.66 283.52 546.94 280.82
  C 551.86 277.72 555.51 272.05 554.18 266.17
  Q 553.54 263.40 551.78 262.39
  C 548.07 260.28 544.14 263.13 542.07 266.24
  C 538.61 271.41 537.08 278.01 536.91 284.36
  A 0.43 0.42 83.8 0 0 537.44 284.79"
/>
<path stroke="#f8aaac" vector-effect="non-scaling-stroke" d="
  M 1184.63 514.28
  C 1190.09 517.65 1196.81 519.07 1202.79 516.13
  Q 1208.54 513.30 1212.59 508.84
  C 1228.18 491.72 1235.13 467.50 1233.60 444.80
  C 1233.31 440.53 1230.64 429.68 1226.23 426.93
  C 1216.21 420.67 1204.11 439.23 1200.13 446.38
  Q 1189.92 464.74 1186.95 484.70
  Q 1184.89 498.52 1183.90 512.86
  A 1.54 1.53 18.0 0 0 1184.63 514.28"
/>
<path stroke="#80ccea" vector-effect="non-scaling-stroke" d="
  M 465.98 421.08
  C 454.58 415.68 443.42 420.88 435.93 430.18
  Q 431.85 435.25 430.39 438.22
  Q 418.16 463.17 419.52 491.03
  C 419.70 494.73 421.35 504.35 425.05 506.55
  C 433.33 511.49 443.21 496.47 446.47 490.75
  C 456.71 472.80 463.19 452.91 464.82 432.48
  Q 465.37 425.66 466.22 421.56
  A 0.43 0.42 -72.2 0 0 465.98 421.08"
/>
<path stroke="#80ccea" vector-effect="non-scaling-stroke" d="
  M 688.76 464.61
  C 705.40 457.32 725.91 445.93 722.91 424.02
  C 721.81 415.95 715.59 411.15 707.47 414.00
  C 700.54 416.43 695.88 425.21 693.29 432.51
  Q 687.76 448.12 688.40 464.38
  A 0.26 0.26 0.0 0 0 688.76 464.61"
/>
<path stroke="#f8aaac" vector-effect="non-scaling-stroke" d="
  M 1084.28 422.20
  A 0.40 0.39 -74.1 0 0 1084.07 421.82
  C 1077.80 418.41 1071.12 418.54 1064.72 422.11
  C 1054.05 428.05 1047.54 441.17 1043.72 452.20
  Q 1036.11 474.20 1038.29 495.63
  C 1039.04 503.03 1043.18 512.93 1052.55 506.28
  Q 1056.86 503.21 1059.11 500.10
  C 1071.36 483.24 1079.18 462.33 1081.97 441.73
  Q 1083.52 430.23 1084.28 422.20"
/>
<path stroke="#85909f" vector-effect="non-scaling-stroke" d="
  M 764.13 602.51
  C 755.83 596.30 747.26 603.07 743.15 610.48
  Q 735.63 624.07 735.96 640.28
  C 736.06 645.27 738.53 654.51 745.88 649.68
  Q 748.62 647.88 751.69 643.21
  C 759.91 630.73 763.49 617.87 764.61 603.57
  A 1.22 1.21 20.7 0 0 764.13 602.51"
/>
<path stroke="#85909f" vector-effect="non-scaling-stroke" d="
  M 506.91 582.52
  A 0.37 0.37 0.0 0 0 506.22 582.44
  L 486.99 622.88
  A 0.37 0.37 0.0 0 0 487.33 623.41
  L 515.57 623.41
  A 0.37 0.37 0.0 0 0 515.93 622.96
  L 506.91 582.52"
/>
<path stroke="#85909f" vector-effect="non-scaling-stroke" d="
  M 651.92 641.42
  C 652.15 645.32 652.92 652.28 658.71 650.67
  Q 660.96 650.05 663.24 647.24
  C 672.96 635.26 677.10 618.61 677.67 602.84
  A 1.06 1.05 -74.9 0 0 677.11 601.86
  C 666.04 595.93 658.60 608.36 655.67 616.64
  Q 651.20 629.27 651.92 641.42"
/>
<path stroke="#85909f" vector-effect="non-scaling-stroke" d="
  M 820.94 626.47
  Q 827.17 625.01 832.29 621.84
  C 838.17 618.20 842.57 611.50 841.04 604.49
  Q 840.31 601.18 838.22 599.97
  C 833.83 597.42 829.13 600.77 826.63 604.45
  C 822.47 610.57 820.58 618.41 820.32 625.96
  A 0.51 0.51 0.0 0 0 820.94 626.47"
/>
<path stroke="#85909f" vector-effect="non-scaling-stroke" d="
  M 708.89 733.37
  A 0.39 0.39 0.0 0 0 708.16 733.17
  L 697.69 751.30
  A 0.39 0.39 0.0 0 0 698.03 751.89
  L 708.50 751.89
  A 0.39 0.39 0.0 0 0 708.89 751.50
  L 708.89 733.37"
/>
<path stroke="#85909f" vector-effect="non-scaling-stroke" d="
  M 744.21 752.10
  L 755.06 751.86
  A 0.80 0.79 -0.7 0 0 755.84 751.07
  L 755.84 733.32
  A 0.19 0.19 0.0 0 0 755.59 733.14
  Q 755.25 733.27 755.06 733.57
  Q 752.03 738.57 743.85 751.47
  A 0.41 0.41 0.0 0 0 744.21 752.10"
/>
<path stroke="#85909f" vector-effect="non-scaling-stroke" d="
  M 537.53 728.88
  L 537.57 742.00
  A 0.48 0.48 0.0 0 0 538.05 742.47
  L 544.97 742.45
  A 7.44 6.29 -0.2 0 0 552.39 736.13
  L 552.39 734.63
  A 7.44 6.29 -0.2 0 0 544.93 728.37
  L 538.01 728.39
  A 0.48 0.48 0.0 0 0 537.53 728.88"
/>
<path stroke="#85909f" vector-effect="non-scaling-stroke" d="
  M 537.55 748.13
  L 537.51 762.11
  A 0.67 0.67 0.0 0 0 538.17 762.78
  L 545.31 762.81
  A 8.99 7.26 0.2 0 0 554.33 755.58
  L 554.33 754.78
  A 8.99 7.26 0.2 0 0 545.37 747.49
  L 538.23 747.46
  A 0.67 0.67 0.0 0 0 537.55 748.13"
/>
<path stroke="#85909f" vector-effect="non-scaling-stroke" d="
  M 858.59 751.25
  A 0.33 0.33 0.0 0 0 858.91 751.68
  L 871.38 751.55
  A 0.33 0.33 0.0 0 0 871.69 751.11
  L 865.27 733.57
  A 0.33 0.33 0.0 0 0 864.65 733.57
  L 858.59 751.25"
/>
<path stroke="#85909f" vector-effect="non-scaling-stroke" d="
  M 902.66 733.22
  L 902.58 746.82
  A 0.99 0.99 0.0 0 0 903.57 747.81
  L 907.07 747.83
  A 7.69 7.30 0.3 0 0 914.80 740.57
  L 914.80 739.59
  A 7.69 7.30 0.3 0 0 907.15 732.25
  L 903.65 732.23
  A 0.99 0.99 0.0 0 0 902.66 733.22"
/>
<path stroke="#85909f" vector-effect="non-scaling-stroke" d="
  M 940.77 732.95
  L 940.81 747.09
  A 0.72 0.72 0.0 0 0 941.54 747.81
  L 945.88 747.79
  A 7.64 7.39 -0.2 0 0 953.49 740.38
  L 953.49 739.58
  A 7.64 7.39 -0.2 0 0 945.82 732.21
  L 941.48 732.23
  A 0.72 0.72 0.0 0 0 940.77 732.95"
/>
</g>
<path fill="#ffffff" d="
  M 1537.00 0.00
  L 1537.00 1023.00
  L 0.00 1023.00
  L 0.00 0.00
  L 1537.00 0.00
  Z
  M 1099.16 205.47
  C 1097.13 206.40 1094.72 207.54 1092.61 208.96
  Q 1086.32 213.17 1078.10 217.82
  A 1.04 1.02 -48.2 0 1 1077.20 217.88
  L 1070.32 215.02
  A 0.99 0.98 41.4 0 0 1069.45 215.07
  L 1065.20 217.53
  A 1.02 1.02 0.0 0 0 1065.14 219.26
  L 1072.96 224.49
  A 1.58 1.56 -82.6 0 1 1073.58 225.31
  Q 1075.22 230.46 1076.13 233.85
  Q 1076.53 235.36 1077.87 236.24
  A 1.00 0.98 48.6 0 0 1078.84 236.31
  C 1082.75 234.43 1082.70 231.28 1083.23 227.52
  A 1.56 1.56 0.0 0 1 1084.16 226.32
  L 1109.77 215.66
  A 0.82 0.81 76.8 0 1 1110.89 216.36
  Q 1111.67 228.10 1113.83 238.96
  A 0.77 0.77 0.0 0 0 1114.76 239.56
  Q 1118.25 238.77 1120.75 237.00
  A 1.93 1.91 -12.4 0 0 1121.51 235.83
  L 1127.21 208.13
  A 2.71 2.70 83.1 0 1 1128.69 206.23
  Q 1132.52 204.35 1148.46 196.16
  C 1153.60 193.51 1155.85 193.03 1157.93 188.39
  C 1160.97 181.61 1152.92 180.87 1148.61 181.57
  A 5.90 5.68 26.8 0 0 1147.12 182.03
  L 1119.93 194.62
  A 5.06 5.00 -49.5 0 1 1116.50 194.91
  L 1082.74 185.83
  A 1.84 1.82 37.9 0 0 1081.39 185.99
  L 1076.48 188.65
  A 0.94 0.94 0.0 0 0 1076.42 190.27
  L 1099.22 204.73
  A 0.42 0.42 0.0 0 1 1099.16 205.47
  Z
  M 1046.46 220.16
  Q 1042.21 220.29 1038.00 220.71
  Q 1000.06 224.53 996.98 224.91
  C 979.02 227.14 963.22 228.36 947.39 230.74
  Q 922.95 234.42 906.77 237.11
  Q 877.65 241.96 850.43 247.89
  C 844.32 249.22 838.10 250.14 832.25 251.59
  Q 816.32 255.55 788.81 261.86
  C 773.64 265.34 754.97 270.01 743.79 273.36
  C 735.31 275.91 727.70 277.64 718.22 280.49
  Q 699.92 286.00 681.23 291.69
  Q 675.73 293.36 675.36 293.49
  Q 653.51 300.74 631.93 307.53
  Q 623.92 310.05 621.14 311.14
  C 611.59 314.85 603.67 316.80 594.33 320.58
  Q 586.93 323.56 576.18 327.11
  C 572.62 328.28 568.87 330.22 565.01 331.33
  Q 561.90 332.22 556.70 334.61
  C 553.23 336.21 549.09 337.15 545.41 338.84
  C 537.86 342.30 530.12 344.02 523.25 347.27
  Q 521.95 347.88 513.66 350.85
  Q 510.02 352.16 504.15 354.56
  Q 476.51 365.88 453.87 373.93
  A 0.82 0.82 0.0 0 0 454.18 375.52
  L 498.58 373.44
  A 6.53 6.46 33.2 0 0 500.46 373.06
  C 506.44 370.90 511.89 367.82 518.54 365.13
  Q 520.22 364.45 530.90 359.95
  Q 552.16 351.01 589.99 336.98
  C 612.69 328.55 634.81 320.10 656.70 312.61
  C 673.88 306.73 692.64 300.10 710.82 294.50
  C 724.98 290.15 740.76 284.98 756.24 280.64
  Q 763.25 278.67 797.17 269.17
  Q 807.03 266.41 833.58 260.30
  Q 842.64 258.22 849.31 256.41
  C 859.96 253.53 868.49 251.87 880.84 249.15
  Q 915.16 241.57 922.83 240.14
  Q 955.31 234.10 969.26 231.82
  Q 999.61 226.85 1022.99 223.60
  Q 1034.74 221.96 1046.43 220.42
  A 0.18 0.11 3.6 0 0 1046.56 220.35
  Q 1046.57 220.32 1046.62 220.30
  A 0.14 0.07 15.6 0 0 1046.46 220.16
  Z
  M 472.64 274.63
  A 0.48 0.48 0.0 0 1 472.27 274.05
  Q 477.74 249.70 480.46 231.30
  Q 480.89 228.44 480.75 225.37
  A 1.70 1.70 0.0 0 0 478.80 223.76
  L 462.50 226.20
  A 1.28 1.28 0.0 0 0 461.41 227.62
  Q 462.28 234.71 461.25 241.25
  Q 456.34 272.70 449.58 315.75
  A 1.54 1.53 -86.9 0 0 451.17 317.52
  L 466.72 316.80
  A 1.18 1.17 1.1 0 0 467.84 315.73
  C 469.16 301.70 470.98 289.22 478.28 276.78
  Q 480.49 273.01 484.04 269.79
  C 488.63 265.64 494.00 266.47 492.80 274.01
  Q 491.48 282.34 488.70 296.43
  C 487.63 301.86 486.50 308.42 487.76 313.24
  C 490.45 323.55 504.09 316.69 508.95 312.97
  A 1.04 1.04 0.0 0 0 509.03 311.38
  Q 505.75 308.39 505.89 303.47
  C 506.06 297.42 507.78 291.11 508.75 285.35
  Q 510.89 272.63 510.89 272.56
  C 511.94 263.67 510.70 254.60 499.47 254.34
  Q 494.71 254.23 491.10 255.87
  Q 478.96 261.39 473.05 274.60
  A 0.15 0.15 0.0 0 1 472.89 274.68
  L 472.64 274.63
  Z
  M 1304.47 312.47
  A 0.35 0.35 0.0 0 1 1303.80 312.58
  Q 1300.67 304.43 1295.23 299.40
  C 1291.31 295.77 1285.48 289.50 1279.81 289.27
  Q 1272.67 288.99 1270.40 288.39
  Q 1258.92 285.37 1255.88 274.43
  A 2.62 2.61 75.0 0 0 1252.71 272.59
  C 1243.34 275.01 1242.07 287.17 1243.87 295.02
  Q 1246.57 306.81 1250.33 314.01
  Q 1255.74 324.36 1257.96 327.81
  Q 1259.90 330.82 1270.17 344.81
  Q 1273.93 349.93 1275.52 352.45
  C 1278.97 357.91 1282.22 362.17 1285.93 368.66
  C 1290.75 377.09 1294.63 384.17 1297.81 393.42
  Q 1308.25 423.76 1295.48 452.61
  C 1293.22 457.74 1290.88 461.11 1287.62 465.75
  A 1.02 1.02 0.0 0 0 1287.73 467.06
  L 1292.84 472.18
  A 1.08 1.08 0.0 0 0 1294.31 472.23
  C 1303.49 464.33 1309.79 451.53 1312.36 440.17
  Q 1314.76 429.52 1314.80 423.98
  C 1315.00 401.12 1307.76 381.66 1296.49 362.01
  Q 1293.24 356.34 1274.07 330.14
  Q 1267.91 321.72 1265.43 317.99
  Q 1264.01 315.86 1258.61 304.16
  C 1256.87 300.38 1255.94 296.53 1255.39 293.15
  A 0.53 0.52 -75.5 0 1 1256.23 292.65
  Q 1260.90 296.35 1266.90 298.23
  C 1270.82 299.46 1276.05 299.89 1279.77 301.38
  Q 1285.39 303.62 1289.76 310.71
  Q 1297.84 323.83 1298.32 339.06
  A 1.22 1.21 -6.3 0 0 1299.76 340.21
  C 1311.83 337.94 1318.40 326.80 1320.46 315.41
  C 1322.21 305.76 1320.86 296.83 1315.81 289.01
  C 1312.75 284.28 1309.13 280.44 1305.16 276.35
  A 1.33 1.31 -65.5 0 1 1304.80 275.37
  C 1305.42 264.98 1303.70 254.49 1297.72 246.57
  Q 1292.90 240.17 1290.36 238.18
  Q 1277.81 228.31 1262.26 228.17
  C 1239.00 227.96 1220.00 243.85 1213.48 265.72
  C 1209.63 278.63 1210.01 290.75 1213.37 304.11
  Q 1213.57 304.91 1216.91 314.34
  Q 1218.50 318.82 1221.25 324.24
  Q 1223.59 328.87 1228.33 338.93
  C 1232.79 348.42 1235.48 359.96 1235.13 370.67
  Q 1235.02 374.14 1234.46 382.32
  A 1.44 1.43 87.7 0 0 1236.10 383.84
  L 1247.33 382.16
  A 1.81 1.80 86.3 0 0 1248.87 380.39
  Q 1249.00 365.00 1245.11 350.06
  C 1243.96 345.61 1241.93 341.35 1240.53 337.32
  Q 1239.34 333.90 1236.38 328.10
  C 1231.27 318.06 1226.25 307.76 1224.01 295.90
  C 1222.10 285.82 1223.19 275.64 1226.42 266.44
  C 1230.31 255.40 1239.45 245.52 1250.87 242.30
  C 1260.54 239.57 1269.70 239.58 1278.49 244.93
  C 1283.29 247.86 1287.36 250.89 1289.89 256.07
  Q 1295.31 267.16 1292.24 277.72
  A 3.17 3.16 -62.5 0 0 1293.29 281.07
  Q 1299.00 285.67 1302.73 289.51
  Q 1304.84 291.67 1307.44 297.18
  A 0.68 0.67 -30.1 0 1 1307.21 298.03
  Q 1303.57 300.47 1304.01 305.24
  Q 1304.54 310.99 1304.47 312.47
  Z
  M 406.91 243.25
  L 396.67 315.72
  A 1.63 1.63 0.0 0 0 398.36 317.57
  L 416.27 316.73
  A 0.96 0.96 0.0 0 0 417.19 315.79
  Q 417.26 311.48 417.65 308.20
  Q 420.59 283.77 425.10 252.07
  Q 425.70 247.85 426.18 242.94
  A 0.90 0.90 0.0 0 1 427.16 242.12
  L 449.21 244.21
  A 1.43 1.43 0.0 0 0 450.75 242.99
  L 452.22 232.56
  A 1.31 1.30 -87.0 0 0 450.88 231.07
  Q 416.53 232.34 385.79 230.66
  A 1.62 1.61 -84.4 0 0 384.11 232.05
  L 382.61 242.63
  A 1.28 1.27 -89.8 0 0 384.04 244.07
  Q 396.27 242.48 406.33 242.57
  A 0.59 0.59 0.0 0 1 406.91 243.25
  Z
  M 536.41 293.10
  A 0.83 0.81 83.6 0 1 537.05 292.28
  C 545.49 290.42 553.35 288.14 560.73 283.92
  C 565.89 280.97 570.68 276.17 571.40 270.48
  C 572.74 259.97 564.92 254.71 555.57 254.34
  C 540.47 253.75 528.47 261.19 521.86 274.40
  Q 519.27 279.58 517.82 287.98
  C 514.97 304.47 523.10 318.47 541.00 318.68
  Q 554.78 318.84 566.06 309.45
  A 2.03 2.02 55.9 0 0 566.54 306.93
  L 564.99 304.07
  A 1.43 1.42 -32.9 0 0 562.87 303.62
  C 559.29 306.37 552.87 309.10 548.05 308.46
  C 539.96 307.37 536.64 300.82 536.41 293.10
  Z
  M 1273.7330 270.3261
  A 5.09 4.81 -175.9 0 0 1278.4661 275.4877
  A 5.09 4.81 -175.9 0 0 1283.8870 271.0539
  A 5.09 4.81 -175.9 0 0 1279.1539 265.8923
  A 5.09 4.81 -175.9 0 0 1273.7330 270.3261
  Z
  M 794.60 328.28
  C 794.12 334.10 794.62 341.22 793.87 348.25
  Q 792.89 357.37 792.25 362.60
  C 784.99 421.88 777.67 487.62 773.72 527.50
  Q 773.30 531.69 773.29 534.53
  A 1.51 1.51 0.0 0 0 774.55 536.03
  Q 776.13 536.29 777.83 536.17
  Q 796.40 534.92 816.81 535.35
  Q 819.02 535.40 819.64 534.94
  Q 820.72 534.14 820.48 532.25
  Q 819.87 527.41 820.86 511.76
  Q 821.70 498.44 825.59 466.01
  C 828.97 437.96 833.24 403.57 837.80 371.30
  Q 840.22 354.12 843.74 326.14
  C 844.02 323.94 843.57 322.25 840.99 322.66
  Q 818.10 326.31 795.56 327.36
  A 1.01 1.00 1.0 0 0 794.60 328.28
  Z
  M 1188.20 436.85
  Q 1190.50 425.99 1192.14 413.43
  Q 1194.27 397.10 1197.72 374.00
  Q 1198.80 366.75 1204.18 325.67
  Q 1204.55 322.83 1201.87 323.18
  Q 1170.85 327.27 1161.47 327.60
  C 1158.39 327.71 1158.04 328.81 1158.20 331.53
  Q 1158.88 342.79 1157.65 356.76
  Q 1152.40 416.29 1145.32 480.18
  C 1143.46 497.05 1142.44 510.23 1140.44 526.50
  Q 1140.17 528.72 1142.33 529.72
  Q 1154.94 535.54 1168.96 538.56
  C 1176.57 540.20 1185.02 540.46 1193.25 540.26
  C 1239.38 539.12 1271.15 503.04 1276.36 459.02
  C 1278.20 443.42 1276.91 428.68 1270.88 414.67
  C 1267.31 406.36 1261.54 400.78 1253.89 396.97
  Q 1249.25 394.66 1242.51 394.60
  Q 1229.73 394.51 1219.54 399.74
  Q 1209.48 404.90 1202.82 413.05
  Q 1196.70 420.53 1193.43 426.19
  Q 1192.15 428.40 1189.35 435.83
  Q 1189.09 436.52 1188.52 437.03
  A 0.19 0.19 0.0 0 1 1188.20 436.85
  Z
  M 212.65 361.52
  Q 211.73 374.70 210.98 381.50
  Q 201.89 464.40 194.97 534.20
  A 1.90 1.90 0.0 0 0 196.90 536.29
  L 244.83 535.24
  A 1.45 1.44 88.6 0 0 246.24 533.75
  C 245.91 520.48 247.19 504.64 248.57 490.83
  Q 254.38 432.72 262.09 361.35
  A 0.59 0.59 0.0 0 1 262.66 360.83
  Q 292.57 360.67 322.53 362.31
  A 1.58 1.58 0.0 0 0 324.18 360.95
  Q 325.49 351.61 328.34 332.66
  Q 328.71 330.12 326.23 330.25
  Q 293.37 331.97 279.68 332.53
  C 260.94 333.29 239.40 333.08 223.00 332.49
  Q 208.64 331.98 163.17 329.19
  Q 161.59 329.10 160.98 329.66
  Q 160.22 330.38 160.03 331.78
  Q 156.44 358.90 155.72 363.33
  A 1.50 1.49 1.0 0 0 157.39 365.05
  C 175.57 362.83 193.92 361.06 212.18 361.02
  A 0.47 0.46 2.2 0 1 212.65 361.52
  Z
  M 932.91 511.00
  Q 933.30 505.61 933.76 501.50
  Q 943.54 414.35 953.62 339.78
  Q 953.84 338.16 953.46 337.04
  A 1.72 1.72 0.0 0 0 951.71 335.87
  L 908.84 338.68
  A 1.98 1.98 0.0 0 0 906.99 340.61
  Q 906.69 356.15 904.62 372.28
  C 897.76 425.79 891.79 478.70 885.50 534.21
  A 1.45 1.45 0.0 0 0 886.97 535.83
  Q 935.35 535.11 984.26 536.82
  C 986.50 536.89 987.24 536.40 987.40 534.05
  Q 988.06 524.66 989.53 515.26
  Q 989.53 515.20 989.60 511.85
  A 1.71 1.70 88.5 0 0 987.78 510.12
  Q 982.05 510.52 973.24 511.42
  Q 952.85 513.49 933.52 511.72
  A 0.67 0.67 0.0 0 1 932.91 511.00
  Z
  M 332.06 451.36
  A 0.46 0.46 0.0 0 1 331.71 450.83
  Q 335.60 431.23 337.11 413.73
  Q 338.09 402.26 338.37 397.81
  C 338.53 395.40 338.27 393.41 335.38 393.82
  Q 316.64 396.47 296.48 398.42
  A 2.05 2.04 84.9 0 0 294.64 400.63
  C 296.44 421.90 293.92 440.61 291.40 464.23
  Q 287.14 504.28 284.27 532.19
  C 283.99 534.86 284.15 536.53 287.26 536.36
  Q 308.43 535.19 327.60 535.12
  A 1.64 1.63 89.1 0 0 329.23 533.43
  C 328.69 515.76 331.22 498.70 334.62 481.63
  Q 337.89 465.27 344.98 450.28
  Q 349.51 440.71 357.75 433.99
  C 365.28 427.83 373.24 428.68 381.44 432.34
  A 1.35 1.35 0.0 0 0 383.30 431.46
  L 392.13 398.65
  A 2.28 2.27 -71.0 0 0 390.83 395.97
  C 378.31 390.65 363.38 397.51 355.07 406.98
  Q 352.95 409.40 347.67 416.76
  Q 343.28 422.88 341.22 427.19
  Q 335.47 439.21 332.67 451.00
  A 0.49 0.49 0.0 0 1 332.08 451.36
  L 332.06 451.36
  Z
  M 464.91 486.71
  Q 465.47 486.70 465.38 487.27
  Q 463.05 501.60 463.37 515.80
  C 463.58 525.34 467.51 537.01 478.59 538.36
  C 483.79 539.00 489.72 537.02 494.53 535.01
  Q 502.86 531.54 510.77 526.21
  A 0.96 0.96 0.0 0 0 510.86 524.69
  Q 503.32 518.07 502.66 507.77
  Q 502.15 499.79 502.85 489.27
  C 504.54 463.85 507.83 438.49 510.41 413.45
  C 510.79 409.71 511.51 406.91 511.73 403.45
  A 1.83 1.82 -81.1 0 0 510.36 401.56
  C 496.32 398.03 482.23 394.91 467.51 394.35
  C 456.74 393.94 443.31 396.36 434.18 400.18
  C 403.13 413.17 383.01 443.18 377.36 476.08
  C 373.87 496.34 375.60 523.75 395.46 535.26
  C 405.68 541.17 418.96 539.19 429.41 533.85
  Q 437.82 529.56 444.54 521.73
  Q 457.61 506.50 464.53 486.96
  Q 464.62 486.71 464.91 486.71
  Z
  M 689.71 479.09
  Q 712.69 473.67 732.88 463.09
  C 746.27 456.07 761.69 443.98 761.93 427.53
  C 762.32 400.27 736.61 392.80 714.61 394.89
  Q 694.82 396.77 680.12 407.30
  C 664.03 418.84 653.10 437.10 647.90 456.15
  C 643.97 470.52 642.66 484.61 645.66 498.83
  C 650.65 522.44 669.21 537.70 693.25 538.67
  Q 732.70 540.26 757.86 510.62
  A 1.04 1.04 0.0 0 0 757.97 509.42
  L 754.08 502.67
  A 0.83 0.83 0.0 0 0 752.91 502.39
  C 741.67 509.55 730.97 515.20 717.42 514.93
  C 703.29 514.65 694.55 505.32 691.20 492.35
  Q 688.92 483.51 688.98 479.98
  A 0.94 0.94 0.0 0 1 689.71 479.09
  Z
  M 1083.60 488.22
  A 0.36 0.36 0.0 0 1 1083.91 488.64
  Q 1081.42 503.25 1081.68 517.97
  C 1081.74 521.36 1082.41 525.12 1083.30 527.92
  C 1089.95 548.90 1117.27 535.67 1127.92 527.50
  A 1.45 1.44 -41.7 0 0 1128.05 525.32
  Q 1123.80 521.20 1122.41 515.38
  Q 1120.82 508.67 1120.82 504.77
  Q 1120.82 485.30 1122.63 465.77
  Q 1125.50 434.72 1129.63 403.85
  A 1.27 1.27 0.0 0 0 1128.73 402.46
  C 1110.31 397.08 1089.95 393.13 1072.18 395.42
  C 1047.42 398.63 1026.45 413.53 1012.92 434.32
  Q 994.30 462.92 995.23 497.25
  Q 995.56 509.37 1000.11 519.45
  Q 1005.40 531.18 1014.76 535.98
  C 1032.49 545.06 1053.25 534.47 1064.89 520.27
  C 1072.56 510.90 1079.33 499.93 1083.13 488.31
  A 0.20 0.19 12.7 0 1 1083.34 488.18
  L 1083.60 488.22
  Z
  M 588.32 499.86
  Q 588.25 496.15 587.18 487.76
  Q 581.40 441.99 573.04 398.89
  Q 572.70 397.13 572.12 396.57
  Q 571.27 395.74 569.74 395.91
  Q 558.74 397.11 528.23 401.19
  A 1.34 1.34 0.0 0 0 527.07 402.55
  Q 527.12 404.36 527.54 406.20
  Q 541.67 467.63 554.54 533.99
  Q 555.02 536.49 557.74 536.33
  Q 579.08 535.11 593.69 535.15
  A 1.59 1.58 13.5 0 0 595.10 534.29
  Q 610.03 505.42 619.11 486.91
  Q 630.81 463.05 637.30 447.10
  C 643.02 433.04 649.21 418.21 650.76 402.05
  C 651.10 398.43 649.68 397.42 646.08 397.43
  Q 634.86 397.44 621.26 396.73
  A 1.01 1.01 0.0 0 0 620.20 397.72
  Q 619.92 417.93 614.83 437.34
  Q 608.50 461.45 598.11 481.91
  Q 589.09 499.68 588.90 500.01
  A 0.31 0.31 0.0 0 1 588.32 499.86
  Z
  M 1289.00 538.60
  Q 1290.31 538.60 1290.63 538.56
  A 0.55 0.55 0.0 0 0 1291.13 538.01
  L 1291.13 514.69
  A 0.62 0.62 0.0 0 1 1291.75 514.07
  L 1298.36 514.07
  A 1.18 1.18 0.0 0 0 1299.54 512.89
  L 1299.54 511.38
  A 1.08 1.07 -0.1 0 0 1298.46 510.31
  Q 1293.89 510.32 1288.99 510.31
  Q 1284.10 510.33 1279.53 510.31
  A 1.08 1.07 0.1 0 0 1278.45 511.39
  L 1278.45 512.90
  A 1.18 1.18 0.0 0 0 1279.63 514.08
  L 1286.24 514.07
  A 0.62 0.62 0.0 0 1 1286.86 514.69
  L 1286.88 538.01
  A 0.55 0.55 0.0 0 0 1287.37 538.56
  Q 1287.70 538.60 1289.00 538.60
  Z
  M 1309.66 517.24
  A 0.22 0.22 0.0 0 1 1310.09 517.16
  L 1317.64 536.87
  A 1.48 1.46 -85.4 0 0 1318.22 537.56
  Q 1319.32 538.23 1320.70 537.71
  A 1.55 1.53 1.2 0 0 1321.58 536.88
  Q 1326.33 526.02 1329.44 517.19
  Q 1329.55 516.85 1329.91 516.63
  A 0.18 0.18 0.0 0 1 1330.18 516.78
  L 1330.18 537.67
  A 0.90 0.89 -0.0 0 0 1331.08 538.56
  L 1333.48 538.56
  A 0.81 0.81 0.0 0 0 1334.29 537.75
  L 1334.29 510.84
  A 0.67 0.66 89.2 0 0 1333.61 510.17
  L 1329.49 510.25
  A 1.36 1.34 -79.2 0 0 1328.28 511.08
  L 1320.02 530.93
  A 0.37 0.37 0.0 0 1 1319.33 530.92
  L 1311.68 510.97
  A 1.05 1.05 0.0 0 0 1310.70 510.30
  L 1306.46 510.30
  A 0.68 0.68 0.0 0 0 1305.78 510.98
  L 1305.78 538.09
  A 0.53 0.52 90.0 0 0 1306.30 538.62
  L 1309.55 538.62
  A 0.57 0.56 89.5 0 0 1310.11 538.04
  L 1309.66 517.24
  Z
  M 762.00 642.00
  Q 761.80 644.01 761.10 648.25
  Q 760.13 654.08 761.15 660.65
  C 763.23 674.15 780.94 666.00 785.94 660.75
  A 1.07 1.07 0.0 0 0 786.13 659.56
  Q 785.88 659.01 784.71 657.86
  C 781.11 654.33 781.25 648.27 781.70 643.44
  Q 782.66 633.15 785.11 614.57
  Q 785.39 612.39 793.27 557.75
  C 793.70 554.79 791.96 554.49 789.52 554.81
  Q 780.33 556.02 770.72 556.85
  A 2.03 2.03 0.0 0 0 768.89 559.21
  Q 769.82 564.80 769.23 570.51
  Q 768.39 578.66 767.12 590.42
  A 0.42 0.42 0.0 0 1 766.56 590.77
  C 754.74 586.61 742.08 589.17 732.40 596.93
  C 718.76 607.85 711.92 624.91 712.21 642.25
  C 712.38 652.09 715.74 663.27 726.00 666.96
  C 736.75 670.82 747.20 665.49 753.46 656.46
  Q 758.12 649.73 761.26 641.82
  A 0.38 0.38 0.0 0 1 762.00 642.00
  Z
  M 450.79 665.63
  Q 451.01 665.78 451.52 665.81
  Q 457.86 666.21 467.73 666.48
  A 1.66 1.64 8.6 0 0 469.36 665.29
  Q 473.21 651.92 480.66 637.01
  A 1.51 1.50 -76.4 0 1 482.00 636.18
  L 517.88 636.18
  A 0.89 0.88 84.9 0 1 518.75 636.91
  L 523.96 664.72
  A 2.45 2.44 86.4 0 0 526.22 666.72
  Q 530.02 666.96 533.32 666.60
  Q 543.09 665.55 548.25 665.00
  A 1.36 1.35 79.6 0 0 549.42 663.30
  Q 547.03 654.17 543.08 637.19
  Q 526.97 568.04 525.67 562.57
  Q 525.01 559.78 522.23 559.94
  Q 512.60 560.51 502.36 562.06
  A 2.70 2.69 -81.3 0 0 500.33 563.56
  Q 495.34 573.95 488.09 587.81
  Q 465.16 631.68 452.22 659.47
  Q 451.21 661.62 450.33 664.13
  Q 449.99 665.08 450.79 665.63
  Z
  M 615.48 647.72
  A 0.93 0.92 -32.8 0 0 614.11 647.43
  C 604.30 654.83 587.84 660.23 583.72 643.50
  C 581.54 634.64 582.86 622.98 586.23 614.10
  C 588.41 608.37 594.11 597.68 601.70 599.91
  C 606.50 601.32 607.93 607.14 607.34 611.70
  A 1.69 1.69 0.0 0 0 609.47 613.55
  C 613.97 612.28 622.57 608.96 625.18 604.84
  A 2.22 2.21 62.7 0 0 625.52 603.77
  Q 625.77 597.30 621.15 593.75
  C 609.72 584.96 590.90 588.38 579.81 595.77
  C 565.56 605.28 558.54 623.70 559.17 641.06
  C 559.35 646.00 560.89 651.16 563.04 655.22
  C 568.03 664.66 578.70 668.69 589.26 668.28
  C 600.14 667.86 611.08 662.90 618.05 654.24
  A 1.38 1.37 -39.8 0 0 618.19 652.73
  L 615.48 647.72
  Z
  M 677.19 642.35
  Q 675.18 650.38 675.69 657.50
  C 676.91 674.44 693.87 667.77 701.14 660.91
  A 1.20 1.19 -46.7 0 0 701.09 659.13
  Q 697.46 656.05 697.09 651.08
  C 696.45 642.48 697.47 635.28 698.78 624.66
  Q 701.53 602.19 702.78 594.98
  Q 703.23 592.36 700.49 591.84
  Q 691.37 590.11 682.77 589.03
  Q 667.32 587.08 654.66 593.91
  C 637.50 603.17 628.03 624.42 628.45 643.79
  C 628.64 652.52 632.04 663.47 640.91 666.81
  C 651.33 670.72 660.14 666.18 666.80 658.29
  Q 673.00 650.93 676.21 641.73
  A 0.21 0.20 11.9 0 1 676.43 641.59
  L 676.71 641.63
  A 0.58 0.58 0.0 0 1 677.19 642.35
  Z
  M 821.11 634.85
  C 832.12 632.65 841.75 630.11 851.49 624.24
  C 859.64 619.33 864.71 611.54 862.42 601.68
  Q 861.09 595.97 855.27 592.58
  C 844.22 586.16 828.85 588.18 818.42 594.32
  Q 807.40 600.81 801.04 613.86
  C 794.92 626.44 793.57 643.94 800.85 655.87
  C 808.80 668.90 826.38 670.45 840.32 666.10
  Q 849.97 663.08 857.16 654.76
  A 2.10 2.10 0.0 0 0 857.41 652.39
  L 855.00 647.94
  A 0.98 0.97 56.9 0 0 853.54 647.63
  C 847.30 652.45 839.43 656.30 831.56 653.78
  C 824.08 651.38 820.23 643.21 820.45 635.63
  A 0.82 0.82 0.0 0 1 821.11 634.85
  Z
  M 896.25 612.97
  A 0.41 0.41 0.0 0 1 895.83 612.46
  Q 898.60 601.52 898.54 591.49
  Q 898.53 588.81 895.75 589.14
  Q 886.93 590.16 876.37 592.06
  A 1.73 1.73 0.0 0 0 874.98 594.08
  Q 875.75 598.25 875.82 602.50
  C 875.98 613.26 874.53 622.70 873.13 634.07
  Q 871.41 648.08 869.97 656.54
  Q 868.79 663.47 868.71 665.05
  A 1.51 1.51 0.0 0 0 870.29 666.63
  L 890.35 665.69
  A 1.21 1.20 -90.0 0 0 891.49 664.54
  Q 892.16 648.38 896.41 632.64
  Q 899.56 621.03 906.26 611.50
  Q 908.68 608.05 911.79 606.36
  C 918.52 602.69 919.76 611.11 919.23 615.51
  C 917.47 630.24 914.14 649.01 912.67 662.63
  Q 912.47 664.49 912.58 665.13
  A 1.69 1.69 0.0 0 0 914.33 666.55
  L 933.74 665.56
  A 1.46 1.46 0.0 0 0 935.13 664.12
  C 935.34 644.92 939.85 623.65 951.68 608.70
  C 953.87 605.93 959.33 603.00 961.10 607.88
  Q 962.09 610.60 961.54 615.03
  Q 959.92 628.23 956.83 645.00
  C 955.45 652.51 954.00 662.69 960.88 666.89
  C 967.06 670.65 977.27 665.85 982.45 661.39
  A 1.54 1.53 -42.9 0 0 982.54 659.15
  L 980.07 656.68
  A 1.02 0.97 -78.7 0 1 979.81 656.27
  Q 978.28 651.75 978.80 645.99
  Q 979.13 642.27 983.16 611.73
  C 984.22 603.67 984.48 594.99 976.61 590.67
  C 968.51 586.21 958.08 589.60 951.41 595.41
  C 945.64 600.44 943.01 605.36 939.92 611.88
  A 0.43 0.43 0.0 0 1 939.10 611.62
  C 940.83 602.33 940.63 593.91 931.43 589.87
  C 926.04 587.51 918.46 588.83 913.81 591.81
  Q 902.70 598.91 896.70 612.85
  A 0.20 0.20 0.0 0 1 896.54 612.96
  L 896.25 612.97
  Z
  M 1017.45 666.64
  Q 1010.58 675.39 1002.54 680.64
  Q 999.15 682.86 994.25 682.12
  C 992.21 681.81 990.90 681.04 989.00 680.17
  A 1.48 1.46 -40.7 0 0 987.99 680.10
  Q 985.30 680.89 984.46 682.71
  Q 982.03 687.98 981.27 690.35
  A 3.16 3.14 29.8 0 0 982.17 693.64
  Q 988.07 698.96 996.77 697.98
  C 1007.50 696.78 1015.70 690.09 1022.67 681.91
  Q 1042.20 658.99 1055.50 630.97
  C 1061.41 618.53 1065.87 606.09 1065.79 592.51
  A 2.06 2.05 9.9 0 0 1064.43 590.58
  C 1060.64 589.22 1056.01 589.70 1049.07 589.88
  A 2.29 2.29 0.0 0 0 1046.83 592.17
  C 1046.82 596.30 1046.93 599.89 1046.28 603.91
  C 1043.73 619.75 1037.56 633.86 1029.98 647.97
  A 0.50 0.49 56.3 0 1 1029.05 647.78
  Q 1028.06 638.30 1026.10 627.63
  Q 1022.84 609.88 1019.34 592.08
  A 3.54 3.53 -89.0 0 0 1016.68 589.32
  Q 1014.98 588.93 1012.37 589.36
  Q 1003.27 590.87 994.95 593.04
  A 1.78 1.77 -15.7 0 0 993.70 595.26
  Q 1000.52 618.44 1007.66 649.56
  Q 1008.96 655.26 1009.87 662.70
  Q 1010.11 664.64 1010.73 666.22
  A 1.11 1.09 79.7 0 0 1011.74 666.93
  Q 1014.23 666.97 1017.04 666.06
  A 0.37 0.37 0.0 0 1 1017.45 666.64
  Z
  M 676.37 761.04
  A 2.02 2.02 0.0 0 0 673.72 759.95
  C 660.44 765.55 646.88 758.39 648.43 742.95
  C 649.54 731.92 658.52 726.53 669.51 728.82
  Q 670.65 729.06 674.16 730.38
  A 1.76 1.76 0.0 0 0 676.53 728.89
  L 676.83 725.80
  A 2.52 2.52 0.0 0 0 675.19 723.20
  C 666.53 720.01 654.65 720.44 647.47 726.88
  C 639.95 733.62 638.16 742.51 640.09 752.21
  C 642.20 762.87 651.85 768.96 662.32 769.17
  Q 671.38 769.35 676.40 766.40
  A 2.35 2.35 0.0 0 0 677.38 763.47
  L 676.37 761.04
  Z
  M 795.89 760.62
  C 802.06 754.10 813.02 745.13 812.84 735.06
  C 812.64 723.98 801.75 720.01 792.49 722.22
  Q 790.57 722.67 786.08 724.16
  A 2.77 2.76 76.6 0 0 784.22 727.19
  L 784.65 730.09
  A 1.85 1.84 -19.3 0 0 787.40 731.41
  C 791.24 729.19 795.70 727.53 799.78 729.74
  C 805.76 732.99 803.73 740.41 800.42 744.45
  Q 794.02 752.27 785.02 760.16
  A 4.22 4.21 68.8 0 0 783.58 763.44
  L 783.64 766.47
  A 2.01 2.01 0.0 0 0 785.65 768.43
  L 811.39 768.43
  A 2.27 2.27 0.0 0 0 813.66 766.11
  L 813.59 763.04
  A 2.36 2.36 0.0 0 0 811.18 760.73
  L 796.09 761.06
  A 0.26 0.26 0.0 0 1 795.89 760.62
  Z
  M 718.17 750.61
  Q 718.36 737.93 718.25 724.78
  Q 718.23 722.32 715.74 722.33
  Q 710.04 722.36 709.48 722.42
  A 2.85 2.84 -75.7 0 0 707.40 723.66
  L 688.95 751.24
  A 2.49 2.46 -22.3 0 0 688.58 752.11
  C 688.27 753.56 688.39 755.64 688.38 757.52
  Q 688.37 759.39 690.32 759.40
  Q 707.37 759.47 708.15 759.45
  A 0.58 0.58 0.0 0 1 708.74 760.03
  L 708.74 766.30
  A 2.31 2.30 -90.0 0 0 711.04 768.61
  L 715.85 768.61
  A 2.33 2.33 0.0 0 0 718.18 766.28
  L 718.18 760.25
  A 0.75 0.75 0.0 0 1 718.93 759.50
  L 721.16 759.50
  A 2.28 2.28 0.0 0 0 723.44 757.22
  L 723.44 753.80
  A 2.26 2.26 0.0 0 0 721.18 751.54
  L 719.08 751.54
  A 0.91 0.91 0.0 0 1 718.17 750.61
  Z
  M 765.08 750.58
  Q 765.23 737.92 765.09 724.79
  Q 765.06 722.33 762.57 722.35
  Q 756.88 722.39 756.32 722.45
  A 2.85 2.84 -75.9 0 0 754.25 723.70
  L 735.90 751.29
  A 2.49 2.46 -22.4 0 0 735.53 752.15
  C 735.23 753.60 735.35 755.68 735.35 757.56
  Q 735.34 759.43 737.29 759.43
  Q 754.31 759.45 755.09 759.43
  A 0.58 0.58 0.0 0 1 755.68 760.01
  L 755.70 766.27
  A 2.31 2.30 89.8 0 0 758.00 768.57
  L 762.81 768.56
  A 2.33 2.33 0.0 0 0 765.13 766.23
  L 765.11 760.21
  A 0.75 0.75 0.0 0 1 765.86 759.45
  L 768.08 759.45
  A 2.28 2.28 0.0 0 0 770.36 757.17
  L 770.35 753.75
  A 2.26 2.26 0.0 0 0 768.08 751.50
  L 765.99 751.51
  A 0.91 0.91 0.0 0 1 765.08 750.58
  Z
  M 553.59 745.23
  A 0.44 0.43 -46.0 0 1 553.58 744.46
  Q 560.64 740.63 559.64 733.05
  C 558.10 721.34 542.41 723.12 533.49 723.56
  C 531.10 723.68 530.46 724.76 530.44 727.10
  Q 530.40 734.08 530.45 766.30
  A 1.66 1.65 1.7 0 0 532.01 767.95
  Q 541.58 768.49 548.93 767.87
  C 556.89 767.21 563.01 761.86 561.43 753.26
  Q 560.44 747.87 555.32 745.90
  Q 553.64 745.26 553.59 745.23
  Z
  M 606.25 725.25
  A 1.07 1.07 0.0 0 0 605.33 723.64
  L 600.69 723.64
  A 1.07 1.07 0.0 0 0 599.76 724.18
  L 589.59 741.80
  A 1.07 1.07 0.0 0 1 587.72 741.78
  L 578.20 724.20
  A 1.07 1.07 0.0 0 0 577.26 723.64
  L 571.43 723.64
  A 1.07 1.07 0.0 0 0 570.51 725.25
  L 584.53 749.52
  A 1.07 1.07 0.0 0 1 584.67 750.06
  L 584.67 766.98
  A 1.07 1.07 0.0 0 0 585.74 768.05
  L 591.25 768.05
  A 1.07 1.07 0.0 0 0 592.32 766.98
  L 592.32 749.66
  A 1.07 1.07 0.0 0 1 592.46 749.12
  L 606.25 725.25
  Z
  M 865.40 756.69
  Q 869.21 756.69 872.90 756.59
  A 1.07 1.06 78.6 0 1 873.92 757.28
  L 877.37 766.27
  A 3.04 3.04 0.0 0 0 880.21 768.22
  L 883.15 768.22
  A 1.48 1.47 -10.5 0 0 884.53 766.22
  L 869.63 727.36
  A 1.70 1.69 -9.3 0 0 868.11 726.28
  Q 866.72 726.22 865.41 726.22
  Q 864.10 726.22 862.70 726.27
  A 1.70 1.69 9.4 0 0 861.19 727.36
  L 846.26 766.20
  A 1.48 1.47 10.5 0 0 847.63 768.21
  L 850.57 768.21
  A 3.04 3.04 0.0 0 0 853.42 766.26
  L 856.87 757.27
  A 1.07 1.06 -78.6 0 1 857.90 756.59
  Q 861.58 756.69 865.40 756.69
  Z
  M 994.68 729.87
  A 2.21 2.19 -77.0 0 0 993.27 727.60
  Q 988.17 725.64 982.61 726.28
  C 977.82 726.82 973.11 730.07 971.80 734.55
  Q 969.18 743.50 977.54 748.03
  C 980.59 749.68 984.48 750.79 987.55 753.25
  C 990.23 755.41 990.18 759.34 987.94 761.66
  C 984.55 765.17 977.38 763.85 973.77 761.64
  A 1.60 1.60 0.0 0 0 971.39 762.59
  L 970.88 764.48
  A 2.67 2.67 0.0 0 0 972.70 767.74
  C 982.86 770.78 997.35 769.50 996.66 755.81
  C 996.29 748.55 989.09 746.04 983.30 743.22
  C 980.26 741.73 977.94 738.86 978.85 735.48
  C 980.41 729.66 988.73 731.42 992.52 733.23
  A 1.37 1.37 0.0 0 0 994.47 732.13
  L 994.68 729.87
  Z
  M 903.15 752.61
  C 911.78 753.39 921.85 750.86 921.93 740.17
  C 922.04 726.33 906.98 726.99 897.16 727.76
  A 1.79 1.79 0.0 0 0 895.51 729.54
  L 895.51 766.50
  A 1.62 1.62 0.0 0 0 897.13 768.12
  L 901.04 768.12
  A 1.60 1.59 90.0 0 0 902.63 766.52
  L 902.63 753.08
  A 0.47 0.47 0.0 0 1 903.15 752.61
  Z
  M 941.44 752.61
  C 948.99 753.79 959.77 751.06 960.77 742.05
  C 962.55 726.13 945.33 726.96 935.07 727.63
  A 1.56 1.55 -1.8 0 0 933.61 729.18
  L 933.61 766.71
  A 1.44 1.43 0.0 0 0 935.05 768.14
  L 939.11 768.14
  A 1.66 1.66 0.0 0 0 940.77 766.48
  L 940.77 753.18
  A 0.58 0.58 0.0 0 1 941.44 752.61
  Z
  M 495.08 745.47
  A 3.25 3.25 0.0 0 0 491.83 742.22
  L 284.21 742.22
  A 3.25 3.25 0.0 0 0 280.96 745.47
  L 280.96 746.57
  A 3.25 3.25 0.0 0 0 284.21 749.82
  L 491.83 749.82
  A 3.25 3.25 0.0 0 0 495.08 746.57
  L 495.08 745.47
  Z
  M 1244.72 745.44
  A 3.22 3.22 0.0 0 0 1241.50 742.22
  L 1035.98 742.22
  A 3.22 3.22 0.0 0 0 1032.76 745.44
  L 1032.76 746.58
  A 3.22 3.22 0.0 0 0 1035.98 749.80
  L 1241.50 749.80
  A 3.22 3.22 0.0 0 0 1244.72 746.58
  L 1244.72 745.44
  Z"
/>
<path fill="#0098d5" d="
  M 1099.16 205.47
  A 0.42 0.42 0.0 0 0 1099.22 204.73
  L 1076.42 190.27
  A 0.94 0.94 0.0 0 1 1076.48 188.65
  L 1081.39 185.99
  A 1.84 1.82 37.9 0 1 1082.74 185.83
  L 1116.50 194.91
  A 5.06 5.00 -49.5 0 0 1119.93 194.62
  L 1147.12 182.03
  A 5.90 5.68 26.8 0 1 1148.61 181.57
  C 1152.92 180.87 1160.97 181.61 1157.93 188.39
  C 1155.85 193.03 1153.60 193.51 1148.46 196.16
  Q 1132.52 204.35 1128.69 206.23
  A 2.71 2.70 83.1 0 0 1127.21 208.13
  L 1121.51 235.83
  A 1.93 1.91 -12.4 0 1 1120.75 237.00
  Q 1118.25 238.77 1114.76 239.56
  A 0.77 0.77 0.0 0 1 1113.83 238.96
  Q 1111.67 228.10 1110.89 216.36
  A 0.82 0.81 76.8 0 0 1109.77 215.66
  L 1084.16 226.32
  A 1.56 1.56 0.0 0 0 1083.23 227.52
  C 1082.70 231.28 1082.75 234.43 1078.84 236.31
  A 1.00 0.98 48.6 0 1 1077.87 236.24
  Q 1076.53 235.36 1076.13 233.85
  Q 1075.22 230.46 1073.58 225.31
  A 1.58 1.56 -82.6 0 0 1072.96 224.49
  L 1065.14 219.26
  A 1.02 1.02 0.0 0 1 1065.20 217.53
  L 1069.45 215.07
  A 0.99 0.98 41.4 0 1 1070.32 215.02
  L 1077.20 217.88
  A 1.04 1.02 -48.2 0 0 1078.10 217.82
  Q 1086.32 213.17 1092.61 208.96
  C 1094.72 207.54 1097.13 206.40 1099.16 205.47
  Z"
/>
<path fill="#79c5dd" d="
  M 1046.62 220.30
  Q 1046.57 220.32 1046.56 220.35
  A 0.18 0.11 3.6 0 1 1046.43 220.42
  Q 1034.74 221.96 1022.99 223.60
  Q 999.61 226.85 969.26 231.82
  Q 955.31 234.10 922.83 240.14
  Q 915.16 241.57 880.84 249.15
  C 868.49 251.87 859.96 253.53 849.31 256.41
  Q 842.64 258.22 833.58 260.30
  Q 807.03 266.41 797.17 269.17
  Q 763.25 278.67 756.24 280.64
  C 740.76 284.98 724.98 290.15 710.82 294.50
  C 692.64 300.10 673.88 306.73 656.70 312.61
  C 634.81 320.10 612.69 328.55 589.99 336.98
  Q 552.16 351.01 530.90 359.95
  Q 520.22 364.45 518.54 365.13
  C 511.89 367.82 506.44 370.90 500.46 373.06
  A 6.53 6.46 33.2 0 1 498.58 373.44
  L 454.18 375.52
  A 0.82 0.82 0.0 0 1 453.87 373.93
  Q 476.51 365.88 504.15 354.56
  Q 510.02 352.16 513.66 350.85
  Q 521.95 347.88 523.25 347.27
  C 530.12 344.02 537.86 342.30 545.41 338.84
  C 549.09 337.15 553.23 336.21 556.70 334.61
  Q 561.90 332.22 565.01 331.33
  C 568.87 330.22 572.62 328.28 576.18 327.11
  Q 586.93 323.56 594.33 320.58
  C 603.67 316.80 611.59 314.85 621.14 311.14
  Q 623.92 310.05 631.93 307.53
  Q 653.51 300.74 675.36 293.49
  Q 675.73 293.36 681.23 291.69
  Q 699.92 286.00 718.22 280.49
  C 727.70 277.64 735.31 275.91 743.79 273.36
  C 754.97 270.01 773.64 265.34 788.81 261.86
  Q 816.32 255.55 832.25 251.59
  C 838.10 250.14 844.32 249.22 850.43 247.89
  Q 877.65 241.96 906.77 237.11
  Q 922.95 234.42 947.39 230.74
  C 963.22 228.36 979.02 227.14 996.98 224.91
  Q 1000.06 224.53 1038.00 220.71
  Q 1042.21 220.29 1046.46 220.16
  A 0.14 0.07 15.6 0 1 1046.62 220.30
  Z"
/>
<path fill="#0a213f" d="
  M 472.64 274.63
  L 472.89 274.68
  A 0.15 0.15 0.0 0 0 473.05 274.60
  Q 478.96 261.39 491.10 255.87
  Q 494.71 254.23 499.47 254.34
  C 510.70 254.60 511.94 263.67 510.89 272.56
  Q 510.89 272.63 508.75 285.35
  C 507.78 291.11 506.06 297.42 505.89 303.47
  Q 505.75 308.39 509.03 311.38
  A 1.04 1.04 0.0 0 1 508.95 312.97
  C 504.09 316.69 490.45 323.55 487.76 313.24
  C 486.50 308.42 487.63 301.86 488.70 296.43
  Q 491.48 282.34 492.80 274.01
  C 494.00 266.47 488.63 265.64 484.04 269.79
  Q 480.49 273.01 478.28 276.78
  C 470.98 289.22 469.16 301.70 467.84 315.73
  A 1.18 1.17 1.1 0 1 466.72 316.80
  L 451.17 317.52
  A 1.54 1.53 -86.9 0 1 449.58 315.75
  Q 456.34 272.70 461.25 241.25
  Q 462.28 234.71 461.41 227.62
  A 1.28 1.28 0.0 0 1 462.50 226.20
  L 478.80 223.76
  A 1.70 1.70 0.0 0 1 480.75 225.37
  Q 480.89 228.44 480.46 231.30
  Q 477.74 249.70 472.27 274.05
  A 0.48 0.48 0.0 0 0 472.64 274.63
  Z"
/>
<path fill="#f15459" d="
  M 1304.47 312.47
  Q 1304.54 310.99 1304.01 305.24
  Q 1303.57 300.47 1307.21 298.03
  A 0.68 0.67 -30.1 0 0 1307.44 297.18
  Q 1304.84 291.67 1302.73 289.51
  Q 1299.00 285.67 1293.29 281.07
  A 3.17 3.16 -62.5 0 1 1292.24 277.72
  Q 1295.31 267.16 1289.89 256.07
  C 1287.36 250.89 1283.29 247.86 1278.49 244.93
  C 1269.70 239.58 1260.54 239.57 1250.87 242.30
  C 1239.45 245.52 1230.31 255.40 1226.42 266.44
  C 1223.19 275.64 1222.10 285.82 1224.01 295.90
  C 1226.25 307.76 1231.27 318.06 1236.38 328.10
  Q 1239.34 333.90 1240.53 337.32
  C 1241.93 341.35 1243.96 345.61 1245.11 350.06
  Q 1249.00 365.00 1248.87 380.39
  A 1.81 1.80 86.3 0 1 1247.33 382.16
  L 1236.10 383.84
  A 1.44 1.43 87.7 0 1 1234.46 382.32
  Q 1235.02 374.14 1235.13 370.67
  C 1235.48 359.96 1232.79 348.42 1228.33 338.93
  Q 1223.59 328.87 1221.25 324.24
  Q 1218.50 318.82 1216.91 314.34
  Q 1213.57 304.91 1213.37 304.11
  C 1210.01 290.75 1209.63 278.63 1213.48 265.72
  C 1220.00 243.85 1239.00 227.96 1262.26 228.17
  Q 1277.81 228.31 1290.36 238.18
  Q 1292.90 240.17 1297.72 246.57
  C 1303.70 254.49 1305.42 264.98 1304.80 275.37
  A 1.33 1.31 -65.5 0 0 1305.16 276.35
  C 1309.13 280.44 1312.75 284.28 1315.81 289.01
  C 1320.86 296.83 1322.21 305.76 1320.46 315.41
  C 1318.40 326.80 1311.83 337.94 1299.76 340.21
  A 1.22 1.21 -6.3 0 1 1298.32 339.06
  Q 1297.84 323.83 1289.76 310.71
  Q 1285.39 303.62 1279.77 301.38
  C 1276.05 299.89 1270.82 299.46 1266.90 298.23
  Q 1260.90 296.35 1256.23 292.65
  A 0.53 0.52 -75.5 0 0 1255.39 293.15
  C 1255.94 296.53 1256.87 300.38 1258.61 304.16
  Q 1264.01 315.86 1265.43 317.99
  Q 1267.91 321.72 1274.07 330.14
  Q 1293.24 356.34 1296.49 362.01
  C 1307.76 381.66 1315.00 401.12 1314.80 423.98
  Q 1314.76 429.52 1312.36 440.17
  C 1309.79 451.53 1303.49 464.33 1294.31 472.23
  A 1.08 1.08 0.0 0 1 1292.84 472.18
  L 1287.73 467.06
  A 1.02 1.02 0.0 0 1 1287.62 465.75
  C 1290.88 461.11 1293.22 457.74 1295.48 452.61
  Q 1308.25 423.76 1297.81 393.42
  C 1294.63 384.17 1290.75 377.09 1285.93 368.66
  C 1282.22 362.17 1278.97 357.91 1275.52 352.45
  Q 1273.93 349.93 1270.17 344.81
  Q 1259.90 330.82 1257.96 327.81
  Q 1255.74 324.36 1250.33 314.01
  Q 1246.57 306.81 1243.87 295.02
  C 1242.07 287.17 1243.34 275.01 1252.71 272.59
  A 2.62 2.61 75.0 0 1 1255.88 274.43
  Q 1258.92 285.37 1270.40 288.39
  Q 1272.67 288.99 1279.81 289.27
  C 1285.48 289.50 1291.31 295.77 1295.23 299.40
  Q 1300.67 304.43 1303.80 312.58
  A 0.35 0.35 0.0 0 0 1304.47 312.47
  Z"
/>
<path fill="#0a213f" d="
  M 406.91 243.25
  A 0.59 0.59 0.0 0 0 406.33 242.57
  Q 396.27 242.48 384.04 244.07
  A 1.28 1.27 -89.8 0 1 382.61 242.63
  L 384.11 232.05
  A 1.62 1.61 -84.4 0 1 385.79 230.66
  Q 416.53 232.34 450.88 231.07
  A 1.31 1.30 -87.0 0 1 452.22 232.56
  L 450.75 242.99
  A 1.43 1.43 0.0 0 1 449.21 244.21
  L 427.16 242.12
  A 0.90 0.90 0.0 0 0 426.18 242.94
  Q 425.70 247.85 425.10 252.07
  Q 420.59 283.77 417.65 308.20
  Q 417.26 311.48 417.19 315.79
  A 0.96 0.96 0.0 0 1 416.27 316.73
  L 398.36 317.57
  A 1.63 1.63 0.0 0 1 396.67 315.72
  L 406.91 243.25
  Z"
/>
<path fill="#0a213f" d="
  M 536.41 293.10
  C 536.64 300.82 539.96 307.37 548.05 308.46
  C 552.87 309.10 559.29 306.37 562.87 303.62
  A 1.43 1.42 -32.9 0 1 564.99 304.07
  L 566.54 306.93
  A 2.03 2.02 55.9 0 1 566.06 309.45
  Q 554.78 318.84 541.00 318.68
  C 523.10 318.47 514.97 304.47 517.82 287.98
  Q 519.27 279.58 521.86 274.40
  C 528.47 261.19 540.47 253.75 555.57 254.34
  C 564.92 254.71 572.74 259.97 571.40 270.48
  C 570.68 276.17 565.89 280.97 560.73 283.92
  C 553.35 288.14 545.49 290.42 537.05 292.28
  A 0.83 0.81 83.6 0 0 536.41 293.10
  Z
  M 537.44 284.79
  Q 542.66 283.52 546.94 280.82
  C 551.86 277.72 555.51 272.05 554.18 266.17
  Q 553.54 263.40 551.78 262.39
  C 548.07 260.28 544.14 263.13 542.07 266.24
  C 538.61 271.41 537.08 278.01 536.91 284.36
  A 0.43 0.42 83.8 0 0 537.44 284.79
  Z"
/>
<path fill="#ffffff" d="
  M 537.44 284.79
  A 0.43 0.42 83.8 0 1 536.91 284.36
  C 537.08 278.01 538.61 271.41 542.07 266.24
  C 544.14 263.13 548.07 260.28 551.78 262.39
  Q 553.54 263.40 554.18 266.17
  C 555.51 272.05 551.86 277.72 546.94 280.82
  Q 542.66 283.52 537.44 284.79
  Z"
/>
<ellipse fill="#f15459" cx="0.00" cy="0.00" transform="translate(1278.81,270.69) rotate(-175.9)" rx="5.09" ry="4.81"/>
<path fill="#0098d5" d="
  M 794.60 328.28
  A 1.01 1.00 1.0 0 1 795.56 327.36
  Q 818.10 326.31 840.99 322.66
  C 843.57 322.25 844.02 323.94 843.74 326.14
  Q 840.22 354.12 837.80 371.30
  C 833.24 403.57 828.97 437.96 825.59 466.01
  Q 821.70 498.44 820.86 511.76
  Q 819.87 527.41 820.48 532.25
  Q 820.72 534.14 819.64 534.94
  Q 819.02 535.40 816.81 535.35
  Q 796.40 534.92 777.83 536.17
  Q 776.13 536.29 774.55 536.03
  A 1.51 1.51 0.0 0 1 773.29 534.53
  Q 773.30 531.69 773.72 527.50
  C 777.67 487.62 784.99 421.88 792.25 362.60
  Q 792.89 357.37 793.87 348.25
  C 794.62 341.22 794.12 334.10 794.60 328.28
  Z"
/>
<path fill="#f15459" d="
  M 1188.52 437.03
  Q 1189.09 436.52 1189.35 435.83
  Q 1192.15 428.40 1193.43 426.19
  Q 1196.70 420.53 1202.82 413.05
  Q 1209.48 404.90 1219.54 399.74
  Q 1229.73 394.51 1242.51 394.60
  Q 1249.25 394.66 1253.89 396.97
  C 1261.54 400.78 1267.31 406.36 1270.88 414.67
  C 1276.91 428.68 1278.20 443.42 1276.36 459.02
  C 1271.15 503.04 1239.38 539.12 1193.25 540.26
  C 1185.02 540.46 1176.57 540.20 1168.96 538.56
  Q 1154.94 535.54 1142.33 529.72
  Q 1140.17 528.72 1140.44 526.50
  C 1142.44 510.23 1143.46 497.05 1145.32 480.18
  Q 1152.40 416.29 1157.65 356.76
  Q 1158.88 342.79 1158.20 331.53
  C 1158.04 328.81 1158.39 327.71 1161.47 327.60
  Q 1170.85 327.27 1201.87 323.18
  Q 1204.55 322.83 1204.18 325.67
  Q 1198.80 366.75 1197.72 374.00
  Q 1194.27 397.10 1192.14 413.43
  Q 1190.50 425.99 1188.20 436.85
  A 0.19 0.19 0.0 0 0 1188.52 437.03
  Z
  M 1184.63 514.28
  C 1190.09 517.65 1196.81 519.07 1202.79 516.13
  Q 1208.54 513.30 1212.59 508.84
  C 1228.18 491.72 1235.13 467.50 1233.60 444.80
  C 1233.31 440.53 1230.64 429.68 1226.23 426.93
  C 1216.21 420.67 1204.11 439.23 1200.13 446.38
  Q 1189.92 464.74 1186.95 484.70
  Q 1184.89 498.52 1183.90 512.86
  A 1.54 1.53 18.0 0 0 1184.63 514.28
  Z"
/>
<path fill="#0098d5" d="
  M 212.18 361.02
  C 193.92 361.06 175.57 362.83 157.39 365.05
  A 1.50 1.49 1.0 0 1 155.72 363.33
  Q 156.44 358.90 160.03 331.78
  Q 160.22 330.38 160.98 329.66
  Q 161.59 329.10 163.17 329.19
  Q 208.64 331.98 223.00 332.49
  C 239.40 333.08 260.94 333.29 279.68 332.53
  Q 293.37 331.97 326.23 330.25
  Q 328.71 330.12 328.34 332.66
  Q 325.49 351.61 324.18 360.95
  A 1.58 1.58 0.0 0 1 322.53 362.31
  Q 292.57 360.67 262.66 360.83
  A 0.59 0.59 0.0 0 0 262.09 361.35
  Q 254.38 432.72 248.57 490.83
  C 247.19 504.64 245.91 520.48 246.24 533.75
  A 1.45 1.44 88.6 0 1 244.83 535.24
  L 196.90 536.29
  A 1.90 1.90 0.0 0 1 194.97 534.20
  Q 201.89 464.40 210.98 381.50
  Q 211.73 374.70 212.65 361.52
  A 0.47 0.46 2.2 0 0 212.18 361.02
  Z"
/>
<path fill="#f15459" d="
  M 932.91 511.00
  A 0.67 0.67 0.0 0 0 933.52 511.72
  Q 952.85 513.49 973.24 511.42
  Q 982.05 510.52 987.78 510.12
  A 1.71 1.70 88.5 0 1 989.60 511.85
  Q 989.53 515.20 989.53 515.26
  Q 988.06 524.66 987.40 534.05
  C 987.24 536.40 986.50 536.89 984.26 536.82
  Q 935.35 535.11 886.97 535.83
  A 1.45 1.45 0.0 0 1 885.50 534.21
  C 891.79 478.70 897.76 425.79 904.62 372.28
  Q 906.69 356.15 906.99 340.61
  A 1.98 1.98 0.0 0 1 908.84 338.68
  L 951.71 335.87
  A 1.72 1.72 0.0 0 1 953.46 337.04
  Q 953.84 338.16 953.62 339.78
  Q 943.54 414.35 933.76 501.50
  Q 933.30 505.61 932.91 511.00
  Z"
/>
<path fill="#0098d5" d="
  M 332.06 451.36
  L 332.08 451.36
  A 0.49 0.49 0.0 0 0 332.67 451.00
  Q 335.47 439.21 341.22 427.19
  Q 343.28 422.88 347.67 416.76
  Q 352.95 409.40 355.07 406.98
  C 363.38 397.51 378.31 390.65 390.83 395.97
  A 2.28 2.27 -71.0 0 1 392.13 398.65
  L 383.30 431.46
  A 1.35 1.35 0.0 0 1 381.44 432.34
  C 373.24 428.68 365.28 427.83 357.75 433.99
  Q 349.51 440.71 344.98 450.28
  Q 337.89 465.27 334.62 481.63
  C 331.22 498.70 328.69 515.76 329.23 533.43
  A 1.64 1.63 89.1 0 1 327.60 535.12
  Q 308.43 535.19 287.26 536.36
  C 284.15 536.53 283.99 534.86 284.27 532.19
  Q 287.14 504.28 291.40 464.23
  C 293.92 440.61 296.44 421.90 294.64 400.63
  A 2.05 2.04 84.9 0 1 296.48 398.42
  Q 316.64 396.47 335.38 393.82
  C 338.27 393.41 338.53 395.40 338.37 397.81
  Q 338.09 402.26 337.11 413.73
  Q 335.60 431.23 331.71 450.83
  A 0.46 0.46 0.0 0 0 332.06 451.36
  Z"
/>
<path fill="#0098d5" d="
  M 464.91 486.71
  Q 464.62 486.71 464.53 486.96
  Q 457.61 506.50 444.54 521.73
  Q 437.82 529.56 429.41 533.85
  C 418.96 539.19 405.68 541.17 395.46 535.26
  C 375.60 523.75 373.87 496.34 377.36 476.08
  C 383.01 443.18 403.13 413.17 434.18 400.18
  C 443.31 396.36 456.74 393.94 467.51 394.35
  C 482.23 394.91 496.32 398.03 510.36 401.56
  A 1.83 1.82 -81.1 0 1 511.73 403.45
  C 511.51 406.91 510.79 409.71 510.41 413.45
  C 507.83 438.49 504.54 463.85 502.85 489.27
  Q 502.15 499.79 502.66 507.77
  Q 503.32 518.07 510.86 524.69
  A 0.96 0.96 0.0 0 1 510.77 526.21
  Q 502.86 531.54 494.53 535.01
  C 489.72 537.02 483.79 539.00 478.59 538.36
  C 467.51 537.01 463.58 525.34 463.37 515.80
  Q 463.05 501.60 465.38 487.27
  Q 465.47 486.70 464.91 486.71
  Z
  M 465.98 421.08
  C 454.58 415.68 443.42 420.88 435.93 430.18
  Q 431.85 435.25 430.39 438.22
  Q 418.16 463.17 419.52 491.03
  C 419.70 494.73 421.35 504.35 425.05 506.55
  C 433.33 511.49 443.21 496.47 446.47 490.75
  C 456.71 472.80 463.19 452.91 464.82 432.48
  Q 465.37 425.66 466.22 421.56
  A 0.43 0.42 -72.2 0 0 465.98 421.08
  Z"
/>
<path fill="#0098d5" d="
  M 688.98 479.98
  Q 688.92 483.51 691.20 492.35
  C 694.55 505.32 703.29 514.65 717.42 514.93
  C 730.97 515.20 741.67 509.55 752.91 502.39
  A 0.83 0.83 0.0 0 1 754.08 502.67
  L 757.97 509.42
  A 1.04 1.04 0.0 0 1 757.86 510.62
  Q 732.70 540.26 693.25 538.67
  C 669.21 537.70 650.65 522.44 645.66 498.83
  C 642.66 484.61 643.97 470.52 647.90 456.15
  C 653.10 437.10 664.03 418.84 680.12 407.30
  Q 694.82 396.77 714.61 394.89
  C 736.61 392.80 762.32 400.27 761.93 427.53
  C 761.69 443.98 746.27 456.07 732.88 463.09
  Q 712.69 473.67 689.71 479.09
  A 0.94 0.94 0.0 0 0 688.98 479.98
  Z
  M 688.76 464.61
  C 705.40 457.32 725.91 445.93 722.91 424.02
  C 721.81 415.95 715.59 411.15 707.47 414.00
  C 700.54 416.43 695.88 425.21 693.29 432.51
  Q 687.76 448.12 688.40 464.38
  A 0.26 0.26 0.0 0 0 688.76 464.61
  Z"
/>
<path fill="#f15459" d="
  M 1083.60 488.22
  L 1083.34 488.18
  A 0.20 0.19 12.7 0 0 1083.13 488.31
  C 1079.33 499.93 1072.56 510.90 1064.89 520.27
  C 1053.25 534.47 1032.49 545.06 1014.76 535.98
  Q 1005.40 531.18 1000.11 519.45
  Q 995.56 509.37 995.23 497.25
  Q 994.30 462.92 1012.92 434.32
  C 1026.45 413.53 1047.42 398.63 1072.18 395.42
  C 1089.95 393.13 1110.31 397.08 1128.73 402.46
  A 1.27 1.27 0.0 0 1 1129.63 403.85
  Q 1125.50 434.72 1122.63 465.77
  Q 1120.82 485.30 1120.82 504.77
  Q 1120.82 508.67 1122.41 515.38
  Q 1123.80 521.20 1128.05 525.32
  A 1.45 1.44 -41.7 0 1 1127.92 527.50
  C 1117.27 535.67 1089.95 548.90 1083.30 527.92
  C 1082.41 525.12 1081.74 521.36 1081.68 517.97
  Q 1081.42 503.25 1083.91 488.64
  A 0.36 0.36 0.0 0 0 1083.60 488.22
  Z
  M 1084.28 422.20
  A 0.40 0.39 -74.1 0 0 1084.07 421.82
  C 1077.80 418.41 1071.12 418.54 1064.72 422.11
  C 1054.05 428.05 1047.54 441.17 1043.72 452.20
  Q 1036.11 474.20 1038.29 495.63
  C 1039.04 503.03 1043.18 512.93 1052.55 506.28
  Q 1056.86 503.21 1059.11 500.10
  C 1071.36 483.24 1079.18 462.33 1081.97 441.73
  Q 1083.52 430.23 1084.28 422.20
  Z"
/>
<path fill="#0098d5" d="
  M 588.32 499.86
  A 0.31 0.31 0.0 0 0 588.90 500.01
  Q 589.09 499.68 598.11 481.91
  Q 608.50 461.45 614.83 437.34
  Q 619.92 417.93 620.20 397.72
  A 1.01 1.01 0.0 0 1 621.26 396.73
  Q 634.86 397.44 646.08 397.43
  C 649.68 397.42 651.10 398.43 650.76 402.05
  C 649.21 418.21 643.02 433.04 637.30 447.10
  Q 630.81 463.05 619.11 486.91
  Q 610.03 505.42 595.10 534.29
  A 1.59 1.58 13.5 0 1 593.69 535.15
  Q 579.08 535.11 557.74 536.33
  Q 555.02 536.49 554.54 533.99
  Q 541.67 467.63 527.54 406.20
  Q 527.12 404.36 527.07 402.55
  A 1.34 1.34 0.0 0 1 528.23 401.19
  Q 558.74 397.11 569.74 395.91
  Q 571.27 395.74 572.12 396.57
  Q 572.70 397.13 573.04 398.89
  Q 581.40 441.99 587.18 487.76
  Q 588.25 496.15 588.32 499.86
  Z"
/>
<path fill="#ffffff" d="
  M 688.76 464.61
  A 0.26 0.26 0.0 0 1 688.40 464.38
  Q 687.76 448.12 693.29 432.51
  C 695.88 425.21 700.54 416.43 707.47 414.00
  C 715.59 411.15 721.81 415.95 722.91 424.02
  C 725.91 445.93 705.40 457.32 688.76 464.61
  Z"
/>
<path fill="#ffffff" d="
  M 465.98 421.08
  A 0.43 0.42 -72.2 0 1 466.22 421.56
  Q 465.37 425.66 464.82 432.48
  C 463.19 452.91 456.71 472.80 446.47 490.75
  C 443.21 496.47 433.33 511.49 425.05 506.55
  C 421.35 504.35 419.70 494.73 419.52 491.03
  Q 418.16 463.17 430.39 438.22
  Q 431.85 435.25 435.93 430.18
  C 443.42 420.88 454.58 415.68 465.98 421.08
  Z"
/>
<path fill="#ffffff" d="
  M 1084.28 422.20
  Q 1083.52 430.23 1081.97 441.73
  C 1079.18 462.33 1071.36 483.24 1059.11 500.10
  Q 1056.86 503.21 1052.55 506.28
  C 1043.18 512.93 1039.04 503.03 1038.29 495.63
  Q 1036.11 474.20 1043.72 452.20
  C 1047.54 441.17 1054.05 428.05 1064.72 422.11
  C 1071.12 418.54 1077.80 418.41 1084.07 421.82
  A 0.40 0.39 -74.1 0 1 1084.28 422.20
  Z"
/>
<path fill="#ffffff" d="
  M 1184.63 514.28
  A 1.54 1.53 18.0 0 1 1183.90 512.86
  Q 1184.89 498.52 1186.95 484.70
  Q 1189.92 464.74 1200.13 446.38
  C 1204.11 439.23 1216.21 420.67 1226.23 426.93
  C 1230.64 429.68 1233.31 440.53 1233.60 444.80
  C 1235.13 467.50 1228.18 491.72 1212.59 508.84
  Q 1208.54 513.30 1202.79 516.13
  C 1196.81 519.07 1190.09 517.65 1184.63 514.28
  Z"
/>
<path fill="#0a213f" d="
  M 1288.99 510.31
  Q 1293.89 510.32 1298.46 510.31
  A 1.08 1.07 -0.1 0 1 1299.54 511.38
  L 1299.54 512.89
  A 1.18 1.18 0.0 0 1 1298.36 514.07
  L 1291.75 514.07
  A 0.62 0.62 0.0 0 0 1291.13 514.69
  L 1291.13 538.01
  A 0.55 0.55 0.0 0 1 1290.63 538.56
  Q 1290.31 538.60 1289.00 538.60
  Q 1287.70 538.60 1287.37 538.56
  A 0.55 0.55 0.0 0 1 1286.88 538.01
  L 1286.86 514.69
  A 0.62 0.62 0.0 0 0 1286.24 514.07
  L 1279.63 514.08
  A 1.18 1.18 0.0 0 1 1278.45 512.90
  L 1278.45 511.39
  A 1.08 1.07 0.1 0 1 1279.53 510.31
  Q 1284.10 510.33 1288.99 510.31
  Z"
/>
<path fill="#0a213f" d="
  M 1309.66 517.24
  L 1310.11 538.04
  A 0.57 0.56 89.5 0 1 1309.55 538.62
  L 1306.30 538.62
  A 0.53 0.52 -90.0 0 1 1305.78 538.09
  L 1305.78 510.98
  A 0.68 0.68 0.0 0 1 1306.46 510.30
  L 1310.70 510.30
  A 1.05 1.05 0.0 0 1 1311.68 510.97
  L 1319.33 530.92
  A 0.37 0.37 0.0 0 0 1320.02 530.93
  L 1328.28 511.08
  A 1.36 1.34 -79.2 0 1 1329.49 510.25
  L 1333.61 510.17
  A 0.67 0.66 89.2 0 1 1334.29 510.84
  L 1334.29 537.75
  A 0.81 0.81 0.0 0 1 1333.48 538.56
  L 1331.08 538.56
  A 0.90 0.89 0.0 0 1 1330.18 537.67
  L 1330.18 516.78
  A 0.18 0.18 0.0 0 0 1329.91 516.63
  Q 1329.55 516.85 1329.44 517.19
  Q 1326.33 526.02 1321.58 536.88
  A 1.55 1.53 1.2 0 1 1320.70 537.71
  Q 1319.32 538.23 1318.22 537.56
  A 1.48 1.46 -85.4 0 1 1317.64 536.87
  L 1310.09 517.16
  A 0.22 0.22 0.0 0 0 1309.66 517.24
  Z"
/>
<path fill="#0a213f" d="
  M 762.00 642.00
  A 0.38 0.38 0.0 0 0 761.26 641.82
  Q 758.12 649.73 753.46 656.46
  C 747.20 665.49 736.75 670.82 726.00 666.96
  C 715.74 663.27 712.38 652.09 712.21 642.25
  C 711.92 624.91 718.76 607.85 732.40 596.93
  C 742.08 589.17 754.74 586.61 766.56 590.77
  A 0.42 0.42 0.0 0 0 767.12 590.42
  Q 768.39 578.66 769.23 570.51
  Q 769.82 564.80 768.89 559.21
  A 2.03 2.03 0.0 0 1 770.72 556.85
  Q 780.33 556.02 789.52 554.81
  C 791.96 554.49 793.70 554.79 793.27 557.75
  Q 785.39 612.39 785.11 614.57
  Q 782.66 633.15 781.70 643.44
  C 781.25 648.27 781.11 654.33 784.71 657.86
  Q 785.88 659.01 786.13 659.56
  A 1.07 1.07 0.0 0 1 785.94 660.75
  C 780.94 666.00 763.23 674.15 761.15 660.65
  Q 760.13 654.08 761.10 648.25
  Q 761.80 644.01 762.00 642.00
  Z
  M 764.13 602.51
  C 755.83 596.30 747.26 603.07 743.15 610.48
  Q 735.63 624.07 735.96 640.28
  C 736.06 645.27 738.53 654.51 745.88 649.68
  Q 748.62 647.88 751.69 643.21
  C 759.91 630.73 763.49 617.87 764.61 603.57
  A 1.22 1.21 20.7 0 0 764.13 602.51
  Z"
/>
<path fill="#0a213f" d="
  M 450.79 665.63
  Q 449.99 665.08 450.33 664.13
  Q 451.21 661.62 452.22 659.47
  Q 465.16 631.68 488.09 587.81
  Q 495.34 573.95 500.33 563.56
  A 2.70 2.69 -81.3 0 1 502.36 562.06
  Q 512.60 560.51 522.23 559.94
  Q 525.01 559.78 525.67 562.57
  Q 526.97 568.04 543.08 637.19
  Q 547.03 654.17 549.42 663.30
  A 1.36 1.35 79.6 0 1 548.25 665.00
  Q 543.09 665.55 533.32 666.60
  Q 530.02 666.96 526.22 666.72
  A 2.45 2.44 86.4 0 1 523.96 664.72
  L 518.75 636.91
  A 0.89 0.88 84.9 0 0 517.88 636.18
  L 482.00 636.18
  A 1.51 1.50 -76.4 0 0 480.66 637.01
  Q 473.21 651.92 469.36 665.29
  A 1.66 1.64 8.6 0 1 467.73 666.48
  Q 457.86 666.21 451.52 665.81
  Q 451.01 665.78 450.79 665.63
  Z
  M 506.91 582.52
  A 0.37 0.37 0.0 0 0 506.22 582.44
  L 486.99 622.88
  A 0.37 0.37 0.0 0 0 487.33 623.41
  L 515.57 623.41
  A 0.37 0.37 0.0 0 0 515.93 622.96
  L 506.91 582.52
  Z"
/>
<path fill="#ffffff" d="
  M 506.91 582.52
  L 515.93 622.96
  A 0.37 0.37 0.0 0 1 515.57 623.41
  L 487.33 623.41
  A 0.37 0.37 0.0 0 1 486.99 622.88
  L 506.22 582.44
  A 0.37 0.37 0.0 0 1 506.91 582.52
  Z"
/>
<path fill="#0a213f" d="
  M 615.48 647.72
  L 618.19 652.73
  A 1.38 1.37 -39.8 0 1 618.05 654.24
  C 611.08 662.90 600.14 667.86 589.26 668.28
  C 578.70 668.69 568.03 664.66 563.04 655.22
  C 560.89 651.16 559.35 646.00 559.17 641.06
  C 558.54 623.70 565.56 605.28 579.81 595.77
  C 590.90 588.38 609.72 584.96 621.15 593.75
  Q 625.77 597.30 625.52 603.77
  A 2.22 2.21 62.7 0 1 625.18 604.84
  C 622.57 608.96 613.97 612.28 609.47 613.55
  A 1.69 1.69 0.0 0 1 607.34 611.70
  C 607.93 607.14 606.50 601.32 601.70 599.91
  C 594.11 597.68 588.41 608.37 586.23 614.10
  C 582.86 622.98 581.54 634.64 583.72 643.50
  C 587.84 660.23 604.30 654.83 614.11 647.43
  A 0.93 0.92 -32.8 0 1 615.48 647.72
  Z"
/>
<path fill="#0a213f" d="
  M 677.19 642.35
  A 0.58 0.58 0.0 0 0 676.71 641.63
  L 676.43 641.59
  A 0.21 0.20 11.9 0 0 676.21 641.73
  Q 673.00 650.93 666.80 658.29
  C 660.14 666.18 651.33 670.72 640.91 666.81
  C 632.04 663.47 628.64 652.52 628.45 643.79
  C 628.03 624.42 637.50 603.17 654.66 593.91
  Q 667.32 587.08 682.77 589.03
  Q 691.37 590.11 700.49 591.84
  Q 703.23 592.36 702.78 594.98
  Q 701.53 602.19 698.78 624.66
  C 697.47 635.28 696.45 642.48 697.09 651.08
  Q 697.46 656.05 701.09 659.13
  A 1.20 1.19 -46.7 0 1 701.14 660.91
  C 693.87 667.77 676.91 674.44 675.69 657.50
  Q 675.18 650.38 677.19 642.35
  Z
  M 651.92 641.42
  C 652.15 645.32 652.92 652.28 658.71 650.67
  Q 660.96 650.05 663.24 647.24
  C 672.96 635.26 677.10 618.61 677.67 602.84
  A 1.06 1.05 -74.9 0 0 677.11 601.86
  C 666.04 595.93 658.60 608.36 655.67 616.64
  Q 651.20 629.27 651.92 641.42
  Z"
/>
<path fill="#0a213f" d="
  M 820.45 635.63
  C 820.23 643.21 824.08 651.38 831.56 653.78
  C 839.43 656.30 847.30 652.45 853.54 647.63
  A 0.98 0.97 56.9 0 1 855.00 647.94
  L 857.41 652.39
  A 2.10 2.10 0.0 0 1 857.16 654.76
  Q 849.97 663.08 840.32 666.10
  C 826.38 670.45 808.80 668.90 800.85 655.87
  C 793.57 643.94 794.92 626.44 801.04 613.86
  Q 807.40 600.81 818.42 594.32
  C 828.85 588.18 844.22 586.16 855.27 592.58
  Q 861.09 595.97 862.42 601.68
  C 864.71 611.54 859.64 619.33 851.49 624.24
  C 841.75 630.11 832.12 632.65 821.11 634.85
  A 0.82 0.82 0.0 0 0 820.45 635.63
  Z
  M 820.94 626.47
  Q 827.17 625.01 832.29 621.84
  C 838.17 618.20 842.57 611.50 841.04 604.49
  Q 840.31 601.18 838.22 599.97
  C 833.83 597.42 829.13 600.77 826.63 604.45
  C 822.47 610.57 820.58 618.41 820.32 625.96
  A 0.51 0.51 0.0 0 0 820.94 626.47
  Z"
/>
<path fill="#0a213f" d="
  M 896.25 612.97
  L 896.54 612.96
  A 0.20 0.20 0.0 0 0 896.70 612.85
  Q 902.70 598.91 913.81 591.81
  C 918.46 588.83 926.04 587.51 931.43 589.87
  C 940.63 593.91 940.83 602.33 939.10 611.62
  A 0.43 0.43 0.0 0 0 939.92 611.88
  C 943.01 605.36 945.64 600.44 951.41 595.41
  C 958.08 589.60 968.51 586.21 976.61 590.67
  C 984.48 594.99 984.22 603.67 983.16 611.73
  Q 979.13 642.27 978.80 645.99
  Q 978.28 651.75 979.81 656.27
  A 1.02 0.97 -78.7 0 0 980.07 656.68
  L 982.54 659.15
  A 1.54 1.53 -42.9 0 1 982.45 661.39
  C 977.27 665.85 967.06 670.65 960.88 666.89
  C 954.00 662.69 955.45 652.51 956.83 645.00
  Q 959.92 628.23 961.54 615.03
  Q 962.09 610.60 961.10 607.88
  C 959.33 603.00 953.87 605.93 951.68 608.70
  C 939.85 623.65 935.34 644.92 935.13 664.12
  A 1.46 1.46 0.0 0 1 933.74 665.56
  L 914.33 666.55
  A 1.69 1.69 0.0 0 1 912.58 665.13
  Q 912.47 664.49 912.67 662.63
  C 914.14 649.01 917.47 630.24 919.23 615.51
  C 919.76 611.11 918.52 602.69 911.79 606.36
  Q 908.68 608.05 906.26 611.50
  Q 899.56 621.03 896.41 632.64
  Q 892.16 648.38 891.49 664.54
  A 1.21 1.20 -90.0 0 1 890.35 665.69
  L 870.29 666.63
  A 1.51 1.51 0.0 0 1 868.71 665.05
  Q 868.79 663.47 869.97 656.54
  Q 871.41 648.08 873.13 634.07
  C 874.53 622.70 875.98 613.26 875.82 602.50
  Q 875.75 598.25 874.98 594.08
  A 1.73 1.73 0.0 0 1 876.37 592.06
  Q 886.93 590.16 895.75 589.14
  Q 898.53 588.81 898.54 591.49
  Q 898.60 601.52 895.83 612.46
  A 0.41 0.41 0.0 0 0 896.25 612.97
  Z"
/>
<path fill="#0a213f" d="
  M 1017.45 666.64
  A 0.37 0.37 0.0 0 0 1017.04 666.06
  Q 1014.23 666.97 1011.74 666.93
  A 1.11 1.09 79.7 0 1 1010.73 666.22
  Q 1010.11 664.64 1009.87 662.70
  Q 1008.96 655.26 1007.66 649.56
  Q 1000.52 618.44 993.70 595.26
  A 1.78 1.77 -15.7 0 1 994.95 593.04
  Q 1003.27 590.87 1012.37 589.36
  Q 1014.98 588.93 1016.68 589.32
  A 3.54 3.53 -89.0 0 1 1019.34 592.08
  Q 1022.84 609.88 1026.10 627.63
  Q 1028.06 638.30 1029.05 647.78
  A 0.50 0.49 56.3 0 0 1029.98 647.97
  C 1037.56 633.86 1043.73 619.75 1046.28 603.91
  C 1046.93 599.89 1046.82 596.30 1046.83 592.17
  A 2.29 2.29 0.0 0 1 1049.07 589.88
  C 1056.01 589.70 1060.64 589.22 1064.43 590.58
  A 2.06 2.05 9.9 0 1 1065.79 592.51
  C 1065.87 606.09 1061.41 618.53 1055.50 630.97
  Q 1042.20 658.99 1022.67 681.91
  C 1015.70 690.09 1007.50 696.78 996.77 697.98
  Q 988.07 698.96 982.17 693.64
  A 3.16 3.14 29.8 0 1 981.27 690.35
  Q 982.03 687.98 984.46 682.71
  Q 985.30 680.89 987.99 680.10
  A 1.48 1.46 -40.7 0 1 989.00 680.17
  C 990.90 681.04 992.21 681.81 994.25 682.12
  Q 999.15 682.86 1002.54 680.64
  Q 1010.58 675.39 1017.45 666.64
  Z"
/>
<path fill="#ffffff" d="
  M 820.94 626.47
  A 0.51 0.51 0.0 0 1 820.32 625.96
  C 820.58 618.41 822.47 610.57 826.63 604.45
  C 829.13 600.77 833.83 597.42 838.22 599.97
  Q 840.31 601.18 841.04 604.49
  C 842.57 611.50 838.17 618.20 832.29 621.84
  Q 827.17 625.01 820.94 626.47
  Z"
/>
<path fill="#ffffff" d="
  M 658.71 650.67
  C 652.92 652.28 652.15 645.32 651.92 641.42
  Q 651.20 629.27 655.67 616.64
  C 658.60 608.36 666.04 595.93 677.11 601.86
  A 1.06 1.05 -74.9 0 1 677.67 602.84
  C 677.10 618.61 672.96 635.26 663.24 647.24
  Q 660.96 650.05 658.71 650.67
  Z"
/>
<path fill="#ffffff" d="
  M 764.13 602.51
  A 1.22 1.21 20.7 0 1 764.61 603.57
  C 763.49 617.87 759.91 630.73 751.69 643.21
  Q 748.62 647.88 745.88 649.68
  C 738.53 654.51 736.06 645.27 735.96 640.28
  Q 735.63 624.07 743.15 610.48
  C 747.26 603.07 755.83 596.30 764.13 602.51
  Z"
/>
<path fill="#0a213f" d="
  M 676.37 761.04
  L 677.38 763.47
  A 2.35 2.35 0.0 0 1 676.40 766.40
  Q 671.38 769.35 662.32 769.17
  C 651.85 768.96 642.20 762.87 640.09 752.21
  C 638.16 742.51 639.95 733.62 647.47 726.88
  C 654.65 720.44 666.53 720.01 675.19 723.20
  A 2.52 2.52 0.0 0 1 676.83 725.80
  L 676.53 728.89
  A 1.76 1.76 0.0 0 1 674.16 730.38
  Q 670.65 729.06 669.51 728.82
  C 658.52 726.53 649.54 731.92 648.43 742.95
  C 646.88 758.39 660.44 765.55 673.72 759.95
  A 2.02 2.02 0.0 0 1 676.37 761.04
  Z"
/>
<path fill="#0a213f" d="
  M 795.89 760.62
  A 0.26 0.26 0.0 0 0 796.09 761.06
  L 811.18 760.73
  A 2.36 2.36 0.0 0 1 813.59 763.04
  L 813.66 766.11
  A 2.27 2.27 0.0 0 1 811.39 768.43
  L 785.65 768.43
  A 2.01 2.01 0.0 0 1 783.64 766.47
  L 783.58 763.44
  A 4.22 4.21 68.8 0 1 785.02 760.16
  Q 794.02 752.27 800.42 744.45
  C 803.73 740.41 805.76 732.99 799.78 729.74
  C 795.70 727.53 791.24 729.19 787.40 731.41
  A 1.85 1.84 -19.3 0 1 784.65 730.09
  L 784.22 727.19
  A 2.77 2.76 76.6 0 1 786.08 724.16
  Q 790.57 722.67 792.49 722.22
  C 801.75 720.01 812.64 723.98 812.84 735.06
  C 813.02 745.13 802.06 754.10 795.89 760.62
  Z"
/>
<path fill="#0a213f" d="
  M 719.08 751.54
  L 721.18 751.54
  A 2.26 2.26 0.0 0 1 723.44 753.80
  L 723.44 757.22
  A 2.28 2.28 0.0 0 1 721.16 759.50
  L 718.93 759.50
  A 0.75 0.75 0.0 0 0 718.18 760.25
  L 718.18 766.28
  A 2.33 2.33 0.0 0 1 715.85 768.61
  L 711.04 768.61
  A 2.31 2.30 -90.0 0 1 708.74 766.30
  L 708.74 760.03
  A 0.58 0.58 0.0 0 0 708.15 759.45
  Q 707.37 759.47 690.32 759.40
  Q 688.37 759.39 688.38 757.52
  C 688.39 755.64 688.27 753.56 688.58 752.11
  A 2.49 2.46 -22.3 0 1 688.95 751.24
  L 707.40 723.66
  A 2.85 2.84 -75.7 0 1 709.48 722.42
  Q 710.04 722.36 715.74 722.33
  Q 718.23 722.32 718.25 724.78
  Q 718.36 737.93 718.17 750.61
  A 0.91 0.91 0.0 0 0 719.08 751.54
  Z
  M 708.89 733.37
  A 0.39 0.39 0.0 0 0 708.16 733.17
  L 697.69 751.30
  A 0.39 0.39 0.0 0 0 698.03 751.89
  L 708.50 751.89
  A 0.39 0.39 0.0 0 0 708.89 751.50
  L 708.89 733.37
  Z"
/>
<path fill="#0a213f" d="
  M 765.08 750.58
  A 0.91 0.91 0.0 0 0 765.99 751.51
  L 768.08 751.50
  A 2.26 2.26 0.0 0 1 770.35 753.75
  L 770.36 757.17
  A 2.28 2.28 0.0 0 1 768.08 759.45
  L 765.86 759.45
  A 0.75 0.75 0.0 0 0 765.11 760.21
  L 765.13 766.23
  A 2.33 2.33 0.0 0 1 762.81 768.56
  L 758.00 768.57
  A 2.31 2.30 89.8 0 1 755.70 766.27
  L 755.68 760.01
  A 0.58 0.58 0.0 0 0 755.09 759.43
  Q 754.31 759.45 737.29 759.43
  Q 735.34 759.43 735.35 757.56
  C 735.35 755.68 735.23 753.60 735.53 752.15
  A 2.49 2.46 -22.4 0 1 735.90 751.29
  L 754.25 723.70
  A 2.85 2.84 -75.9 0 1 756.32 722.45
  Q 756.88 722.39 762.57 722.35
  Q 765.06 722.33 765.09 724.79
  Q 765.23 737.92 765.08 750.58
  Z
  M 744.21 752.10
  L 755.06 751.86
  A 0.80 0.79 -0.7 0 0 755.84 751.07
  L 755.84 733.32
  A 0.19 0.19 0.0 0 0 755.59 733.14
  Q 755.25 733.27 755.06 733.57
  Q 752.03 738.57 743.85 751.47
  A 0.41 0.41 0.0 0 0 744.21 752.10
  Z"
/>
<path fill="#0a213f" d="
  M 553.59 745.23
  Q 553.64 745.26 555.32 745.90
  Q 560.44 747.87 561.43 753.26
  C 563.01 761.86 556.89 767.21 548.93 767.87
  Q 541.58 768.49 532.01 767.95
  A 1.66 1.65 1.7 0 1 530.45 766.30
  Q 530.40 734.08 530.44 727.10
  C 530.46 724.76 531.10 723.68 533.49 723.56
  C 542.41 723.12 558.10 721.34 559.64 733.05
  Q 560.64 740.63 553.58 744.46
  A 0.44 0.43 -46.0 0 0 553.59 745.23
  Z
  M 537.53 728.88
  L 537.57 742.00
  A 0.48 0.48 0.0 0 0 538.05 742.47
  L 544.97 742.45
  A 7.44 6.29 -0.2 0 0 552.39 736.13
  L 552.39 734.63
  A 7.44 6.29 -0.2 0 0 544.93 728.37
  L 538.01 728.39
  A 0.48 0.48 0.0 0 0 537.53 728.88
  Z
  M 537.55 748.13
  L 537.51 762.11
  A 0.67 0.67 0.0 0 0 538.17 762.78
  L 545.31 762.81
  A 8.99 7.26 0.2 0 0 554.33 755.58
  L 554.33 754.78
  A 8.99 7.26 0.2 0 0 545.37 747.49
  L 538.23 747.46
  A 0.67 0.67 0.0 0 0 537.55 748.13
  Z"
/>
<path fill="#0a213f" d="
  M 606.25 725.25
  L 592.46 749.12
  A 1.07 1.07 0.0 0 0 592.32 749.66
  L 592.32 766.98
  A 1.07 1.07 0.0 0 1 591.25 768.05
  L 585.74 768.05
  A 1.07 1.07 0.0 0 1 584.67 766.98
  L 584.67 750.06
  A 1.07 1.07 0.0 0 0 584.53 749.52
  L 570.51 725.25
  A 1.07 1.07 0.0 0 1 571.43 723.64
  L 577.26 723.64
  A 1.07 1.07 0.0 0 1 578.20 724.20
  L 587.72 741.78
  A 1.07 1.07 0.0 0 0 589.59 741.80
  L 599.76 724.18
  A 1.07 1.07 0.0 0 1 600.69 723.64
  L 605.33 723.64
  A 1.07 1.07 0.0 0 1 606.25 725.25
  Z"
/>
<path fill="#0a213f" d="
  M 865.41 726.22
  Q 866.72 726.22 868.11 726.28
  A 1.70 1.69 -9.3 0 1 869.63 727.36
  L 884.53 766.22
  A 1.48 1.47 -10.5 0 1 883.15 768.22
  L 880.21 768.22
  A 3.04 3.04 0.0 0 1 877.37 766.27
  L 873.92 757.28
  A 1.07 1.06 78.6 0 0 872.90 756.59
  Q 869.21 756.69 865.40 756.69
  Q 861.58 756.69 857.90 756.59
  A 1.07 1.06 -78.6 0 0 856.87 757.27
  L 853.42 766.26
  A 3.04 3.04 0.0 0 1 850.57 768.21
  L 847.63 768.21
  A 1.48 1.47 10.5 0 1 846.26 766.20
  L 861.19 727.36
  A 1.70 1.69 9.4 0 1 862.70 726.27
  Q 864.10 726.22 865.41 726.22
  Z
  M 858.59 751.25
  A 0.33 0.33 0.0 0 0 858.91 751.68
  L 871.38 751.55
  A 0.33 0.33 0.0 0 0 871.69 751.11
  L 865.27 733.57
  A 0.33 0.33 0.0 0 0 864.65 733.57
  L 858.59 751.25
  Z"
/>
<path fill="#0a213f" d="
  M 994.68 729.87
  L 994.47 732.13
  A 1.37 1.37 0.0 0 1 992.52 733.23
  C 988.73 731.42 980.41 729.66 978.85 735.48
  C 977.94 738.86 980.26 741.73 983.30 743.22
  C 989.09 746.04 996.29 748.55 996.66 755.81
  C 997.35 769.50 982.86 770.78 972.70 767.74
  A 2.67 2.67 0.0 0 1 970.88 764.48
  L 971.39 762.59
  A 1.60 1.60 0.0 0 1 973.77 761.64
  C 977.38 763.85 984.55 765.17 987.94 761.66
  C 990.18 759.34 990.23 755.41 987.55 753.25
  C 984.48 750.79 980.59 749.68 977.54 748.03
  Q 969.18 743.50 971.80 734.55
  C 973.11 730.07 977.82 726.82 982.61 726.28
  Q 988.17 725.64 993.27 727.60
  A 2.21 2.19 -77.0 0 1 994.68 729.87
  Z"
/>
<path fill="#0a213f" d="
  M 903.15 752.61
  A 0.47 0.47 0.0 0 0 902.63 753.08
  L 902.63 766.52
  A 1.60 1.59 -90.0 0 1 901.04 768.12
  L 897.13 768.12
  A 1.62 1.62 0.0 0 1 895.51 766.50
  L 895.51 729.54
  A 1.79 1.79 0.0 0 1 897.16 727.76
  C 906.98 726.99 922.04 726.33 921.93 740.17
  C 921.85 750.86 911.78 753.39 903.15 752.61
  Z
  M 902.66 733.22
  L 902.58 746.82
  A 0.99 0.99 0.0 0 0 903.57 747.81
  L 907.07 747.83
  A 7.69 7.30 0.3 0 0 914.80 740.57
  L 914.80 739.59
  A 7.69 7.30 0.3 0 0 907.15 732.25
  L 903.65 732.23
  A 0.99 0.99 0.0 0 0 902.66 733.22
  Z"
/>
<path fill="#0a213f" d="
  M 941.44 752.61
  A 0.58 0.58 0.0 0 0 940.77 753.18
  L 940.77 766.48
  A 1.66 1.66 0.0 0 1 939.11 768.14
  L 935.05 768.14
  A 1.44 1.43 -0.0 0 1 933.61 766.71
  L 933.61 729.18
  A 1.56 1.55 -1.8 0 1 935.07 727.63
  C 945.33 726.96 962.55 726.13 960.77 742.05
  C 959.77 751.06 948.99 753.79 941.44 752.61
  Z
  M 940.77 732.95
  L 940.81 747.09
  A 0.72 0.72 0.0 0 0 941.54 747.81
  L 945.88 747.79
  A 7.64 7.39 -0.2 0 0 953.49 740.38
  L 953.49 739.58
  A 7.64 7.39 -0.2 0 0 945.82 732.21
  L 941.48 732.23
  A 0.72 0.72 0.0 0 0 940.77 732.95
  Z"
/>
<path fill="#ffffff" d="
  M 537.53 728.88
  A 0.48 0.48 0.0 0 1 538.01 728.39
  L 544.93 728.37
  A 7.44 6.29 -0.2 0 1 552.39 734.63
  L 552.39 736.13
  A 7.44 6.29 -0.2 0 1 544.97 742.45
  L 538.05 742.47
  A 0.48 0.48 0.0 0 1 537.57 742.00
  L 537.53 728.88
  Z"
/>
<path fill="#ffffff" d="
  M 902.66 733.22
  A 0.99 0.99 0.0 0 1 903.65 732.23
  L 907.15 732.25
  A 7.69 7.30 0.3 0 1 914.80 739.59
  L 914.80 740.57
  A 7.69 7.30 0.3 0 1 907.07 747.83
  L 903.57 747.81
  A 0.99 0.99 0.0 0 1 902.58 746.82
  L 902.66 733.22
  Z"
/>
<path fill="#ffffff" d="
  M 940.77 732.95
  A 0.72 0.72 0.0 0 1 941.48 732.23
  L 945.82 732.21
  A 7.64 7.39 -0.2 0 1 953.49 739.58
  L 953.49 740.38
  A 7.64 7.39 -0.2 0 1 945.88 747.79
  L 941.54 747.81
  A 0.72 0.72 0.0 0 1 940.81 747.09
  L 940.77 732.95
  Z"
/>
<path fill="#ffffff" d="
  M 744.21 752.10
  A 0.41 0.41 0.0 0 1 743.85 751.47
  Q 752.03 738.57 755.06 733.57
  Q 755.25 733.27 755.59 733.14
  A 0.19 0.19 0.0 0 1 755.84 733.32
  L 755.84 751.07
  A 0.80 0.79 -0.7 0 1 755.06 751.86
  L 744.21 752.10
  Z"
/>
<path fill="#ffffff" d="
  M 708.89 733.37
  L 708.89 751.50
  A 0.39 0.39 0.0 0 1 708.50 751.89
  L 698.03 751.89
  A 0.39 0.39 0.0 0 1 697.69 751.30
  L 708.16 733.17
  A 0.39 0.39 0.0 0 1 708.89 733.37
  Z"
/>
<path fill="#ffffff" d="
  M 858.59 751.25
  L 864.65 733.57
  A 0.33 0.33 0.0 0 1 865.27 733.57
  L 871.69 751.11
  A 0.33 0.33 0.0 0 1 871.38 751.55
  L 858.91 751.68
  A 0.33 0.33 0.0 0 1 858.59 751.25
  Z"
/>
<rect fill="#959aa2" x="280.96" y="742.22" width="214.12" height="7.60" rx="3.25"/>
<rect fill="#959aa2" x="1032.76" y="742.22" width="211.96" height="7.58" rx="3.22"/>
<path fill="#ffffff" d="
  M 537.55 748.13
  A 0.67 0.67 0.0 0 1 538.23 747.46
  L 545.37 747.49
  A 8.99 7.26 0.2 0 1 554.33 754.78
  L 554.33 755.58
  A 8.99 7.26 0.2 0 1 545.31 762.81
  L 538.17 762.78
  A 0.67 0.67 0.0 0 1 537.51 762.11
  L 537.55 748.13
  Z"
/>
</svg>
